<?xml version="1.0" encoding="utf-8"?>
<svg width="54.146606px" height="60.87085px" viewBox="0 0 54.146606 60.87085" version="1.1" xmlns:xlink="http://www.w3.org/1999/xlink" xmlns="http://www.w3.org/2000/svg">
  <g id="Icon">
    <path d="M52.186 17.2734C52.3083 18.6096 51.9004 19.9405 51.0501 20.9785C52.4225 21.8336 53.4349 23.161 53.8966 24.7107C54.6809 27.5167 53.403 30.2888 53.0311 31.0055C53.3218 44.6362 47.994 47.6787 46.3375 48.294C45.7492 51.6341 44.4443 54.0951 42.3686 55.6164C40.7644 56.7684 38.8172 57.3428 36.8447 57.2459C36.1358 59.441 34.0733 60.913 31.767 60.8699C30.2259 60.8064 28.7219 60.3777 27.3789 59.6191L26.3377 59.5447C24.3025 60.3966 22.5176 60.4507 21.0436 59.7746C19.8986 59.2017 18.9915 58.2443 18.4811 57.0701C13.6092 57.5154 11.2762 55.4556 9.02881 53.4715L9.01537 53.4596C8.6435 53.1621 8.27163 52.8037 7.88624 52.486C6.2392 51.2111 5.22556 49.2849 5.10736 47.2054C3.2345 46.1507 2.17974 44.866 1.96338 43.3718C1.84099 42.0355 2.24898 40.7047 3.09927 39.6666C1.72027 38.8033 0.70708 37.4628 0.25278 35.9006C-0.53829 33.0947 0.74635 30.3226 1.11822 29.6059C0.82749 15.9752 6.15535 12.9326 7.81186 12.3174C8.40009 8.97731 9.70501 6.51621 11.7807 4.99493C13.3854 3.84393 15.3322 3.26965 17.3046 3.36547C18.0078 1.66839 19.0829 0.60012 20.4351 0.18768C22.93 -0.56282 25.6345 1.14778 26.3106 1.62783L27.5209 1.73601C29.6913 0.42433 31.5303 0.07274 33.0719 0.69478C34.2837 1.2589 35.2171 2.28739 35.6615 3.54803C40.5201 3.1045 42.8474 5.15236 45.0862 7.12242L45.1272 7.15854C45.4991 7.45604 45.871 7.81438 46.2564 8.13216C47.9128 9.41184 48.9298 11.3495 49.042 13.4397C50.9149 14.4945 51.9696 15.7791 52.186 17.2734ZM26.1214 58.1924L25.9659 58.2601C24.2485 59.0038 22.7948 59.112 21.6522 58.5778C20.7646 58.0738 20.104 57.2486 19.8064 56.2723L21.3614 53.8991L20.2255 53.1553L18.6637 55.542L18.5285 55.7111C14.1269 56.137 12.1796 54.4264 9.93491 52.4454C9.55628 52.1141 9.17089 51.7693 8.77874 51.4447C7.57614 50.513 6.77156 49.16 6.52724 47.6584L6.56781 47.6584C7.39555 47.9177 8.25628 48.0566 9.12356 48.0708C10.5008 48.1662 11.8264 47.529 12.6124 46.394L11.4765 45.6503C10.1242 47.6787 6.33117 46.198 5.47925 45.8329C4.20137 45.0486 3.45087 44.1561 3.33593 43.1892C3.09441 41.5254 4.59694 40.0348 4.63351 39.9985L4.63409 39.9979L5.31022 39.3556L4.49887 38.9093C3.10551 38.2329 2.05519 37.0087 1.59829 35.5287C1.01682 33.5003 1.83493 31.3503 2.22709 30.4916L2.32175 30.4375C3.54554 29.8493 5.91874 29.0852 6.73685 29.7614C7.8795 30.7688 9.44135 32.0196 10.584 32.2428L10.8477 30.8905C10.6178 30.8432 9.69828 30.5524 7.62933 28.7269C6.34469 27.5978 4.04586 28.2401 2.65305 28.7945L2.49754 28.8621C2.39612 16.2727 7.41297 13.8589 8.40687 13.5073L8.58266 13.602C9.46839 14.1091 11.6252 15.9211 10.131 20.9717C10.131 20.9717 9.49543 23.1151 8.10261 23.7439L8.59618 25.0353C9.69411 24.4593 10.5554 23.5166 11.0302 22.3713C15.0397 20.9177 19.4209 24.3997 19.4615 24.4538L20.3134 23.4261C20.1241 23.2706 15.9592 19.9238 11.5711 20.8298C12.9234 15.6101 10.6178 13.3924 9.36696 12.5878L9.17089 12.4593C9.67797 9.53849 10.8206 7.4087 12.5515 6.1173C14.025 5.06212 15.833 4.58127 17.636 4.76505L18.1972 4.85294L18.3865 4.3188C18.9274 2.77047 19.7387 1.81714 20.807 1.49936C22.7869 0.880644 25.163 2.5266 25.5731 2.81062C25.6111 2.83698 25.6322 2.85161 25.6345 2.85161C25.7503 2.95556 25.8525 3.07369 25.9388 3.20319C27.4602 5.86122 27.4884 9.11956 26.0132 11.8035C25.8878 12.0318 25.7307 12.2413 25.5466 12.4255C23.656 11.8604 21.649 11.8091 19.732 12.2768L19.732 12.2227C18.9341 10.8704 17.0275 10.4377 15.8172 10.4377L15.8172 11.79C15.8172 11.79 17.6765 11.79 18.4338 12.7298C17.2397 13.3063 16.2115 14.1763 15.4453 15.2585L16.5474 16.0563C19.1843 12.4188 23.4236 13.1828 25.0328 13.6426L25.0328 13.6764C24.6609 15.0286 24.573 17.226 25.648 20.4376C27.548 26.1306 25.3438 29.4301 25.2491 29.5585L25.168 29.7141C24.2148 32.7718 24.7477 36.0994 26.6081 38.7065C28.8258 41.8911 26.2701 45.2987 25.452 46.2453L25.3776 46.3129C25.3235 46.3129 25.1004 46.2521 24.7488 46.1912C22.9909 45.8126 19.7387 44.7646 18.995 42.9796C18.6569 42.1683 18.8733 41.2487 19.6711 40.1737C21.1248 38.1453 20.8543 36.8336 20.3472 36.0764C19.4683 34.6903 17.3587 34.3793 15.6617 34.7241C13.6333 35.0892 12.2134 36.2454 11.9092 37.7261L13.2614 37.9966C13.4913 36.881 14.7895 36.2589 15.9321 36.0561C17.3858 35.7924 18.7719 36.1169 19.2249 36.8336C19.6779 37.5503 19.022 38.7809 18.5487 39.4164C17.494 40.8836 17.1965 42.2697 17.7441 43.534C18.3236 44.6823 19.2777 45.5982 20.4486 46.1304C18.2445 46.4346 15.9389 47.4353 14.972 50.0925L16.2499 50.5522C17.6427 46.7118 23.2613 47.1716 24.8502 47.4691L25.3303 47.5637C25.3303 47.5637 28.596 49.4839 26.1214 58.1316L26.1214 58.1924ZM47.3112 30.7283C46.7432 30.4308 46.6351 29.9101 46.5066 29.092C46.3781 28.2739 46.2023 27.1245 44.9447 26.7324L44.5391 28.0305C44.9312 28.1522 45.0259 28.4091 45.1611 29.3016C45.2963 30.1941 45.4721 31.33 46.6756 31.9318C47.3036 32.2497 48.0003 32.4077 48.704 32.3915C49.6812 32.3685 50.6459 32.1668 51.5505 31.7965L51.6789 31.7492C51.7668 44.3792 46.7162 46.7457 45.7561 47.0837C44.9109 46.6172 42.5242 44.7646 44.0455 39.6464C44.0455 39.6464 44.6811 37.503 46.0739 36.8742L45.5194 35.6369C44.4203 36.2146 43.5589 37.1598 43.0854 38.3076C39.0827 39.7478 34.6879 36.2793 34.6474 36.2184L33.836 37.2056C34.005 37.3408 37.2572 39.9574 41.03 39.9574C41.5567 39.9572 42.0821 39.9051 42.5986 39.8019C42.0728 41.5458 42.0728 43.4061 42.5986 45.15C40.8339 45.8261 38.1632 46.5023 37.0949 45.7653L36.3174 46.8741C36.9766 47.2854 37.7455 47.4859 38.5216 47.4488C40.1201 47.3647 41.6918 47.0033 43.1665 46.3806L43.2003 46.3806C43.6797 47.1017 44.3094 47.7106 45.0462 48.1655C44.5391 51.0864 43.3964 53.223 41.6656 54.5144C40.2871 55.4892 38.6181 55.9661 36.9327 55.8666L35.1883 53.0945L34.0118 53.7706L35.6413 56.5968C35.2703 57.8164 34.3757 58.8076 33.2005 59.3013C30.928 60.1223 28.1387 58.5317 27.9562 58.4276C27.9509 58.4245 27.9477 58.4228 27.947 58.4224L27.805 58.3412L27.805 58.2601C29.9184 50.9387 27.7747 48.3617 26.7369 47.1141C26.7089 47.0805 26.6818 47.0479 26.6556 47.0161C28.2512 45.1027 30.0835 41.3435 27.7441 37.9899C26.1539 35.7679 25.6728 32.9385 26.4392 30.3158C26.8043 29.7411 28.6298 26.5296 27.3317 21.3504C27.6765 21.4383 28.0889 21.5262 28.4811 21.5803C30.1984 22.1144 32.2674 23.0475 32.8353 24.4268C33.1734 25.2381 32.957 26.1577 32.1592 27.2327C30.7123 29.2611 30.976 30.5728 31.4831 31.33C32.1592 32.3983 33.5588 32.8243 34.9448 32.8243C35.3552 32.8249 35.7648 32.7887 36.1686 32.7161C38.197 32.351 39.6169 31.1948 39.9211 29.7141L38.5689 29.4436C38.339 30.5592 37.0408 31.1813 35.8982 31.3841C34.4445 31.6478 33.0584 31.3233 32.6054 30.6066C32.1524 29.8899 32.8083 28.6593 33.2816 28.0238C34.3363 26.5566 34.6338 25.1705 34.0862 23.9062C33.6011 22.8893 32.8024 22.0551 31.8076 21.5262C34.1396 21.1765 36.0849 19.5618 36.8583 17.3342L35.5872 16.8542C34.2349 20.4038 30.8543 20.5255 28.6704 20.201C28.0741 20.0261 27.4693 19.8817 26.8584 19.7683C25.851 16.5973 26.1011 14.6974 26.4798 13.6832L26.5609 13.5141C27.1164 12.7098 27.5706 11.8401 27.9131 10.9246C29.3397 12.3879 31.2794 13.239 33.3221 13.2978C35.2125 13.2389 37.0229 12.5214 38.4404 11.2694L37.5006 10.289C37.3248 10.4581 32.9976 14.2173 28.2918 9.42359C28.7551 7.37488 28.6166 5.23592 27.8929 3.26409L27.832 3.10858L28.0213 2.99364C29.8536 1.83071 31.402 1.47912 32.5311 1.93889C34.0456 2.54064 34.5595 4.39998 34.5595 4.41351L34.7014 4.99498L35.2964 4.92737C39.9211 4.39999 41.9495 6.15115 44.2348 8.17953C44.6134 8.51083 44.9988 8.85565 45.391 9.18019C46.568 10.0896 47.3675 11.402 47.6357 12.8651C45.8913 12.3715 42.9907 12.0199 41.5506 14.2173L42.6865 14.9611C43.6939 13.4263 46.3849 13.8928 47.7845 14.2849L48.0346 14.3864C49.725 15.2586 50.6648 16.2727 50.827 17.4019C51.0686 19.0658 49.5658 20.5566 49.5295 20.5926L49.5289 20.5932L48.8527 21.2355L49.6641 21.6817C51.0574 22.3582 52.1078 23.5824 52.5647 25.0624C53.1664 27.1313 52.3415 29.2746 51.9494 30.1265C51.2733 30.4713 48.873 31.5464 47.3112 30.7283Z" id="Path-2397" fill="#1466CF" fill-rule="evenodd" stroke="none" />
  </g>
</svg>