<?xml version="1.0" encoding="utf-8"?>
<svg width="60.345093px" height="67.29125px" viewBox="0 0 60.345093 67.29125" version="1.1" xmlns:xlink="http://www.w3.org/1999/xlink" xmlns="http://www.w3.org/2000/svg">
  <g id="Icon">
    <path d="M55.6781 45.1503C56.5463 45.5844 57.4146 46.2356 58.1744 46.9954C59.3682 48.0807 60.128 49.4916 60.3451 51.1196L60.3451 51.9879L60.3451 61.5389C60.2365 62.6243 60.0195 63.4926 59.6938 64.2523C59.6938 64.3608 59.5853 64.4694 59.5853 64.5779C59.5853 64.6864 59.5853 64.795 59.4768 64.9035C59.2597 65.3376 58.9341 65.7718 58.6085 66.0974L58.5 66.2059C58.3914 66.2059 58.2829 66.3144 58.1744 66.423C57.3061 67.0742 56.5464 67.1827 56.1122 67.2912L4.77551 67.2912C4.55844 67.2912 0.759739 67.2912 0 61.2133L0 51.6623C0 51.3367 0.108529 51.1196 0.108529 50.794C0.325599 49.166 1.19388 47.8636 2.27922 46.6697C3.03896 45.91 3.7987 45.3673 4.77551 44.8246C7.923 43.0881 11.3961 41.5686 14.9777 40.3747C16.0631 40.0491 17.0399 39.7235 18.1252 39.5065C19.102 41.026 20.0788 42.3284 21.0556 43.7393C22.141 45.3673 23.3349 46.8868 24.5287 48.4063C25.2885 49.3831 25.9397 50.2514 26.6994 51.1196C26.9165 51.3367 27.025 51.4452 27.1336 51.6623C27.1336 51.3367 27.2421 50.9026 27.2421 50.577C27.6762 47.4295 28.0018 44.7161 28.0018 44.3905L28.0018 44.282C27.7848 43.9564 27.6762 43.7393 27.5677 43.4137L27.5677 43.3052L27.4592 43.1967C27.3506 43.0881 27.3506 42.871 27.2421 42.7625L27.1336 42.654L27.1336 42.5454L27.025 42.4369C26.9165 42.2199 26.808 41.8942 26.808 41.5686C26.808 41.243 26.9165 41.026 27.025 40.8089L27.5677 40.9174L27.5677 40.8089C27.5677 40.8089 27.5677 40.7004 27.6762 40.5919C27.6762 40.4833 27.7848 40.4833 27.8933 40.3748C28.1104 40.2663 28.2189 40.2663 28.3274 40.2663L32.6688 40.2663C32.7773 40.2663 32.9944 40.2663 33.1029 40.3748C33.2115 40.3748 33.2115 40.4833 33.32 40.5919C33.32 40.7004 33.4286 40.7004 33.4286 40.8089L33.4286 40.9174L33.5371 41.1345C33.6456 41.3516 33.7542 41.5687 33.7542 41.8943C33.7542 42.2199 33.6456 42.5455 33.5371 42.7625L33.4286 42.8711L33.4286 42.9796L33.32 43.0881C33.2115 43.1967 33.2115 43.4137 33.1029 43.5223L32.9944 43.6308L32.9944 43.7393C32.7773 43.9564 32.6688 44.282 32.5603 44.6076L32.5603 44.7161C32.5603 45.1503 32.8859 47.7551 33.32 50.9026C33.32 51.2282 33.4285 51.6623 33.4285 51.9879C33.6456 51.7709 33.7542 51.6623 33.8627 51.4453L33.8627 51.3367L33.9712 51.2282C34.6224 50.3599 35.2736 49.6002 35.9248 48.7319C37.1187 47.2124 38.2041 45.693 39.3979 44.0649C40.0491 42.9796 40.8089 42.0028 41.5686 40.9174C41.8942 40.5918 42.1113 40.1577 42.3284 39.8321C43.0881 40.0491 43.9564 40.2662 44.7161 40.4833C44.9332 40.4833 45.2588 40.5918 45.4758 40.7004C45.6929 40.8089 45.91 40.8089 46.127 40.9174C49.4916 42.1113 52.7476 43.5223 55.6781 45.1503ZM50.1428 59.1512L50.1428 56.6549L52.6391 56.6549C53.6159 56.6549 54.4842 55.8952 54.5927 54.8098C54.5927 54.2672 54.3756 53.833 54.05 53.5074C53.7244 53.1818 53.2903 52.9647 52.7476 52.9647L50.2513 52.9647L50.2513 50.4684C50.2513 49.4916 49.383 48.6234 48.4062 48.6234L48.2977 48.6234C47.3209 48.6234 46.4526 49.4916 46.4526 50.4684L46.4526 52.9647L43.9563 52.9647C42.9795 52.9647 42.1112 53.833 42.1112 54.8098C42.1112 55.7866 42.9795 56.6549 43.9563 56.6549L46.4526 56.6549L46.4526 59.1512C46.4526 60.128 47.3209 60.9963 48.2977 60.9963C49.2745 60.9963 50.1428 60.128 50.1428 59.1512Z" id="Path-2374" fill="#2D3E50" fill-rule="evenodd" stroke="none" />
    <path d="M43.3004 12.3758L41.5673 12.3758C41.6756 12.9174 41.7839 13.459 41.7839 14.1089C41.7839 14.7589 41.6756 15.3004 41.5673 15.842L43.3004 15.842L43.3004 12.3758Z" id="Path-2375" fill="#007BBF" fill-rule="evenodd" stroke="none" />
    <path d="M17.6922 15.842L29.0844 15.842C28.9758 15.3004 28.8674 14.7589 28.8674 14.1089C28.8674 13.459 28.9758 12.9174 29.0844 12.3758L17.6922 12.3758L17.6922 15.842Z" id="Path-2376" fill="#007BBF" fill-rule="evenodd" stroke="none" />
    <path d="M30.1725 14.1095C30.1725 13.4583 30.281 12.9156 30.4981 12.3729C31.2578 10.5278 33.1029 9.11689 35.2736 9.11689C37.4443 9.11689 39.2894 10.4193 40.0491 12.3729C40.2662 12.9156 40.3747 13.4583 40.3747 14.1095C40.3747 14.7607 40.2662 15.3034 40.0491 15.846C39.2894 17.6911 37.4443 19.1021 35.2736 19.1021C33.1029 19.1021 31.2578 17.7996 30.4981 15.846C30.281 15.3034 30.1725 14.7607 30.1725 14.1095ZM35.2736 12.59C34.4053 12.59 33.7541 13.3497 33.7541 14.1095C33.7541 14.9777 34.5139 15.629 35.2736 15.629C36.1419 15.629 36.7931 14.8692 36.7931 14.1095C36.7931 13.2412 36.1419 12.59 35.2736 12.59Z" id="Path-2377" fill="#007BBF" fill-rule="evenodd" stroke="none" />
    <path d="M16.2817 20.7319C16.2817 20.949 16.3903 21.1661 16.3903 21.3832C16.6073 23.337 17.584 24.7482 18.9948 25.508C19.1034 25.508 19.1034 25.6165 19.1034 25.6165C20.4056 30.6098 24.4211 34.4089 29.0876 35.1688C29.6302 35.2773 30.1729 35.2773 30.7155 35.2773C34.2968 35.2773 37.5525 33.3234 39.723 29.8499C40.1571 29.1986 40.4827 28.4388 40.9168 27.5704C41.0253 27.2448 41.1339 26.9191 41.2424 26.5935C41.3509 26.1593 41.4594 25.9422 41.5679 25.7251C41.785 25.508 42.002 25.2909 42.3276 25.0738L42.7617 24.7482C43.847 23.6627 44.1725 22.4686 44.2811 21.3832C44.2811 21.1661 44.3896 20.949 44.3896 20.7319C44.4981 20.2977 44.4981 19.8635 44.4981 19.4293C44.4981 19.1037 44.4981 18.778 44.4981 18.4524L44.4981 18.3438C44.4981 17.9096 44.3896 17.3669 44.2811 16.9327L41.2424 16.9327L41.2424 16.9327C41.1339 17.0412 41.1339 17.1498 41.0253 17.2583L41.0253 17.2583C41.4594 17.4754 41.8935 17.584 42.1106 17.584C42.2191 17.6925 42.3276 17.9096 42.3276 18.1267L42.3276 18.2353L42.3276 18.4524C42.3276 18.6695 42.3276 18.9951 42.3276 19.2122C42.3276 19.5378 42.2191 19.972 42.2191 20.2977C42.2191 20.5148 42.1106 20.7319 42.1106 21.0575C42.002 22.0345 41.785 22.5772 41.3509 22.9028C41.2424 23.0114 41.1338 23.1199 40.9168 23.2285L40.8083 23.337L40.8083 23.337C40.6997 23.4456 40.6997 23.5541 40.6997 23.6627C40.4827 24.0969 40.0486 24.9653 40.0486 24.9653C39.3975 26.5935 38.6378 28.2217 37.444 29.5243L37.444 29.5243C35.4906 32.0209 32.7775 33.2149 29.8473 32.7807C28.545 32.5636 27.3512 32.1294 26.266 31.3696C24.3125 30.3927 22.6847 28.2217 21.8165 26.2678C21.708 26.0507 21.0568 24.2054 20.7312 23.5541L20.6227 23.4456C20.6227 23.4456 20.5142 23.4456 20.5142 23.337C19.5375 22.7943 19.2119 21.6003 19.2119 20.949C19.2119 20.7319 19.1034 20.5148 19.1034 20.1891C18.9948 19.8635 18.9948 19.4293 18.9948 19.1037C18.9948 18.8866 18.9948 18.5609 18.9948 18.3438L18.9948 18.1267C18.9948 17.9096 19.1034 17.584 19.1034 17.584C19.2119 17.584 19.3204 17.584 19.3204 17.584C19.4289 17.584 19.5375 17.584 19.646 17.584C19.7545 17.584 19.863 17.584 19.9715 17.584L20.2971 17.4754C20.5142 17.3669 20.6227 17.2583 20.7312 17.0412C20.7312 17.0412 20.7312 16.9327 20.8397 16.9327L16.9329 16.9327C16.7158 17.3669 16.7158 17.8011 16.7158 18.3438L16.7158 18.4524C16.1732 18.778 16.1732 19.1037 16.1732 19.4293L16.1732 19.4293C16.1732 19.8635 16.2817 20.2977 16.2817 20.7319Z" id="Path-2378" fill="#2D3E50" fill-rule="evenodd" stroke="none" />
    <path d="M35.3812 7.59675C37.8772 7.59675 40.0476 9.00758 41.1328 11.1781L43.3032 11.1781C43.3032 10.8525 43.4118 10.5269 43.4118 10.2013C43.5203 6.29445 41.5669 3.14722 38.0942 1.62787C37.6601 1.41082 37.3346 1.3023 37.009 1.19377C34.7301 0.325572 32.5596 -9.99914e-06 30.2807 -9.99914e-06C29.8466 -9.99914e-06 29.304 -9.99914e-06 28.8699 -9.99914e-06C27.4591 0.108511 25.6143 0.217041 23.9865 0.976716C23.7694 1.08524 23.6609 1.19377 23.4439 1.19377C22.7927 1.62787 22.2501 2.06196 21.9246 2.82164L21.9246 2.82164L21.816 2.82164C21.1649 3.25574 20.6223 3.79836 20.1882 4.34099L20.1882 4.34099C19.5371 4.66656 18.9945 5.10066 18.5604 5.75182C18.0178 6.62001 17.8008 7.81379 17.6922 9.11609C17.6922 9.87576 17.6922 10.5269 17.6922 11.1781L29.6296 11.1781L29.6296 11.1781C30.7148 9.1161 32.8852 7.59675 35.3812 7.59675Z" id="Path-2379" fill="#2D3E50" fill-rule="evenodd" stroke="none" />
  </g>
</svg>