<?xml version="1.0" encoding="utf-8"?>
<svg width="45.27246px" height="66.406006px" viewBox="0 0 45.27246 66.406006" version="1.1" xmlns:xlink="http://www.w3.org/1999/xlink" xmlns="http://www.w3.org/2000/svg">
  <g id="Icon">
    <path d="M41.7487 8.63272L43.6524 17.8188L36.7536 20.0323C45.2461 27.1303 46.1832 46.1002 44.6854 54.6665C43.918 59.0935 42.5604 63.8674 38.3621 65.6677C37.1762 66.167 35.9005 66.4181 34.6139 66.4055C29.8179 66.4055 23.2659 63.6017 14.7217 57.9351C8.19921 53.5893 3.86071 48.9851 1.64719 44.1818L1.55127 44.1818L1.55127 44.049C0.57352 41.8909 0.04628 39.556 0.0018 37.1871C-0.14576 27.0935 8.81899 19.8405 10.5455 18.5345C10.6683 17.5985 10.8909 16.6783 11.2096 15.7897C11.7936 14.16 12.7543 12.6911 14.0134 11.5029L14.0134 11.466C12.7886 10.1158 9.18053 6.70695 4.96009 8.11622L4.49525 6.68481C6.69718 5.95945 9.10121 6.17849 11.1358 7.28984L8.33939 3.40143L9.53469 2.53816L15.2161 10.4847L15.2161 10.529C15.5604 10.2584 15.9194 10.0125 16.2933 9.79112C15.2796 6.84872 15.0482 3.69333 15.6219 0.63453L17.0975 0.94443C16.6062 3.65435 16.799 6.44405 17.6583 9.06066L17.6583 9.09755L18.0862 8.90571C18.734 8.6117 19.4023 8.3651 20.0858 8.16787L20.0858 8.11622C19.6368 4.59937 21.6697 1.23668 24.9924 -1e-05L25.5827 1.35762C21.4434 3.13582 21.4065 6.59628 21.5319 7.80634C24.7784 7.15704 29.6039 7.15704 32.8135 11.5841L41.7487 8.63272ZM37.7791 64.3396C33.4407 66.2063 25.9737 63.6017 15.5702 56.7029C9.43135 52.6079 5.28469 48.3211 3.17447 43.8867C3.75737 41.8428 6.29553 34.7522 14.1093 32.1476L14.9209 31.8746L14.5298 31.1368C14.4856 31.0556 10.3094 22.7402 12.6557 16.2915C13.7087 13.512 15.908 11.3209 18.6912 10.2781C19.038 10.1084 26.9698 6.39703 31.4706 12.3071C29.5967 13.0237 27.7769 13.8744 26.0254 14.8527C24.6013 14.2624 21.982 14.1665 19.9898 17.2211C17.3632 21.2457 20.3124 26.2753 20.4535 26.516L20.4547 26.5179L20.8679 27.2115L21.5172 26.7319C21.5189 26.7306 21.5213 26.7287 21.5244 26.7264C21.6943 26.597 23.903 24.9158 23.6422 22.8361C23.4798 21.5375 22.4321 20.4603 20.5359 19.6339C20.6689 19.0618 20.9012 18.5174 21.222 18.0254C23.1699 15.074 25.4499 16.1956 25.7007 16.3357L26.1139 16.5718L26.4976 16.2989C26.4976 16.2989 29.4047 14.2919 40.5903 10.5658L41.8963 16.8153L33.3742 19.5601C31.1205 20.3554 29.2531 21.9775 28.1503 24.0978C26.4017 27.787 28.0692 31.5795 28.1503 31.7418L28.593 32.7379L29.3309 31.9484C32.9168 28.2592 39.5942 29.6464 41.3282 30.0965L41.3724 30.1629C44.1467 38.3012 44.2279 48.6974 43.2318 54.4378C42.4939 58.4811 41.3281 62.8122 37.7791 64.3396ZM12.8624 31.0262C11.3641 27.7262 10.5484 24.1573 10.4644 20.5341C7.70486 22.873 1.41846 29.1816 1.53652 37.1502C1.5648 38.7209 1.83099 40.2782 2.32601 41.7691C4.15147 36.8533 7.9829 32.9467 12.8624 31.0262ZM40.76 28.4438C38.1628 27.9051 32.843 27.2558 29.1612 30.1482C28.6344 28.3628 28.7492 26.4493 29.4858 24.7398C30.386 22.8731 32.2601 21.4417 34.9606 20.5489L35.0196 20.6005C37.5209 22.3123 39.3729 25.0866 40.7157 28.3552L40.76 28.4438ZM20.4048 21.2358L20.4031 21.235L20.4031 21.1981C20.4036 21.2107 20.4042 21.2233 20.4048 21.2358ZM20.4048 21.2358C21.2748 21.6711 22.1002 22.2906 22.2034 23.0648C22.1901 23.8007 21.8722 24.498 21.3254 24.9906C20.7792 23.81 20.4667 22.5349 20.4048 21.2358Z" id="Path-2380" fill="#1466CF" fill-rule="evenodd" stroke="none" />
  </g>
</svg>