<?xml version="1.0" encoding="utf-8"?>
<svg width="82.36047px" height="73.67758px" viewBox="0 0 82.36047 73.67758" version="1.1" xmlns:xlink="http://www.w3.org/1999/xlink" xmlns="http://www.w3.org/2000/svg">
  <g id="Icon">
    <path d="M33.7582 19.81C45.3562 19.81 54.7582 29.212 54.7582 40.81C54.7582 52.408 45.3562 61.81 33.7582 61.81C22.1602 61.81 12.7582 52.408 12.7582 40.81C12.7582 29.212 22.1602 19.81 33.7582 19.81Z" id="Ellipse-415" fill="#2D3E50" fill-rule="evenodd" stroke="none" />
    <g id="Group-514">
      <path d="M30.2219 2.61912C32.3479 2.61912 34.0713 4.34258 34.0713 6.46858C34.0713 8.59458 32.3479 10.318 30.2219 10.318C28.0959 10.318 26.3724 8.59458 26.3724 6.46858C26.3724 4.34258 28.0959 2.61912 30.2219 2.61912Z" id="Ellipse-409" fill="#007BBF" fill-rule="evenodd" stroke="none" />
      <path d="M81.6488 13.8403C80.81 16.2169 79.9712 18.5936 79.1323 20.9702C78.4333 22.9274 77.7343 25.0244 77.0352 26.9816C76.8954 27.5408 76.6158 28.1 76.476 28.6592C76.6158 29.0786 76.6158 29.3582 76.476 29.7776C76.0566 32.2941 75.2177 34.8105 73.6799 36.7677C72.5614 38.3055 70.6041 39.8433 68.6468 40.1229L68.507 40.1229C68.0876 58.7165 52.8487 73.6752 34.2545 73.6752C15.3806 73.6752 0.00188001 58.2971 0.00188001 39.4239C0.00188001 24.1856 10.2077 10.6249 24.7476 6.43086C24.7476 6.71046 24.7476 6.85027 24.7476 7.12987C24.7476 8.24828 25.167 9.08708 25.7263 9.92589C12.7243 13.5607 3.63685 25.5836 3.63685 39.2841C3.63685 56.2001 17.4777 70.0404 34.3943 70.0404C51.171 70.0404 64.7323 56.6195 65.1517 39.9831L63.8934 39.9831C63.3342 39.8433 62.775 39.5637 62.2157 39.2841C60.2584 38.0259 58.7206 36.0687 57.8817 33.8319C57.3225 32.5737 56.9031 31.1756 56.6235 29.7776C56.4837 29.3582 56.6235 28.799 56.7633 28.3796C55.0856 23.207 53.4079 18.1741 51.87 13.4209C51.0312 10.7647 51.3108 7.68907 52.5691 5.31245C53.6875 3.21543 55.6448 1.67762 57.7419 1.11841C58.1613 0.978608 58.4409 0.838813 58.8604 0.699007C59.5594 0.419406 60.1186 0.139805 60.8177 0.139805C61.6565 0 62.3555 0.279601 62.9148 0.838813C63.3342 1.25822 63.6138 1.95723 63.6138 2.79603C63.6138 4.47364 62.0759 5.45225 60.538 5.45225L60.3982 5.45225C59.839 5.45225 59.4196 5.31246 59.0002 5.03285C58.7206 4.89304 58.5808 4.89304 58.4409 4.75324C57.8817 4.61345 57.4623 5.03285 56.9031 5.45225C54.9458 7.26966 54.3866 9.50649 55.0856 11.8831C56.7633 17.3353 58.7206 22.508 60.2584 26.5622C60.2584 26.702 60.3982 26.9816 60.3982 27.1214C60.9575 27.5408 61.3769 28.1 61.5167 28.799C61.5167 28.9388 61.7963 30.1971 62.3555 31.5951L62.6351 32.1543C63.6138 33.9717 64.7322 34.9503 66.2701 35.0901L66.4099 35.0901L66.5497 35.0901C67.3885 35.0901 70.4643 34.6707 71.3031 28.799C71.4429 27.9602 72.0022 27.2612 72.7012 26.8418C73.6799 24.1856 74.7983 21.3896 75.777 18.5936C76.0566 17.8946 76.3362 17.3354 76.6158 16.6363C77.8741 13.7005 79.1323 10.4851 78.0139 7.82887C77.175 5.87166 76.1964 4.75324 75.2177 4.75324C74.9381 4.75324 74.5187 4.89305 74.2391 5.03285C73.8197 5.17265 73.2604 5.45225 72.7012 5.45225C72.2818 5.45225 72.0022 5.31245 71.5828 5.17265C70.6041 4.61345 70.0449 3.91444 69.9051 3.07564C69.7653 2.09703 70.3245 1.11842 71.443 0.419416C71.8624 0.139815 72.2818 9.99967e-06 72.7012 9.99967e-06C73.6799 9.99967e-06 74.6585 0.559212 75.3576 0.978618C75.4974 1.11842 75.6372 1.11842 75.777 1.25822C77.0352 1.95723 78.4333 2.65623 79.6915 3.77464C81.6488 5.17265 82.4877 7.54926 82.3479 10.2055L82.3479 10.2055C82.3479 11.4637 82.0683 12.7219 81.6488 13.8403Z" id="Path-2374" fill="#2D3E50" fill-rule="evenodd" stroke="none" />
    </g>
    <g id="Group-515" transform="translate(21.758057 32.809982)">
      <path d="M10.6899 15.9435L-8.00282e-05 15.9435C0.0875409 14.8923 0.438035 13.841 1.05139 12.8774C1.66475 11.9138 2.80385 10.5998 4.46868 9.02295C5.87064 7.70893 6.65925 6.83292 7.00973 6.39491C7.44785 5.7817 7.62309 5.16848 7.62309 4.55528C7.62309 3.85446 7.44785 3.32885 7.09735 2.97845C6.74686 2.62804 6.22112 2.45284 5.60777 2.45284C4.99441 2.45284 4.46868 2.62804 4.11818 3.06604C3.76769 3.41645 3.50483 4.11726 3.50483 4.99328L0.438025 4.73047C0.613266 3.06603 1.22663 1.83962 2.19048 1.1388C3.15433 0.437988 4.38105 -1.00011e-05 5.78302 -1.00011e-05C7.36023 -1.00011e-05 8.58695 0.437998 9.46318 1.31401C10.3394 2.19003 10.7775 3.24124 10.7775 4.46767C10.7775 5.16847 10.6899 5.86929 10.427 6.4825C10.1642 7.0957 9.72604 7.79652 9.2003 8.49733C8.84981 8.93534 8.14882 9.63614 7.18498 10.5122C6.22113 11.3882 5.60778 12.0014 5.34491 12.2642C5.08204 12.527 4.90679 12.8774 4.73155 13.1402L10.6899 13.1402L10.6899 15.9435Z" id="Path-2375" fill="#FFFFFF" fill-rule="evenodd" stroke="none" />
      <path d="M12.2628 12.7884L18.7446 12.7884L18.7446 16.1169L21.7227 16.1169L21.7227 12.876L23.7373 12.876L23.7373 10.1607L21.7227 10.1607L21.7227 1.52588e-05L19.1826 1.52588e-05L12.2628 10.0731L12.2628 12.7884ZM15.0658 10.0731L18.7447 4.64239L18.7447 10.0731L15.0658 10.0731Z" id="Path-2376" fill="#FFFFFF" fill-rule="evenodd" stroke="none" />
    </g>
  </g>
</svg>