<?xml version="1.0" encoding="utf-8"?>
<svg width="79px" height="67.29135px" viewBox="0 0 79 67.29135" version="1.1" xmlns:xlink="http://www.w3.org/1999/xlink" xmlns="http://www.w3.org/2000/svg">
  <g id="Icon">
    <path d="M30.7861 38.0562L75.521 38.0562C77.1592 38.0562 78.5453 39.1903 78.9234 40.7024C79.1754 41.8366 78.7974 42.9707 77.9153 43.7268C77.2852 44.3569 76.4031 44.7349 75.521 44.7349L72.1186 44.7349L72.1186 64.8971C72.1186 66.2832 70.9845 67.2914 69.7244 67.2914L36.5828 67.2914C35.1966 67.2914 34.1885 66.1572 34.1885 64.8971L34.1885 44.7349L30.9121 44.7349C29.1479 44.7349 27.5098 43.4747 27.3837 41.7106C27.3837 40.7024 27.7618 39.6943 28.3919 39.0643C29.0219 38.4342 29.904 38.0562 30.7861 38.0562ZM55.4848 57.9663L55.4848 54.942L58.5091 54.942C59.6432 54.942 60.6513 53.9339 60.6513 52.6738C60.6513 52.0437 60.3993 51.4136 60.0213 51.0356C59.6432 50.6575 59.1392 50.4055 58.5091 50.4055L55.4848 50.4055L55.4848 47.3812C55.4848 46.121 54.4767 45.1129 53.2165 45.1129L53.0905 45.1129C51.8304 45.1129 50.8223 46.121 50.8223 47.3812L50.8223 50.4055L47.9239 50.4055C46.6638 50.4055 45.6557 51.4136 45.6557 52.6737C45.6557 53.9339 46.6638 54.942 47.9239 54.942L50.9483 54.942L50.9483 57.9663C50.9483 59.2265 51.9564 60.2346 53.2165 60.2346C54.4767 60.2346 55.4848 59.2265 55.4848 57.9663Z" id="Path-2368" fill="#007BBF" fill-rule="evenodd" stroke="none" />
    <g id="Group-507" transform="translate(0 14.743622)">
      <path d="M16.2962 11.4681C13.0211 11.4681 10.6278 9.07438 10.6278 5.79881C10.6278 2.64922 13.1471 0.00356914 16.2962 0.00356914C19.4453 0.129549 22.0906 2.64922 21.9646 5.79881C21.9646 9.07438 19.5713 11.4681 16.2962 11.4681Z" id="Path-2369" fill="#2D3E50" fill-rule="evenodd" stroke="none" />
      <path d="M22.7227 48.7642C23.9829 48.6382 25.2432 48.6382 26.3773 48.6382C27.7636 48.6382 29.0238 47.5042 29.0238 45.9921C29.0238 44.48 27.8896 43.346 26.3773 43.346C25.1171 43.346 23.7309 43.472 22.4707 43.472C19.5722 43.598 16.5476 43.724 14.1532 43.22C12.0108 42.8419 10.1205 41.5819 8.86028 39.6918C7.72609 38.0537 7.47404 36.1637 7.09597 33.7696C7.09597 33.3916 6.96996 33.0135 6.96996 32.7615L5.20565 21.2951C4.9536 19.909 3.69339 18.901 2.18112 19.153C0.794882 19.405 -0.213294 20.665 0.0387525 22.1771L1.80306 33.6436C1.80306 34.0216 1.92908 34.2736 1.92908 34.6516C2.30714 37.2977 2.68521 40.1958 4.57554 42.842C6.59189 45.7401 9.4904 47.7562 12.893 48.3862C14.6573 48.7642 16.5476 48.8902 18.438 48.8902L18.438 48.8902C19.8242 48.8902 21.2104 48.7642 22.7227 48.7642Z" id="Path-2370" fill="#007BBF" fill-rule="evenodd" stroke="none" />
      <path d="M30.2842 33.396C30.6622 33.396 30.9142 33.6481 30.9142 34.0262L30.9142 41.0845C30.9142 41.4626 30.6622 41.7147 30.2842 41.7147C29.5282 41.7147 28.0161 41.7147 27.3861 41.7147C24.362 41.7147 21.3379 41.7147 18.1878 41.7147C13.3996 41.7147 10.8795 39.572 10.8795 34.7825C10.7535 29.6148 10.3755 24.5732 9.99751 19.5317C9.7455 16.3807 11.8876 13.7338 14.9117 13.3557L15.0377 13.3557C16.0457 13.2297 16.9277 13.4817 17.8098 13.8599C19.3218 14.6161 20.4559 16.1286 20.8339 18.1452C21.0859 19.7837 21.2119 21.4223 21.3379 23.1868C21.3379 23.691 21.4639 24.0691 21.4639 24.5733L21.8419 32.8919C21.8419 32.8919 26.8821 33.144 30.2842 33.396Z" id="Path-2371" fill="#2D3E50" fill-rule="evenodd" stroke="none" />
    </g>
    <path d="M59.6432 7.81286L59.6432 8.06489C60.2733 8.19093 60.5253 8.94699 60.3993 9.19901L60.3993 9.70306C60.3993 9.82907 60.2732 10.0811 60.2732 10.3331L60.2732 10.7112C60.2732 11.2152 60.1472 11.9713 59.5172 12.4754L59.2651 12.7274L58.8871 13.1054C58.8871 13.2314 58.7611 13.3575 58.7611 13.6095C58.7611 13.7355 58.7611 13.9875 58.6351 14.1135C58.383 14.4916 58.257 14.8696 58.005 15.2477C56.8709 17.1379 55.2327 18.146 53.3425 18.146L52.4604 18.146C50.0661 17.7679 47.9239 15.8777 47.2938 13.2314L47.2938 13.1054C46.5378 12.7274 46.0337 11.9713 45.9077 10.9632L45.9077 10.5852C45.7817 10.4592 45.7817 10.2071 45.7817 9.95509L45.7817 9.45104C45.7817 8.82097 46.1597 8.06488 46.7898 7.93887L46.9158 7.93887C46.9158 7.81285 46.7898 7.56082 46.7898 7.43481C46.7898 7.18278 46.6638 6.93076 46.6638 6.67873L46.6638 4.78852C46.6638 4.03244 46.7898 3.52839 47.0418 3.02433C47.2938 2.64629 47.5459 2.39426 47.9239 2.26825C48.1759 2.01623 48.428 1.7642 48.806 1.51217C49.058 1.13413 49.3101 0.882101 49.6881 0.630071C49.8141 0.630071 49.8141 0.504061 49.9401 0.504061C50.8222 0.126011 51.7043 0 52.4604 0L53.2165 0C54.3506 0 55.4848 0.252031 56.6189 0.630071C56.8709 0.756091 56.9969 0.756091 57.2489 0.882101C59.0131 1.7642 60.1473 3.40238 60.0213 5.4186C60.0213 5.92265 59.8952 6.55272 59.7692 7.18279C59.6432 7.43482 59.6432 7.56083 59.6432 7.81286ZM59.3912 10.0811L59.3912 9.57704C59.3912 9.32502 59.2652 9.19901 59.0132 9.32502C58.7611 9.32502 58.5091 9.32502 58.2571 9.07299C58.2571 8.94697 58.1311 8.94697 58.1311 8.82096C58.0471 8.65295 58.0751 8.48493 58.1031 8.31691C58.1171 8.2329 58.1311 8.14889 58.1311 8.06488L58.1311 7.81285C58.1311 7.68684 58.2571 7.43481 58.2571 7.18278L58.1311 7.18278C57.375 6.93075 56.7449 6.4267 56.2409 5.79663C55.2328 6.55271 54.0986 7.05676 52.9645 7.30879C52.5865 7.43481 52.2084 7.43481 51.8304 7.56082C50.4442 7.81285 49.1841 7.81285 47.798 7.81285C47.924 8.06487 47.924 8.3169 47.924 8.56893C47.924 8.82095 47.924 8.94697 47.798 9.07298C47.6719 9.199 47.6719 9.32501 47.5459 9.32501L47.0419 9.32501C46.9159 9.32501 46.9159 9.45103 46.9159 9.57704L46.9159 10.0811C47.0419 10.2071 47.0419 10.4591 47.0419 10.5851L47.0419 10.9632C47.1679 11.3412 47.2939 11.9713 47.798 12.2233L48.05 12.2233C48.176 12.6014 48.554 13.4835 48.554 13.6095C48.9321 14.6176 49.8142 15.7517 50.8223 16.2558C51.4523 16.6338 52.0824 16.8858 52.7125 17.0118C54.2247 17.2639 55.6108 16.6338 56.6189 15.3737C57.249 14.6176 57.627 13.8615 58.0051 12.9794C58.0051 12.9794 58.2571 12.6014 58.3831 12.3493C58.5091 12.3493 58.5091 12.2233 58.5091 12.2233L58.6351 12.0973C58.7611 12.0973 58.7611 11.9713 58.8872 11.9713C59.1392 11.7193 59.2652 11.4672 59.2652 10.9632L59.2652 10.5851C59.3912 10.4591 59.3912 10.2071 59.3912 10.0811Z" id="Path-2372" fill="#2D3E50" fill-rule="evenodd" stroke="none" />
    <path d="M66.448 23.4386C66.826 23.6906 67.3301 24.0687 67.7081 24.4467C68.3382 24.9507 68.7162 25.7068 68.8422 26.5889C68.8422 26.7149 68.8422 26.967 68.7162 27.345L68.7162 36.04L37.3388 36.04L37.3388 26.841C37.4648 26.0849 37.8429 25.3288 38.4729 24.6987C38.851 24.3207 39.229 23.9427 39.7331 23.6906C41.3712 22.8085 43.1354 22.0524 45.0256 21.4224C45.5297 21.1703 46.1598 21.0443 46.6638 20.9183C47.1679 21.6744 47.6719 22.3045 48.176 23.0606C48.8061 23.8166 49.4361 24.6987 50.0662 25.4548C50.4442 25.9589 50.8223 26.3369 51.2003 26.841C51.3263 26.967 51.3263 26.967 51.4523 27.093C51.5783 26.841 51.5783 26.715 51.5783 26.4629C51.7044 24.9508 51.9564 23.4386 51.9564 23.3126C51.8304 23.0606 51.8304 22.9345 51.7044 22.8085L51.7044 22.5565C51.7044 22.4305 51.5783 22.4305 51.5783 22.3045L51.5783 22.1785C51.5783 22.0525 51.4523 21.9264 51.4523 21.8004C51.4523 21.6744 51.5783 21.5484 51.5783 21.4224L51.5783 21.1704L51.7044 21.0444C51.8304 20.9183 51.9564 20.9183 51.9564 20.9183L54.0986 20.9183C54.2246 20.9183 54.3507 20.9183 54.4767 21.0444L54.6027 21.1704L54.6027 21.4224C54.7287 21.5484 54.7287 21.6744 54.7287 21.8004C54.7287 21.9264 54.6027 22.0525 54.6027 22.1785L54.6027 22.3045C54.6027 22.4305 54.4767 22.4305 54.4767 22.5565L54.4767 22.6825C54.3506 22.8085 54.3506 23.0606 54.2246 23.1866C54.2246 23.3126 54.3506 24.6987 54.6027 26.3369C54.7287 26.5889 54.7287 26.715 54.7287 26.967L54.9807 26.715L55.1067 26.5889C55.4848 26.2109 55.7368 25.7068 56.1148 25.3288C56.7449 24.5727 57.375 23.8166 58.005 22.9345C58.3831 22.4305 58.7611 21.8004 59.1392 21.2964C59.2652 21.0443 59.3912 20.9183 59.5172 20.6663C59.8952 20.7923 60.3993 20.9183 60.7773 21.0443C60.9034 21.0443 61.0294 21.1703 61.1554 21.1703C61.2814 21.1703 61.4074 21.2964 61.5334 21.2964C63.1716 21.8004 64.9358 22.5565 66.448 23.4386ZM61.6594 28.7312L60.3993 28.7312C59.7692 28.7312 59.3912 29.2352 59.3912 29.7393C59.3912 30.2433 59.7692 30.7474 60.2733 30.6214L61.5334 30.6214L61.5334 31.8815C61.5334 32.5116 62.0375 32.8896 62.5415 32.8896C63.1716 32.8896 63.5496 32.3856 63.5496 31.8815L63.5496 30.6214L64.8098 30.6214C65.4398 30.6214 65.8179 30.1173 65.8179 29.6133C65.8179 29.3612 65.6919 29.1092 65.5659 28.9832C65.4398 28.8572 65.1878 28.7312 64.9358 28.7312L63.6756 28.7312L63.6756 27.471C63.6756 26.841 63.1716 26.4629 62.6675 26.4629C62.0375 26.4629 61.6594 26.967 61.6594 27.471L61.6594 28.7312Z" id="Path-2373" fill="#2D3E50" fill-rule="evenodd" stroke="none" />
  </g>
</svg>