<?xml version="1.0" encoding="utf-8"?>
<svg width="62.54364px" height="54.374268px" viewBox="0 0 62.54364 54.374268" version="1.1" xmlns:xlink="http://www.w3.org/1999/xlink" xmlns="http://www.w3.org/2000/svg">
  <g id="Icon">
    <path d="M34.9158 6.14654C35.027 5.78523 36.6737 0.692184 40.3007 0.0807341C42.6978 -0.343106 45.3173 1.35226 48.0549 5.09736C55.0449 14.672 66.4608 38.0042 61.201 48.6975C59.3944 52.3384 55.8717 54.2422 50.7231 54.3534L50.0282 54.3534C34.2279 54.3534 33.0051 42.5553 33.0051 42.465C32.9147 41.7701 31.3514 29.1938 32.6368 17.2359L32.6368 17.1456L31.3931 15.8185L31.1846 15.8185L29.9409 17.1456L29.9409 17.2359C31.1985 29.2216 29.6351 41.791 29.5448 42.4858C29.5309 42.5622 28.3219 54.3742 12.5216 54.3742L11.8268 54.3742C6.67817 54.277 3.14846 52.3662 1.34887 48.7184C-3.92484 38.0042 7.49111 14.672 14.481 5.09041C17.2256 1.34531 19.8451 -0.350056 22.27 0.0598941C25.897 0.678284 27.5437 5.76439 27.6549 6.1257C27.9537 6.98033 28.2177 7.86276 28.4539 8.76603L28.4887 8.91194L28.4887 1.78305L34.082 1.78305L34.082 8.93278L34.1168 8.78687C34.3599 7.87665 34.624 6.99422 34.9158 6.14654ZM11.8615 52.9568C7.26876 52.8596 4.15595 51.2198 2.59954 48.0931C-2.52131 37.7124 9.65895 14.0398 15.5997 5.91729C17.7745 2.95039 19.8173 1.40094 21.5613 1.40094C21.7173 1.40194 21.8731 1.41588 22.0268 1.44263C24.8686 1.92206 26.3069 6.50789 26.3208 6.55653C27.0243 8.65279 27.5587 10.802 27.9189 12.9836L27.9189 13.074C27.1894 14.0954 25.9526 15.8533 24.6671 17.7501L24.6324 17.7501C23.5825 17.6204 22.649 17.0193 22.0963 16.1173C21.553 15.094 21.312 13.9373 21.4015 12.7821L21.9295 12.7821C23.069 12.7821 24.9312 12.5042 25.765 10.8297L24.5212 10.2113C23.9584 11.3369 22.4368 11.4272 21.6863 11.3925L21.603 11.3925C21.7137 10.6604 21.881 9.93791 22.1032 9.2316L20.79 8.78692C20.7205 8.98842 19.1294 13.7757 20.9498 16.8191L21.1235 17.0901L21.0749 17.0901C20.2579 16.973 19.4337 16.9126 18.6083 16.9094L18.6083 16.833C18.6309 14.9538 17.8767 13.1486 16.5238 11.8441L15.6414 12.9142C16.6931 13.9661 17.2702 15.4014 17.2395 16.8886L17.2395 16.965C14.7726 17.0958 12.3992 17.9514 10.4163 19.4247L11.3196 20.4808C12.7686 19.4078 14.4658 18.7193 16.2528 18.4797L16.2042 18.5353C15.3496 19.5775 14.4949 21.0645 15.1133 22.4263L16.3779 21.8496C15.8915 20.7796 17.5661 19.0008 18.3026 18.3755L18.379 18.306C20.2018 18.2973 22.0154 18.5667 23.7569 19.1051L23.8125 19.1051C22.1033 21.6898 20.4843 24.3232 19.991 25.6989L19.9423 25.8448C19.7617 26.1575 19.5671 26.5397 19.3795 26.9357L19.2962 26.9357C18.1288 26.821 16.9502 26.927 15.822 27.2484L15.822 27.1998C14.1892 24.8929 9.68675 26.2061 9.15173 26.3729L9.56168 27.7C10.5553 27.3943 13.3068 26.8454 14.4254 27.7556L14.4741 27.7973C13.2839 28.3995 12.3245 29.376 11.7434 30.5766L12.9941 31.1741C14.3143 28.3948 17.2812 28.1933 18.7681 28.2628L18.8167 28.2628C17.8342 31.0315 17.5176 33.9926 17.8926 36.9064C17.705 37.094 17.1978 37.6012 16.503 38.3447C14.7868 39.9914 11.6392 42.3608 8.46386 41.5409L8.11645 42.8819C10.0465 43.3191 12.0703 43.0218 13.7932 42.0481C12.72 43.7039 12.0424 45.5844 11.8129 47.5442L13.2026 47.6414C13.4179 44.5634 15.9124 41.1796 17.5244 39.3036C17.7467 39.0882 17.9899 38.8658 18.1636 38.6852C18.357 39.6625 18.6076 40.6277 18.914 41.5756C19.3101 42.8541 20.0952 46.5645 18.9835 48.4196L20.1716 49.1145C21.8253 46.3352 20.3037 41.3533 20.2342 41.1379C19.5835 39.1737 19.2184 37.1262 19.1502 35.0582L19.1502 34.9956C20.1014 36.551 21.5189 37.7668 23.2011 38.4698L23.6735 37.1635L23.6717 37.1628C23.4448 37.0768 18.8124 35.3208 19.6991 30.0832L19.6991 30.0207C20.039 28.736 20.5434 27.5005 21.2 26.3451L21.6377 25.8796C21.9087 27.2136 22.6869 28.6589 24.5073 28.902L24.681 27.5124C22.9787 27.3248 22.9301 25.1639 22.9301 24.5455L28.6276 18.4936L28.6276 18.6256C29.1996 26.5188 29.0415 34.448 28.1552 42.3121C28.1552 42.4233 27.0226 53.2834 11.8615 52.9568ZM50.6813 52.9568C35.5133 53.2834 34.3947 42.4233 34.3877 42.3121C33.4949 34.4509 33.3297 26.5241 33.8944 18.6325L33.8944 18.5005L39.6059 24.5455C39.6059 25.1569 39.6059 27.3248 37.834 27.5402L38.0078 28.9298C39.8282 28.7005 40.6064 27.2414 40.8774 25.9074L41.3151 26.3729C41.9716 27.5283 42.4761 28.7638 42.8159 30.0485L42.8159 30.111C43.6971 35.3497 39.0559 37.11 38.8424 37.191L38.8415 37.1913L39.314 38.4976C40.9962 37.7946 42.4137 36.5788 43.3649 35.0234L43.3648 35.086C43.2967 37.154 42.9316 39.2015 42.2809 41.1657C42.2114 41.388 40.6898 46.3838 42.3435 49.1423L43.5316 48.4474C42.4199 46.5923 43.205 42.8888 43.6011 41.6034C43.9075 40.6554 44.1581 39.6903 44.3515 38.713C44.5252 38.8936 44.7684 39.116 44.9907 39.3314C46.6027 41.2143 49.1041 44.5912 49.3125 47.6692L50.7022 47.572C50.4716 45.6093 49.7916 43.7262 48.715 42.069C50.4379 43.0427 52.4616 43.3399 54.3917 42.9028L54.0443 41.5617C50.862 42.3816 47.7214 40.0123 46.0052 38.3656C45.359 37.6221 44.824 37.1079 44.6155 36.9273C44.9862 34.0379 44.6769 31.1019 43.7122 28.3531L43.7748 28.3531C45.2617 28.2837 48.2286 28.513 49.5488 31.2645L50.7994 30.6669C50.2183 29.4663 49.2589 28.4898 48.0688 27.8876L48.1174 27.8459C49.2569 26.9357 52.0084 27.4846 52.9812 27.7903L53.3911 26.4632C52.8631 26.2965 48.3606 24.9833 46.7208 27.2901L46.7208 27.3387C45.5927 27.0174 44.4141 26.9113 43.2467 27.026L43.1633 27.026C42.9688 26.6161 42.7812 26.2478 42.6005 25.9352L42.5519 25.7892C42.0586 24.3996 40.4674 21.7801 38.7304 19.1954L38.7859 19.1954C40.5275 18.657 42.341 18.3876 44.1639 18.3963L44.2403 18.4658C44.9699 19.105 46.6513 20.8838 46.165 21.9399L47.4295 22.5166C48.0479 21.127 47.1933 19.6679 46.3387 18.6256L46.29 18.57C48.0771 18.8096 49.7743 19.4981 51.2233 20.5711L52.1265 19.515C50.1437 18.0417 47.7702 17.1861 45.3034 17.0553L45.3034 16.9789C45.2726 15.4917 45.8498 14.0564 46.9015 13.0045L46.0468 11.8928C44.694 13.1973 43.9397 15.0024 43.9624 16.8816L43.9624 16.958C43.137 16.9613 42.3128 17.0216 41.4957 17.1387L41.4471 17.1387L41.6208 16.8677C43.3965 13.8992 41.9197 9.27151 41.7879 8.85865C41.7846 8.84824 41.7822 8.84051 41.7806 8.83556L40.4674 9.28025C40.6897 9.98656 40.8569 10.709 40.9677 11.4411L40.8565 11.4411C40.0852 11.4411 38.5775 11.3856 38.0216 10.2599L36.7779 10.8783C37.6186 12.5598 39.4807 12.8308 40.6133 12.8308L41.0719 12.8308C41.1613 13.9859 40.9203 15.1426 40.3771 16.1659C39.8244 17.068 38.8908 17.669 37.841 17.7988L37.8062 17.7988C36.5208 15.895 35.284 14.144 34.5544 13.1226L34.5544 13.0323C34.9146 10.8507 35.449 8.70143 36.1525 6.60518C36.1525 6.55654 37.6117 1.97071 40.4465 1.49128C40.6003 1.46453 40.756 1.45058 40.9121 1.44959C42.6561 1.44959 44.7058 2.99905 46.8737 5.96595C52.8769 14.0398 65.0572 37.7124 59.9363 48.0723L59.9433 48.0722C58.3661 51.2128 55.2672 52.8873 50.6813 52.9568Z" id="Path-2396" fill="#1466CF" fill-rule="evenodd" stroke="none" />
  </g>
</svg>