<?xml version="1.0" encoding="utf-8"?>
<svg width="38.151733px" height="49.043396px" viewBox="0 0 38.151733 49.043396" version="1.1" xmlns:xlink="http://www.w3.org/1999/xlink" xmlns="http://www.w3.org/2000/svg">
  <g id="Icon" transform="translate(1 1)">
    <path d="M18.073 1.67295C14.4577 1.67295 -0.00371018 -4.65406 -0.00371018 7.8192C-0.00371018 12.7 1.26166 17.0386 3.25011 20.8348C4.87701 23.9079 5.41931 27.5233 4.69625 30.7772C3.97318 34.2119 1.6232 47.0467 5.41931 47.0467C10.8423 47.0467 10.8423 30.7772 18.073 30.7772C25.3037 30.7772 27.1114 47.0467 30.7267 47.0467C34.7036 47.0467 32.1729 34.2119 31.4498 30.7772C30.7267 27.3425 31.269 23.9079 32.896 20.8348C34.8844 17.2193 36.1498 12.7 36.1498 7.8192C36.1498 -4.83483 21.6884 1.67295 18.073 1.67295Z" id="6602559_healthcare_medical_tooth_icon" fill="none" fill-rule="evenodd" stroke="#1466CF" stroke-width="2" stroke-linecap="round" stroke-linejoin="round" />
  </g>
</svg>