<?xml version="1.0" encoding="utf-8"?>
<svg width="62.54358px" height="42.367188px" viewBox="0 0 62.54358 42.367188" version="1.1" xmlns:xlink="http://www.w3.org/1999/xlink" xmlns="http://www.w3.org/2000/svg">
  <g id="Icon">
    <path d="M2.21094e-05 0.648304C2.21094e-05 0.290254 0.290262 4.14063e-06 0.648302 4.14063e-06L61.8953 4.14063e-06C62.2534 4.14063e-06 62.5436 0.290254 62.5436 0.648304L62.5436 41.6775C62.5436 42.0355 62.2534 42.3258 61.8953 42.3258L48.1102 42.3258L35.6518 42.3672L35.6496 42.3672C35.5738 42.3665 35.4986 42.3525 35.4276 42.3258L26.8314 42.3258C26.7604 42.3525 26.6853 42.3665 26.6094 42.3672L26.6072 42.3672L14.1487 42.3258L0.648302 42.3258C0.290272 42.3258 2.21094e-05 42.0355 2.21094e-05 41.6775L2.21094e-05 0.648304ZM48.7562 41.0293L48.7562 38.0894C48.7562 36.8514 48.1173 35.7009 47.0663 35.0464C46.0151 34.3919 44.7007 34.3261 43.5896 34.8724L43.5491 34.8926C43.459 34.9373 43.374 34.9795 43.2941 35.0124L37.0825 37.569C35.8212 38.0849 34.9983 39.3136 35.0013 40.6763L35.0013 41.0292L33.571 41.0292L33.571 32.8788C33.571 31.609 32.5416 30.5796 31.2718 30.5796C30.002 30.5796 28.9725 31.609 28.9725 32.8788L28.9725 41.0293L27.2575 41.0293L27.2575 40.6763C27.2606 39.3136 26.4376 38.0849 25.1762 37.5691L18.965 35.0126C18.8852 34.9797 18.8002 34.9375 18.7101 34.8928L18.6693 34.8725C17.5582 34.3262 16.2438 34.3919 15.1926 35.0464C14.1415 35.7008 13.5025 36.8513 13.5025 38.0895L13.5025 41.0293L1.29652 41.0293L1.29652 1.29664L61.247 1.29664L61.2469 41.0293L48.7562 41.0293ZM31.2718 31.8761C30.718 31.8761 30.2691 32.325 30.2691 32.8788L30.2691 41.0292L32.2744 41.0292L32.2744 32.8788C32.2744 32.325 31.8255 31.8761 31.2718 31.8761ZM36.298 41.0293L36.298 40.6763C36.2962 39.8395 36.8016 39.0849 37.5761 38.768L43.7877 36.2113C43.9099 36.1611 44.0198 36.1065 44.1258 36.0539L44.1649 36.0344C44.4774 35.8791 44.8215 35.7982 45.1704 35.798C46.4342 35.8013 47.4576 36.8256 47.4598 38.0894L47.4597 41.0293L36.298 41.0293ZM14.7991 41.0293L14.7991 38.0894C14.7991 37.2999 15.2063 36.566 15.8764 36.148C16.5467 35.73 17.3849 35.6871 18.0942 36.0345L18.1334 36.0539C18.2394 36.1066 18.349 36.161 18.4712 36.2114L24.6828 38.768C25.4574 39.0848 25.9628 39.8393 25.961 40.6762L25.961 41.0293L14.7991 41.0293Z" id="Path-2381" fill="#1466CF" fill-rule="evenodd" stroke="none" />
    <path d="M33.571 6.02694L33.571 26.951C33.5696 28.2202 32.541 29.2488 31.2718 29.2503C30.0025 29.2488 28.974 28.2202 28.9726 26.9509L28.9726 6.02694C28.9726 4.75711 30.0019 3.72772 31.2718 3.72772C32.5416 3.72772 33.571 4.7571 33.571 6.02694ZM32.2744 6.02698C32.2744 5.47323 31.8255 5.02429 31.2717 5.02429C30.718 5.02429 30.269 5.47324 30.269 6.02698L30.269 26.951C30.269 27.5047 30.718 27.9536 31.2717 27.9536C31.8255 27.9536 32.2744 27.5047 32.2744 26.951L32.2744 6.02698Z" id="Path-2382" fill="#1466CF" fill-rule="evenodd" stroke="none" />
    <path d="M25.2389 25.0933C25.1859 25.0933 25.1324 25.0912 25.0789 25.0871C21.8063 24.8343 18.5764 24.185 15.4602 23.1536L15.4602 23.1535C14.9398 22.9819 14.5115 22.606 14.2738 22.1123C14.036 21.6185 14.0093 21.0493 14.1996 20.5354L14.2121 20.5022C14.5872 19.4864 15.7016 18.9525 16.7283 19.2967C19.5375 20.2274 22.4494 20.8127 25.4 21.0399C26.4824 21.1205 27.3044 22.0476 27.2548 23.1319L27.2532 23.1663C27.2042 24.2435 26.3172 25.092 25.2389 25.0933ZM16.3203 20.5275C15.9536 20.4052 15.5563 20.5975 15.4248 20.961L15.4159 20.9846L15.416 20.9845C15.3474 21.1687 15.3569 21.3728 15.4422 21.5499C15.5275 21.7269 15.6813 21.8615 15.868 21.9227C18.8844 22.9211 22.0108 23.5496 25.1787 23.7943C25.3754 23.8104 25.5701 23.7451 25.7173 23.6136C25.8635 23.4845 25.9505 23.3012 25.9578 23.1063L25.9595 23.0719C25.975 22.6882 25.6835 22.3612 25.3006 22.3328C22.245 22.0975 19.2294 21.4913 16.3203 20.5275Z" id="Path-2383" fill="#1466CF" fill-rule="evenodd" stroke="none" />
    <path d="M25.2388 31.1473C25.1857 31.1473 25.1324 31.1453 25.0789 31.1411C21.8062 30.8883 18.5763 30.2391 15.4602 29.2076L15.4603 29.2076C14.9399 29.036 14.5116 28.6601 14.2739 28.1663C14.0362 27.6726 14.0094 27.1034 14.1997 26.5895L14.2122 26.5563C14.5874 25.5405 15.7017 25.0067 16.7284 25.3508C19.5375 26.2814 22.4494 26.8668 25.3999 27.0939C26.4824 27.1747 27.3043 28.1017 27.2548 29.186L27.2531 29.2202C27.2044 30.2975 26.3173 31.1462 25.2388 31.1473ZM16.3203 26.5816C15.9537 26.4593 15.5564 26.6515 15.4249 27.015C15.4243 27.0163 15.4156 27.0397 15.4151 27.041L15.4152 27.0411C15.3467 27.2237 15.356 27.4263 15.4411 27.6018C15.526 27.7799 15.6803 27.9155 15.868 27.9767C18.8844 28.9751 22.0108 29.6036 25.1787 29.8484C25.3754 29.8644 25.5702 29.799 25.7173 29.6675C25.8636 29.5385 25.9505 29.3551 25.9579 29.1603L25.9595 29.1259C25.975 28.7422 25.6836 28.4153 25.3006 28.3868C22.2451 28.1515 19.2295 27.5454 16.3203 26.5816Z" id="Path-2384" fill="#1466CF" fill-rule="evenodd" stroke="none" />
    <path d="M25.2388 19.0177C25.1857 19.0177 25.1325 19.0156 25.0789 19.0115C21.8062 18.7587 18.5764 18.1094 15.4602 17.078L15.4602 17.078C14.9398 16.9063 14.5116 16.5304 14.2738 16.0367C14.0361 15.543 14.0093 14.9738 14.1996 14.4599L14.2121 14.4266C14.5872 13.4107 15.7016 12.8769 16.7283 13.2212C19.5375 14.1518 22.4494 14.7371 25.4 14.9643C26.4824 15.045 27.3043 15.972 27.2548 17.0563L27.2532 17.0906C27.2044 18.1679 26.3173 19.0166 25.2388 19.0177ZM25.3006 16.2571C22.245 16.0218 19.2294 15.4156 16.3203 14.4519C15.9537 14.3302 15.5569 14.5223 15.4248 14.8852L15.4174 14.9051C15.3475 15.0896 15.3561 15.2945 15.4412 15.4724C15.5264 15.6503 15.6805 15.7857 15.8679 15.8471C18.8843 16.8455 22.0108 17.474 25.1787 17.7187C25.3741 17.7345 25.5676 17.6701 25.7146 17.5403C25.8615 17.4105 25.9494 17.2265 25.9579 17.0306L25.9595 16.9962C25.975 16.6125 25.6835 16.2855 25.3006 16.2571Z" id="Path-2385" fill="#1466CF" fill-rule="evenodd" stroke="none" />
    <path d="M25.2388 12.9422C25.1857 12.9422 25.1324 12.9401 25.0789 12.936C21.8063 12.6831 18.5764 12.0339 15.4602 11.0025L15.4602 11.0025C14.9398 10.8308 14.5116 10.455 14.2738 9.96126C14.0361 9.4675 14.0093 8.89832 14.1996 8.38445L14.2121 8.35111C14.587 7.33523 15.7014 6.80123 16.7282 7.14547L16.7283 7.14547C19.5374 8.07619 22.4494 8.66158 25.4 8.88871C26.4824 8.9694 27.3043 9.89643 27.2548 10.9808L27.2532 11.0151C27.2042 12.0924 26.3172 12.9409 25.2388 12.9422ZM16.3205 8.37623C15.9538 8.25405 15.5566 8.4463 15.4248 8.80967C15.4243 8.811 15.4156 8.83435 15.4151 8.83569L15.4152 8.83566C15.3466 9.01826 15.356 9.22099 15.4411 9.39648C15.526 9.57467 15.6803 9.71021 15.868 9.77143C18.8844 10.7699 22.0108 11.3984 25.1787 11.6431C25.3754 11.6591 25.5701 11.5938 25.7173 11.4623C25.8636 11.3333 25.9505 11.1499 25.9579 10.955L25.9595 10.9207C25.975 10.5369 25.6836 10.21 25.3006 10.1815L16.3203 8.37623L16.3205 8.37623Z" id="Path-2386" fill="#1466CF" fill-rule="evenodd" stroke="none" />
    <path d="M37.4646 25.0871C37.4112 25.0912 37.3576 25.0932 37.3046 25.0932C36.8105 25.0941 36.3336 24.9123 35.9653 24.5829L35.9653 24.5829C35.5548 24.2209 35.3108 23.7064 35.2902 23.1595L35.2889 23.132C35.2393 22.0476 36.0613 21.1206 37.1437 21.04C40.0943 20.8127 43.0062 20.2274 45.8153 19.2967C46.8448 18.9527 47.9613 19.4902 48.3344 20.5096L48.3448 20.5378C48.5344 21.0516 48.5071 21.6202 48.2693 22.1134C48.0314 22.6066 47.6034 22.982 47.0834 23.1535C43.9672 24.185 40.7373 24.8343 37.4646 25.0871ZM46.2233 20.5276C43.3141 21.4913 40.2985 22.0975 37.2429 22.3327C36.8577 22.3621 36.5658 22.6927 36.5844 23.0786L36.5857 23.1062L36.5856 23.1062C36.5942 23.3021 36.682 23.4861 36.829 23.6159C36.9759 23.7457 37.1694 23.8101 37.3648 23.7943C40.5328 23.5496 43.6593 22.9211 46.6756 21.9227C46.8633 21.8614 47.0176 21.7259 47.1025 21.5477C47.1876 21.3722 47.197 21.1695 47.1285 20.9869L47.1216 20.9684C46.9917 20.6018 46.5928 20.406 46.2233 20.5276Z" id="Path-2387" fill="#1466CF" fill-rule="evenodd" stroke="none" />
    <path d="M37.4645 31.1412C37.4109 31.1454 37.3577 31.1474 37.3046 31.1474C36.8104 31.1483 36.3334 30.9665 35.965 30.637L35.965 30.637C35.5547 30.2749 35.3108 29.7605 35.2901 29.2137L35.2888 29.1861C35.2393 28.1018 36.0612 27.1748 37.1436 27.0941C40.0942 26.8669 43.0061 26.2815 45.8152 25.3509C46.8447 25.0067 47.9612 25.5443 48.3343 26.5637L48.3453 26.5937C48.5343 27.1074 48.5067 27.6756 48.2687 28.1684C48.0308 28.6612 47.603 29.0363 47.0832 29.2077C43.9671 30.2391 40.7372 30.8884 37.4645 31.1412ZM46.2233 26.5816C43.3141 27.5454 40.2985 28.1516 37.243 28.3869C36.8578 28.4163 36.5659 28.7468 36.5844 29.1328L36.5858 29.1603C36.5931 29.3552 36.6801 29.5386 36.8264 29.6675C36.9736 29.799 37.1682 29.8644 37.3649 29.8484L46.6757 27.9768C46.8633 27.9156 47.0176 27.78 47.1025 27.6018C47.1876 27.4263 47.197 27.2236 47.1285 27.0411C47.1275 27.0386 47.1197 27.0175 47.1188 27.015C46.9868 26.652 46.5898 26.4599 46.2233 26.5816Z" id="Path-2388" fill="#1466CF" fill-rule="evenodd" stroke="none" />
    <path d="M37.4646 19.0116C37.4111 19.0157 37.3578 19.0178 37.3048 19.0178C36.8106 19.0187 36.3335 18.8369 35.9652 18.5073L35.9651 18.5074C35.5548 18.1453 35.3108 17.6308 35.2902 17.0839L35.2889 17.0563C35.2394 15.972 36.0613 15.045 37.1437 14.9643C40.0942 14.7372 43.0062 14.1519 45.8153 13.2213C46.8448 12.8771 47.9613 13.4147 48.3343 14.4341L48.3437 14.4591C48.5343 14.9731 48.5077 15.5425 48.27 16.0364C48.0323 16.5303 47.6039 16.9064 47.0834 17.0781C43.9672 18.1096 40.7373 18.7588 37.4646 19.0116ZM46.2233 14.4519C43.3141 15.4156 40.2985 16.0218 37.243 16.2571C36.8578 16.2865 36.5659 16.6172 36.5844 17.003L36.5857 17.0307L36.5857 17.0307C36.5942 17.2266 36.6821 17.4106 36.829 17.5404C36.976 17.6702 37.1695 17.7346 37.3649 17.7188C40.5328 17.474 43.6593 16.8455 46.6757 15.847C46.8633 15.7858 47.0177 15.6503 47.1025 15.4721C47.1876 15.2966 47.197 15.0939 47.1285 14.9113C47.1275 14.9088 47.1197 14.8878 47.1188 14.8853C46.9869 14.5221 46.5898 14.33 46.2233 14.4519Z" id="Path-2389" fill="#1466CF" fill-rule="evenodd" stroke="none" />
    <path d="M37.4645 12.9361C37.411 12.9402 37.3577 12.9422 37.3046 12.9422C36.8105 12.9431 36.3335 12.7613 35.9652 12.4318L35.9652 12.4318C35.5548 12.0698 35.3107 11.5553 35.2901 11.0085L35.2888 10.9809C35.2393 9.89662 36.0612 8.96956 37.1436 8.88887C40.0942 8.66174 43.0061 8.07635 45.8152 7.14564L45.8154 7.14564C46.8448 6.8018 47.9611 7.3393 48.3343 8.35856L48.3453 8.38856C48.5343 8.90214 48.5067 9.47044 48.2687 9.96324C48.0308 10.456 47.603 10.8311 47.0833 11.0026C43.9671 12.0339 40.7372 12.6832 37.4645 12.9361ZM46.2231 8.37637C43.314 9.34021 40.2985 9.94641 37.243 10.1817C36.8577 10.2111 36.5658 10.5417 36.5843 10.9276L36.5857 10.9551C36.5931 11.15 36.6801 11.3334 36.8263 11.4624C36.9735 11.5939 37.1681 11.6592 37.3649 11.6432C40.5328 11.3985 43.6593 10.77 46.6757 9.77157C46.8633 9.71033 47.0176 9.5748 47.1025 9.39662C47.1876 9.22114 47.197 9.01843 47.1284 8.83587C47.1274 8.8334 47.1197 8.81234 47.1187 8.80981C46.9865 8.4469 46.5897 8.25488 46.2231 8.37637Z" id="Path-2390" fill="#1466CF" fill-rule="evenodd" stroke="none" />
    <path d="M57.5221 10.6584L58.8182 10.6584L58.8182 5.90368C58.8168 4.70098 57.8428 3.7264 56.6407 3.72507L51.8429 3.72509L51.8429 5.02197L56.6408 5.02197C57.1272 5.02249 57.5215 5.41692 57.5221 5.90368L57.5221 10.6584Z" id="Path-2391" fill="#1466CF" fill-rule="evenodd" stroke="none" />
    <path d="M5.90869 5.02156L10.3847 5.02156L10.3847 3.72507L5.90866 3.72507C4.70694 3.72646 3.73308 4.70074 3.73167 5.903L3.73167 10.764L5.02756 10.764L5.02756 5.90301C5.02816 5.4164 5.42232 5.02211 5.90869 5.02156Z" id="Path-2392" fill="#1466CF" fill-rule="evenodd" stroke="none" />
    <path d="M10.6548 38.5959L10.6548 37.299L5.90717 37.299C5.42114 37.2985 5.02723 36.904 5.02666 36.4172L5.02666 31.6626L3.73165 31.6626L3.73165 36.4172C3.73306 37.6199 4.70626 38.5945 5.90717 38.5959L10.6548 38.5959Z" id="Path-2393" fill="#1466CF" fill-rule="evenodd" stroke="none" />
    <path d="M56.6409 37.299L52.0624 37.299L52.0624 38.5959L56.641 38.5959C57.843 38.5945 58.8171 37.6199 58.8184 36.4172L58.8184 31.6626L57.5222 31.6626L57.5222 36.4172C57.5216 36.9039 57.1274 37.2984 56.6409 37.299Z" id="Path-2394" fill="#1466CF" fill-rule="evenodd" stroke="none" />
  </g>
</svg>