<?xml version="1.0" standalone="no"?>
<!DOCTYPE svg PUBLIC "-//W3C//DTD SVG 1.1//EN" "http://www.w3.org/Graphics/SVG/1.1/DTD/svg11.dtd" >
<svg xmlns="http://www.w3.org/2000/svg" xmlns:xlink="http://www.w3.org/1999/xlink" version="1.1">
<metadata>
Created by FontForge 20200427 at Tue Jan 17 21:53:42 2012
 By www
Copyright (c) 2011 - 2012 Linotype Corp., www.linotype.com. All rights reserved. This font software may not be reproduced, modified, disclosed or transferred without the express written approval of Linotype Corp. Neue Haas Grotesk is a trademark of Linotype Corp. registered in the U.S. Patent and Trademark Office and may be registered in certain other jurisdictions in the name of Linotype Corp. or its licensee Linotype GmbH. This typeface is original artwork of Christian Schwartz. The design may be protected in certain jurisdictions.
</metadata>
<defs>
<font id="NHaasGroteskDSPro-65Md" horiz-adv-x="0" >
  <font-face 
    font-family="NHaasGroteskDSPro-65Md"
    font-weight="500"
    font-stretch="normal"
    units-per-em="1000"
    panose-1="2 11 6 4 2 2 2 2 2 4"
    ascent="771"
    descent="-229"
    x-height="513"
    cap-height="715"
    bbox="-171 -192 1212 930"
    underline-thickness="20"
    underline-position="-133"
    unicode-range="U+000D-FB04"
  />
<missing-glyph horiz-adv-x="500" 
 />
    <glyph glyph-name="uniFB00" unicode="ff" horiz-adv-x="619" 
d="M14 513h70v42q0 47 17 79t47 50.5t71 24.5t88 1v-105q-45 2 -66 -8t-21 -50v-34h153v46q0 47 17 79t47.5 50.5t72.5 24.5t91 1v-105q-48 2 -70 -8t-22 -50v-38h92v-94h-92v-419h-136v419h-153v-419h-136v419h-70v94z" />
    <glyph glyph-name="uniFB01" unicode="fi" horiz-adv-x="550" 
d="M11 513h70v46q0 47 17 79t47.5 50.5t72.5 24.5t91 1v-105q-48 2 -70 -8t-22 -50v-38h92v-94h-92v-419h-136v419h-70v94zM370 513h136v-513h-136v513zM370 715h136v-122h-136v122z" />
    <glyph glyph-name="uniFB02" unicode="fl" horiz-adv-x="555" 
d="M14 513h70v46q0 47 17 79t47.5 50.5t72.5 24.5t91 1v-105q-48 2 -70 -8t-22 -50v-38h92v-94h-92v-419h-136v419h-70v94zM373 715h136v-715h-136v715z" />
    <glyph glyph-name="uniFB03" unicode="ffi" horiz-adv-x="842" 
d="M14 513h70v42q0 47 17 79t47 50.5t71 24.5t88 1v-105q-45 2 -66 -8t-21 -50v-34h153v46q0 47 17 79t47.5 50.5t72.5 24.5t91 1v-105q-48 2 -70 -8t-22 -50v-38h92v-94h-92v-419h-136v419h-153v-419h-136v419h-70v94zM662 513h136v-513h-136v513zM662 715h136v-122h-136
v122z" />
    <glyph glyph-name="uniFB04" unicode="ffl" horiz-adv-x="846" 
d="M14 513h70v42q0 47 17 79t47 50.5t71 24.5t88 1v-105q-45 2 -66 -8t-21 -50v-34h153v46q0 47 17 79t47.5 50.5t72.5 24.5t91 1v-105q-48 2 -70 -8t-22 -50v-38h92v-94h-92v-419h-136v419h-153v-419h-136v419h-70v94zM664 715h136v-715h-136v715z" />
    <glyph glyph-name=".notdef" horiz-adv-x="500" 
 />
    <glyph glyph-name="glyph1" 
 />
    <glyph glyph-name="glyph1" 
 />
    <glyph glyph-name="uni000D" unicode="&#xd;" 
 />
    <glyph glyph-name="space" unicode=" " horiz-adv-x="168" 
 />
    <glyph glyph-name="exclam" unicode="!" horiz-adv-x="254" 
d="M56 557v158h142v-158l-38 -348h-66zM54 145h146v-145h-146v145z" />
    <glyph glyph-name="quotedbl" unicode="&#x22;" horiz-adv-x="382" 
d="M222 715h119v-251h-119v251zM41 715h119v-251h-119v251z" />
    <glyph glyph-name="numbersign" unicode="#" horiz-adv-x="593" 
d="M79 513h96l27 173h93l-27 -173h108l27 173h93l-27 -173h97l-17 -106h-97l-18 -118h96l-17 -106h-96l-28 -183h-93l28 183h-108l-28 -183h-93l28 183h-97l18 106h96l18 118h-97zM233 289h108l18 118h-108z" />
    <glyph glyph-name="dollar" unicode="$" horiz-adv-x="614" 
d="M281 -11q-123 8 -189.5 65.5t-69.5 159.5h136q7 -53 36 -80.5t87 -33.5v190q-4 0 -5 1q-46 10 -88.5 23.5t-75 35.5t-52 56.5t-19.5 88.5q0 48 18 85.5t49.5 63t75.5 39.5t97 17v59h60v-60q101 -9 161 -63t67 -149h-133q-5 42 -31 66.5t-64 32.5v-173q2 -1 6 -1
q48 -10 91.5 -23.5t76.5 -37t52 -59t19 -88.5q0 -50 -18.5 -89t-51 -66.5t-77.5 -42.5t-98 -18v-85h-60v86zM446 187q0 38 -27.5 56.5t-77.5 31.5v-175q22 2 41 8.5t33 17t22.5 25.5t8.5 36zM180 510q0 -35 24.5 -52.5t76.5 -31.5v163q-48 -5 -74.5 -25.5t-26.5 -53.5z" />
    <glyph glyph-name="percent" unicode="%" horiz-adv-x="837" 
d="M195 301q-38 0 -70.5 14t-56 40t-36.5 63t-13 82q0 46 13.5 83t37 63t55.5 40t70 14q39 0 71 -14t55 -40t36 -63t13 -83q0 -45 -13 -82t-36 -63t-55 -40t-71 -14zM643 -16q-38 0 -70.5 14t-56 40t-36.5 63t-13 82q0 46 13.5 83t37 63t55.5 40t70 14q39 0 71 -14t55 -40
t36 -63t13 -83q0 -45 -13 -82t-36 -63t-55 -40t-71 -14zM552 686h85l-351 -686h-85zM643 61q35 0 52 34t17 88t-17 89t-52 35t-52 -34.5t-17 -89.5q0 -54 17 -88t52 -34zM195 378q35 0 52 34t17 88t-17 89t-52 35t-52 -34.5t-17 -89.5q0 -54 17 -88t52 -34z" />
    <glyph glyph-name="ampersand" unicode="&#x26;" horiz-adv-x="656" 
d="M257 -15q-59 0 -103.5 15.5t-74.5 42t-45 63t-15 78.5q0 76 44 127t114 86q-31 38 -45.5 71t-14.5 77q0 35 13.5 65t37.5 52.5t58 35t76 12.5q40 0 74.5 -12t59.5 -33.5t39 -51.5t14 -67q0 -33 -9 -58.5t-26 -45.5t-40.5 -36.5t-52.5 -31.5l95 -123q22 56 28 116h121
q-5 -60 -22 -116.5t-46 -104.5l113 -146h-166l-37 47q-40 -29 -88 -45.5t-102 -16.5zM262 97q64 0 114 42l-131 171q-46 -28 -64 -58t-18 -64q0 -41 28.5 -66t70.5 -25zM248 543q0 -24 14.5 -47t37.5 -45q35 21 47.5 44t12.5 49t-16.5 41.5t-39.5 15.5q-24 0 -40 -16
t-16 -42z" />
    <glyph glyph-name="quotesingle" unicode="'" horiz-adv-x="201" 
d="M41 715h119v-251h-119v251z" />
    <glyph glyph-name="parenleft" unicode="(" horiz-adv-x="346" 
d="M219 -131q-30 42 -57.5 90t-48.5 102.5t-33.5 116t-12.5 130.5q0 71 12.5 134.5t33.5 120t48 104.5t57 87h116q-27 -43 -50 -91t-39.5 -103t-26 -117.5t-9.5 -134.5q0 -68 9.5 -128t26.5 -114.5t39.5 -103t48.5 -93.5h-114v0z" />
    <glyph glyph-name="parenright" unicode=")" horiz-adv-x="346" 
d="M13 -131q26 45 48.5 93.5t39.5 103t26.5 114.5t9.5 128q0 72 -9.5 134.5t-26 117.5t-39.5 103t-50 91h116q30 -39 57 -87t48 -104.5t33.5 -120t12.5 -134.5q0 -69 -12.5 -130.5t-33.5 -116t-48.5 -102.5t-57.5 -90h-114v0z" />
    <glyph glyph-name="asterisk" unicode="*" horiz-adv-x="402" 
d="M72 436l68 92l-108 35l27 69l104 -35v118h77v-118l103 35l27 -69l-106 -35l67 -92l-61 -45l-68 97l-68 -97z" />
    <glyph glyph-name="plus" unicode="+" horiz-adv-x="569" 
d="M35 378h197v203h104v-203h198v-100h-198v-203h-104v203h-197v100z" />
    <glyph glyph-name="comma" unicode="," horiz-adv-x="218" 
d="M37 -117q29 15 50.5 42.5t21.5 74.5h-73v145h146v-137q0 -38 -12 -68t-32 -52t-46 -35.5t-55 -18.5v49z" />
    <glyph glyph-name="hyphen" unicode="-" horiz-adv-x="339" 
d="M34 306h271v-117h-271v117z" />
    <glyph glyph-name="period" unicode="." horiz-adv-x="218" 
d="M36 145h146v-145h-146v145z" />
    <glyph glyph-name="slash" unicode="/" horiz-adv-x="414" 
d="M293 715h108l-280 -715h-108z" />
    <glyph glyph-name="zero" unicode="0" horiz-adv-x="632" 
d="M316 -16q-66 0 -118.5 25.5t-90 72t-57.5 112.5t-20 148t20.5 148.5t58 113t90.5 71.5t118 25q66 0 119 -25t90 -71.5t56.5 -113t19.5 -148.5t-19.5 -148t-56.5 -112.5t-90 -72t-120 -25.5zM317 100q38 0 65 17t44.5 48.5t25.5 76.5t8 100q0 54 -8 99t-25.5 76.5
t-44.5 49t-65 17.5t-65.5 -17.5t-45 -49t-26 -76t-8.5 -99.5q0 -54 8.5 -99t26 -76.5t45 -49t65.5 -17.5z" />
    <glyph glyph-name="one" unicode="1" horiz-adv-x="392" 
d="M182 478h-155v90q31 1 60 8t52.5 21t39.5 37t21 56h119v-690h-137v478z" />
    <glyph glyph-name="two" unicode="2" horiz-adv-x="547" 
d="M26 0q2 49 17 89t38 73t52 60t58 50q32 25 64.5 48t58 46.5t41.5 50t16 59.5q0 48 -24.5 77.5t-70.5 29.5q-52 0 -81 -36t-31 -103h-128q0 117 60.5 186t182.5 69q56 0 99.5 -17.5t73 -47.5t45 -70t15.5 -84q0 -48 -15 -85t-39.5 -65.5t-55.5 -51.5t-62 -44
q-20 -13 -41 -27.5t-39.5 -30t-33.5 -32t-24 -32.5h316v-112h-492v0z" />
    <glyph glyph-name="three" unicode="3" horiz-adv-x="567" 
d="M285 -15q-66 0 -116.5 17.5t-84 50t-51 78.5t-18.5 102h130q2 -31 10 -56.5t24 -44t41 -28.5t60 -10q57 0 89 29t32 82q0 50 -31.5 78t-94.5 28h-42v103h39q49 0 80 23.5t31 67.5q0 41 -26 65.5t-71 24.5q-59 0 -88 -34t-31 -88h-130q2 51 18.5 92.5t48 71t77 46
t105.5 16.5q54 0 97 -13t74 -37t47.5 -58t16.5 -77q0 -58 -33 -92.5t-84 -51.5v-2q66 -16 102.5 -58t36.5 -114q0 -53 -20.5 -93t-55.5 -66t-82 -39t-100 -13z" />
    <glyph glyph-name="four" unicode="4" horiz-adv-x="595" 
d="M340 149h-316v147l311 397h138v-435h104v-109h-104v-149h-133v149zM134 258h206v266h-2l-204 -263v-3z" />
    <glyph glyph-name="five" unicode="5" horiz-adv-x="578" 
d="M289 -15q-57 0 -105.5 14.5t-84.5 42t-58.5 67t-27.5 89.5h134q9 -51 47 -75t92 -24q59 0 93 37t34 92q0 61 -36.5 93.5t-90.5 32.5q-39 0 -68 -13t-44 -30h-131l66 374h404v-113h-309l-26 -148h2q23 20 58.5 31.5t83.5 11.5q45 0 87 -16.5t74.5 -47.5t51.5 -75.5
t19 -99.5q0 -54 -20.5 -98.5t-56 -76.5t-84 -50t-104.5 -18z" />
    <glyph glyph-name="six" unicode="6" horiz-adv-x="594" 
d="M315 -15q-74 0 -127 28t-87.5 75.5t-51.5 110.5t-18 133q-1 91 18.5 163.5t65.5 124.5q33 38 80 58.5t117 20.5q51 0 92 -13.5t71 -37t48.5 -56t24.5 -70.5h-131q-8 32 -31.5 52.5t-68.5 20.5q-75 0 -111.5 -52.5t-36.5 -143.5h2q27 32 64 51.5t97 19.5q48 0 91 -18
t75.5 -50t52 -77t19.5 -100q0 -53 -19.5 -97t-54 -76t-81 -49.5t-100.5 -17.5zM310 92q28 0 51.5 10t41 27.5t27.5 41.5t10 52q0 29 -10 54t-27 43.5t-40.5 29t-51.5 10.5q-63 0 -98 -38t-35 -98q0 -58 37 -95t95 -37z" />
    <glyph glyph-name="seven" unicode="7" horiz-adv-x="530" 
d="M112 0q3 94 27.5 179.5t60.5 158t78 130.5t81 98v2h-340v117h488v-112q-46 -47 -89 -107.5t-77 -132.5t-55.5 -156t-25.5 -177h-148v0z" />
    <glyph glyph-name="eight" unicode="8" horiz-adv-x="597" 
d="M302 -15q-58 0 -109 14t-88.5 41t-59.5 66.5t-22 91.5q0 64 34 111t91 69v3q-46 21 -71 53.5t-25 82.5q0 43 18 77t51 57.5t78.5 35.5t101.5 12q55 0 100.5 -12t77 -35t49 -56.5t17.5 -76.5q0 -48 -25 -82t-70 -55v-3q57 -20 90.5 -66t33.5 -109q0 -53 -20.5 -94
t-57 -68.5t-86.5 -42t-108 -14.5zM299 95q60 0 97.5 29.5t37.5 78.5q0 53 -35 84.5t-98 31.5t-100 -31.5t-37 -84.5q0 -51 36 -79.5t99 -28.5zM299 414q54 0 83.5 25.5t29.5 66.5t-29.5 65.5t-83.5 24.5t-84 -24.5t-30 -65.5t30 -66.5t84 -25.5z" />
    <glyph glyph-name="nine" unicode="9" horiz-adv-x="597" 
d="M293 -15q-54 0 -96 13.5t-72 37.5t-48 56.5t-24 71.5h132q8 -31 33 -53t71 -22q65 0 99 43q41 52 43 161h-2q-27 -32 -64.5 -53.5t-94.5 -21.5q-52 0 -97 17t-78 48.5t-51.5 76t-18.5 99.5q0 53 19.5 97t54 76t82 49.5t102.5 17.5q137 0 210.5 -86t73.5 -261
q0 -82 -14.5 -149.5t-47 -116t-85 -75t-127.5 -26.5zM289 328q29 0 54.5 9.5t44 26.5t29 41t10.5 54q0 29 -10.5 53.5t-29 42t-43.5 27.5t-54 10q-30 0 -54.5 -10t-42.5 -27.5t-28 -41.5t-10 -52q0 -59 35.5 -96t98.5 -37z" />
    <glyph glyph-name="colon" unicode=":" horiz-adv-x="224" 
d="M39 446h146v-145h-146v145zM39 145h146v-145h-146v145z" />
    <glyph glyph-name="semicolon" unicode=";" horiz-adv-x="224" 
d="M40 -117q29 15 50.5 42.5t21.5 74.5h-73v145h146v-137q0 -38 -12 -68t-32 -52t-46 -35.5t-55 -18.5v49zM39 446h146v-145h-146v145z" />
    <glyph glyph-name="less" unicode="&#x3c;" horiz-adv-x="500" 
d="M45 252v116l410 173v-114l-217 -85q-13 -5 -29 -10.5t-31 -10.5q-18 -6 -35 -12v-2q17 -6 35 -11q15 -5 31 -9.5t29 -9.5l217 -82v-116z" />
    <glyph glyph-name="equal" unicode="=" horiz-adv-x="562" 
d="M56 456h464v-98h-464v98zM56 263h464v-98h-464v98z" />
    <glyph glyph-name="greater" unicode="&#x3e;" horiz-adv-x="500" 
d="M45 193l217 85q12 5 28.5 10.5l31.5 10.5q18 6 35 12v2q-17 5 -35 10q-15 5 -31.5 10t-28.5 10l-217 82v116l410 -173v-116l-410 -173v114z" />
    <glyph glyph-name="question" unicode="?" horiz-adv-x="538" 
d="M193 209q0 44 7.5 73t21.5 49.5t33 35.5t42 32q16 12 30.5 23t26 24t18 29.5t6.5 39.5q0 46 -30 72t-76 26q-56 0 -90 -33t-35 -92h-129q1 50 18 93.5t48.5 76t78.5 51.5t108 19q57 0 102.5 -16t76.5 -44t47.5 -66.5t16.5 -82.5q0 -37 -9 -64t-22.5 -47t-30.5 -34.5
t-33 -26.5q-28 -21 -48 -35.5t-32.5 -28.5t-18 -30.5t-5.5 -43.5h-122zM181 145h146v-145h-146v145z" />
    <glyph glyph-name="at" unicode="@" horiz-adv-x="901" 
d="M395 78q-78 0 -122.5 53t-44.5 143q0 54 14 99t40.5 77.5t63 50.5t81.5 18q44 0 72.5 -19.5t42.5 -54.5h2l7 63h125l-34 -274q-5 -38 4 -59t39 -21q17 0 34.5 10.5t31.5 33t22.5 58t8.5 85.5q0 75 -23.5 130.5t-65.5 92t-100 55t-128 18.5t-131.5 -24t-108 -69
t-73.5 -110.5t-27 -149.5q0 -69 20.5 -127t60 -100.5t98.5 -66.5t136 -24q50 0 95 10t86 27l28 -66q-47 -23 -99 -34.5t-108 -11.5q-89 0 -163.5 28t-128.5 79.5t-84 124t-30 161.5q0 103 36 183.5t96 135t137.5 83t160.5 28.5q79 0 151.5 -24t127.5 -71t87.5 -116
t32.5 -160q0 -61 -13 -110t-37.5 -83t-59.5 -52.5t-80 -18.5q-54 0 -90 19.5t-51 59.5h-3q-23 -38 -57 -59t-79 -21zM430 175q48 0 74 41.5t26 105.5q0 44 -19 72.5t-57 28.5q-23 0 -41 -11.5t-30 -31t-18.5 -46.5t-6.5 -57q0 -43 17 -72.5t55 -29.5z" />
    <glyph glyph-name="A" unicode="A" horiz-adv-x="659" 
d="M252 715h150l252 -715h-151l-48 152h-258l-47 -152h-147zM231 263h189l-64 206q-5 14 -9.5 33t-9.5 36q-5 20 -10 41h-2q-6 -21 -11 -41q-5 -17 -9.5 -36t-9.5 -33z" />
    <glyph glyph-name="B" unicode="B" horiz-adv-x="656" 
d="M55 715h320q58 0 101.5 -13.5t71.5 -38.5q57 -51 57 -134q0 -55 -30.5 -90.5t-81.5 -52.5v-3q60 -17 96.5 -64t36.5 -113q0 -51 -15.5 -86.5t-47.5 -62.5q-31 -27 -77 -42t-103 -15h-328v715zM200 120h167q53 0 82.5 26.5t29.5 70.5q0 51 -33 77t-83 26h-163v-200z
M357 427q48 0 77 22t29 64q0 40 -27.5 62t-75.5 22h-160v-170h157z" />
    <glyph glyph-name="C" unicode="C" horiz-adv-x="684" 
d="M368 -15q-75 0 -138.5 27.5t-109 77t-71 117t-25.5 148.5q0 79 24 147.5t68.5 119t108 79t142.5 28.5q66 0 118 -18.5t89.5 -51t59.5 -76.5t28 -95h-144q-10 54 -49 86.5t-102 32.5q-50 0 -86.5 -19.5t-60.5 -53.5t-36 -80t-12 -99q0 -55 13.5 -101t39 -79.5t62 -52
t81.5 -18.5q64 0 105.5 34.5t48.5 91.5h142q-3 -48 -23 -91.5t-56 -77.5q-37 -35 -89.5 -55.5t-127.5 -20.5z" />
    <glyph glyph-name="D" unicode="D" horiz-adv-x="672" 
d="M55 715h279q72 0 130 -27.5t99 -76t63 -115.5t22 -146q0 -88 -28.5 -160.5t-85.5 -120.5q-40 -33 -92 -51t-120 -18h-267v715zM312 125q102 0 145.5 59t43.5 166q0 53 -11.5 97.5t-35 76.5t-58 49.5t-80.5 17.5h-116v-466h112z" />
    <glyph glyph-name="E" unicode="E" horiz-adv-x="619" 
d="M55 715h526v-122h-381v-160h334v-119h-334v-193h384v-121h-529v715z" />
    <glyph glyph-name="F" unicode="F" horiz-adv-x="594" 
d="M55 715h512v-123h-367v-172h311v-124h-311v-296h-145v715z" />
    <glyph glyph-name="G" unicode="G" horiz-adv-x="734" 
d="M574 96h-2q-37 -62 -87 -86.5t-114 -24.5q-81 0 -143.5 27.5t-107.5 76.5q-45 50 -69 117.5t-24 148.5q0 90 30 165t87 127q44 40 101 61t129 21q67 0 120.5 -17.5t91.5 -49.5t61.5 -76t32.5 -96h-142q-12 52 -52 85.5t-109 33.5q-51 0 -88.5 -19.5t-63 -54t-38 -81
t-12.5 -99.5q0 -55 14 -101.5t40 -80t63 -52.5t83 -19q42 0 76 14t58 37t37 52t13 59v4h-172v112h301v-380h-109z" />
    <glyph glyph-name="H" unicode="H" horiz-adv-x="681" 
d="M55 715h145v-280h281v280h145v-715h-145v315h-281v-315h-145v715z" />
    <glyph glyph-name="I" unicode="I" horiz-adv-x="257" 
d="M56 715h145v-715h-145v715z" />
    <glyph glyph-name="J" unicode="J" horiz-adv-x="516" 
d="M251 -13q-112 0 -173 51t-61 157v71h130v-62q0 -54 23.5 -77t68.5 -23t65.5 25t20.5 73v513h145v-514q0 -46 -13.5 -85t-40.5 -67.5t-68.5 -45t-96.5 -16.5z" />
    <glyph glyph-name="K" unicode="K" horiz-adv-x="674" 
d="M55 715h145v-285l275 285h180l-280 -286l298 -429h-170l-230 334l-73 -74v-260h-145v715z" />
    <glyph glyph-name="L" unicode="L" horiz-adv-x="559" 
d="M55 715h145v-594h336v-121h-481v715z" />
    <glyph glyph-name="M" unicode="M" horiz-adv-x="814" 
d="M55 715h204l101 -359q9 -34 17.5 -68t14.5 -62q7 -33 13 -63h2q6 30 13 63q6 28 13.5 62t17.5 68l101 359h207v-715h-135v410q0 22 0.5 47.5t2.5 48.5q1 26 3 52h-2q-5 -25 -10 -49q-5 -21 -10.5 -44t-10.5 -43l-123 -422h-139l-120 422q-6 20 -11 43t-10 44
q-5 24 -10 49h-2q1 -26 3 -52q1 -23 2 -48.5t1 -47.5v-410h-133v715z" />
    <glyph glyph-name="N" unicode="N" horiz-adv-x="686" 
d="M55 715h147l238 -399q8 -15 17 -32.5t17 -32.5q9 -18 16 -35h2q-1 21 -2 43q-1 19 -1.5 40.5t-0.5 40.5v375h143v-715h-140l-244 395q-9 14 -17.5 31.5t-16.5 32.5q-9 18 -17 35h-2l2 -44q1 -19 1.5 -40.5t0.5 -40.5v-369h-143v715z" />
    <glyph glyph-name="O" unicode="O" horiz-adv-x="737" 
d="M369 -16q-79 0 -143 28t-109 77.5t-69 118t-24 148.5t24 148.5t69 118.5t109 78t143 28t142.5 -28t108.5 -78t69 -118.5t24 -148.5t-24 -148.5t-69 -118t-108.5 -77.5t-142.5 -28zM370 103q49 0 85.5 19.5t61 53.5t36.5 80.5t12 99.5q0 54 -12 100t-36.5 80.5t-61 54
t-85.5 19.5t-86 -19.5t-62 -54t-37.5 -80.5t-12.5 -100q0 -53 12.5 -99.5t37.5 -80.5t62 -53.5t86 -19.5z" />
    <glyph glyph-name="P" unicode="P" horiz-adv-x="637" 
d="M55 715h314q63 0 109 -17.5t78 -49.5q30 -31 47 -72t17 -91q0 -51 -16.5 -92.5t-47 -71t-75 -46t-100.5 -16.5h-176v-259h-150v715zM205 377h150q57 0 86.5 29t29.5 78q0 51 -30 78t-84 27h-152v-212z" />
    <glyph glyph-name="Q" unicode="Q" horiz-adv-x="733" 
d="M550 33q-38 -23 -84 -36t-99 -13q-79 0 -142.5 28t-108 77.5t-68.5 118t-24 148.5t24 148.5t68.5 118.5t108 78t142.5 28t142.5 -28t107.5 -78t68 -118.5t24 -148.5q0 -74 -20 -137t-58 -112l76 -68l-74 -81zM368 103q49 0 84 19l-63 58l74 80l65 -60q17 32 25 71.5
t8 84.5q0 54 -11.5 100t-35.5 80.5t-60.5 54t-85.5 19.5t-86 -19.5t-61.5 -54t-36.5 -80.5t-12 -100q0 -53 12 -99.5t36.5 -80.5t61.5 -53.5t86 -19.5z" />
    <glyph glyph-name="R" unicode="R" horiz-adv-x="651" 
d="M55 715h328q52 0 94.5 -14.5t72.5 -40.5t46.5 -62.5t16.5 -81.5q0 -63 -31 -108.5t-100 -64.5v-3q49 -14 75.5 -46.5t33.5 -97.5q4 -38 5.5 -70.5t4 -57.5t7.5 -41t14 -20v-7h-139q-7 3 -11 18.5t-6.5 38.5t-4.5 51t-4 57q-5 59 -38.5 90.5t-101.5 31.5h-117v-287h-145
v715zM200 399h154q60 0 89 27.5t29 70.5q0 44 -28 72.5t-86 28.5h-158v-199z" />
    <glyph glyph-name="S" unicode="S" horiz-adv-x="642" 
d="M332 -16q-146 0 -225.5 61.5t-83.5 175.5h142q8 -65 46 -92.5t115 -27.5q28 0 53 5t44 16t30.5 28.5t11.5 42.5q0 26 -12.5 43t-35.5 28.5t-55.5 20t-73.5 17.5q-48 11 -92.5 24.5t-78 36.5t-54 59t-20.5 92q0 53 20.5 93t57 67t86.5 40.5t110 13.5q121 0 194.5 -57
t81.5 -166h-139q-6 54 -44 81t-94 27q-59 0 -94 -23t-35 -61q0 -22 9.5 -36.5t29 -25.5t48.5 -19t69 -17q55 -12 103.5 -26.5t85 -38.5t57.5 -61t21 -95q0 -54 -21 -96.5t-58 -71t-88 -43.5t-111 -15z" />
    <glyph glyph-name="T" unicode="T" horiz-adv-x="611" 
d="M18 715h575v-122h-215v-593h-145v593h-215v122z" />
    <glyph glyph-name="U" unicode="U" horiz-adv-x="657" 
d="M331 -12q-140 0 -211 62.5t-71 179.5v485h145v-485q0 -56 30.5 -91t103.5 -35q69 0 102 36t33 92v483h145v-485q0 -115 -69.5 -178.5t-207.5 -63.5z" />
    <glyph glyph-name="V" unicode="V" horiz-adv-x="618" 
d="M2 715h152l126 -414q5 -18 10.5 -38t10.5 -37q5 -20 10 -39h2l10 40q5 17 10.5 37t10.5 37l125 414h147l-241 -715h-132z" />
    <glyph glyph-name="W" unicode="W" horiz-adv-x="916" 
d="M5 715h148l93 -355q5 -23 10.5 -50.5t10.5 -50.5q5 -27 10 -55h2q6 26 11 52q5 23 10.5 49.5t11.5 50.5l78 359h140l78 -358q5 -24 11 -50.5t11 -49.5q5 -26 11 -53h2q6 27 12 55q5 23 11.5 51t11.5 51l90 354h143l-204 -715h-135l-87 383q-5 20 -9 42t-8 41l-8 44h-2
q-3 -22 -7 -44q-3 -19 -7 -41t-9 -42l-88 -383h-134z" />
    <glyph glyph-name="X" unicode="X" horiz-adv-x="647" 
d="M239 374l-214 341h163l132 -226h2l132 226h158l-210 -340l237 -375h-169l-146 261h-2l-148 -261h-166z" />
    <glyph glyph-name="Y" unicode="Y" horiz-adv-x="629" 
d="M242 276l-238 439h158l108 -212q8 -17 16.5 -34.5t15.5 -32.5q8 -18 15 -35h2q8 17 16 35q7 15 15.5 32.5t16.5 34.5l106 212h152l-238 -439v-276h-145v276z" />
    <glyph glyph-name="Z" unicode="Z" horiz-adv-x="626" 
d="M27 109l390 482v3h-365v121h537v-121l-377 -468v-3h384v-123h-569v109z" />
    <glyph glyph-name="bracketleft" unicode="[" horiz-adv-x="382" 
d="M64 754h286v-106h-155v-673h155v-106h-286v885z" />
    <glyph glyph-name="backslash" unicode="\" horiz-adv-x="414" 
d="M13 715h108l280 -715h-108z" />
    <glyph glyph-name="bracketright" unicode="]" horiz-adv-x="382" 
d="M32 -25h155v673h-155v106h286v-885h-286v106z" />
    <glyph glyph-name="asciicircum" unicode="^" horiz-adv-x="447" 
d="M166 715h115l158 -287h-124l-90 169h-2l-93 -169h-122z" />
    <glyph glyph-name="underscore" unicode="_" horiz-adv-x="423" 
d="M-3 -83h428v-85h-428v85z" />
    <glyph glyph-name="grave" unicode="`" horiz-adv-x="500" 
d="M102 718h159l55 -141h-106z" />
    <glyph glyph-name="a" unicode="a" horiz-adv-x="522" 
d="M367 0q-6 8 -10 24t-6 33h-2q-10 -15 -22.5 -27.5t-30 -21.5t-41.5 -14.5t-57 -5.5q-79 0 -129 40t-50 117q0 42 16 71t44 48t65.5 29.5t80.5 16.5q64 9 94 19t30 39q0 28 -21.5 44.5t-64.5 16.5q-48 0 -72 -17.5t-27 -54.5h-121q1 34 15 64.5t41 53.5t68 37t97 14
q115 0 165.5 -49.5t50.5 -139.5v-261q0 -58 18 -71v-5h-131zM231 83q29 0 51.5 8.5t38 22t23.5 31t8 36.5v77q-18 -11 -43.5 -17.5t-51.5 -12.5q-54 -12 -80 -28t-26 -52t22 -50.5t58 -14.5z" />
    <glyph glyph-name="b" unicode="b" horiz-adv-x="566" 
d="M330 -15q-54 0 -92 21.5t-61 57.5h-2v-64h-131v715h136v-264h3q21 32 55 54t88 22q48 0 89 -20t70 -55.5t45.5 -85.5t16.5 -110q0 -62 -16 -112.5t-44.5 -85.5t-68.5 -54t-88 -19zM300 99q53 0 81 41t28 116q0 72 -28.5 116.5t-85.5 44.5q-32 0 -54.5 -12.5t-36.5 -34
t-20.5 -51.5t-6.5 -66q0 -71 33 -112.5t90 -41.5z" />
    <glyph glyph-name="c" unicode="c" horiz-adv-x="528" 
d="M282 -15q-61 0 -109.5 21t-82.5 57.5t-52.5 86t-18.5 106.5t18 106.5t51.5 86t80.5 57.5t106 21q50 0 90 -14t69.5 -38.5t48 -59t25.5 -76.5h-133q-7 34 -31.5 56.5t-62.5 22.5q-62 0 -93 -43.5t-31 -118.5q0 -73 29.5 -117.5t92.5 -44.5q42 0 69 21.5t34 65.5h131
q-3 -41 -20.5 -76.5t-47 -62t-71 -42t-92.5 -15.5z" />
    <glyph glyph-name="d" unicode="d" horiz-adv-x="566" 
d="M236 -15q-48 0 -88 19t-68.5 54t-44.5 85.5t-16 112.5q0 60 16 110t45.5 85.5t69.5 55.5t88 20q54 0 89 -22t56 -54h3v264h136v-715h-131v67h-2q-23 -37 -61 -59.5t-92 -22.5zM266 99q61 0 92 41.5t31 112.5q0 37 -6.5 67t-20.5 51.5t-36.5 33.5t-55.5 12
q-56 0 -84.5 -45t-28.5 -116q0 -75 28 -116t81 -41z" />
    <glyph glyph-name="e" unicode="e" horiz-adv-x="544" 
d="M285 -15q-64 0 -113.5 21t-83.5 57.5t-51.5 86.5t-17.5 107t18.5 106.5t52 85.5t80 57t102.5 21q62 0 109 -22.5t79 -63.5t48.5 -97.5t16.5 -125.5h-372q8 -60 40.5 -94t90.5 -34q40 0 64 17t35 46h134q-7 -34 -25.5 -64.5t-48 -53.5t-69.5 -36.5t-89 -13.5zM274 422
q-54 0 -82 -29.5t-37 -80.5h228q-3 49 -32.5 79.5t-76.5 30.5z" />
    <glyph glyph-name="f" unicode="f" horiz-adv-x="330" 
d="M14 513h70v46q0 47 17 79t47.5 50.5t72.5 24.5t91 1v-105q-48 2 -70 -8t-22 -50v-38h92v-94h-92v-419h-136v419h-70v94z" />
    <glyph glyph-name="g" unicode="g" horiz-adv-x="560" 
d="M270 -175q-106 0 -167.5 42.5t-72.5 117.5h135q8 -24 31.5 -40.5t71.5 -16.5q114 0 114 107v56h-3q-23 -26 -54 -43t-80 -17q-43 0 -83.5 16.5t-72 48t-51 77t-19.5 103.5q0 57 16.5 103.5t46 79.5t70 50.5t89.5 17.5q48 0 83.5 -18t58.5 -50h2v54h131v-474
q0 -54 -16 -92t-45 -64q-32 -30 -80 -44t-105 -14zM268 140q32 0 55 11t37.5 30t21.5 44t7 54q0 28 -7.5 53.5t-22.5 44.5t-38 30t-54 11q-52 0 -83.5 -37.5t-31.5 -102.5q0 -66 31.5 -102t84.5 -36z" />
    <glyph glyph-name="h" unicode="h" horiz-adv-x="549" 
d="M180 446h3q28 41 62 61t87 20q40 0 72.5 -14.5t55.5 -40t36 -60.5t13 -77v-335h-136v315q0 42 -23 68t-66 26q-45 0 -74.5 -32.5t-29.5 -85.5v-291h-136v715h136v-269z" />
    <glyph glyph-name="i" unicode="i" horiz-adv-x="224" 
d="M44 513h136v-513h-136v513zM44 715h136v-122h-136v122z" />
    <glyph glyph-name="j" unicode="j" horiz-adv-x="224" 
d="M36 -169q-19 0 -40 1.5t-37 4.5v97q21 0 36.5 2t26.5 7.5t16.5 15.5t5.5 28v526h136v-533q0 -45 -8.5 -70t-25.5 -42q-20 -20 -48.5 -28.5t-61.5 -8.5zM44 715h136v-122h-136v122z" />
    <glyph glyph-name="k" unicode="k" horiz-adv-x="546" 
d="M238 234l-59 -61v-173h-135v715h135v-396l182 194h163l-189 -195l212 -318h-165z" />
    <glyph glyph-name="l" unicode="l" horiz-adv-x="228" 
d="M46 715h136v-715h-136v715z" />
    <glyph glyph-name="m" unicode="m" horiz-adv-x="834" 
d="M44 513h131v-69h3q21 35 58 59t91 24q49 0 86 -24.5t56 -65.5h2q26 42 65.5 66t88.5 24q81 0 125 -48.5t44 -133.5v-345h-136v322q0 44 -20.5 66t-58.5 22q-43 0 -67.5 -30.5t-24.5 -81.5v-298h-136v322q0 44 -20.5 66t-58.5 22q-42 0 -67 -30.5t-25 -81.5v-298h-136v513
z" />
    <glyph glyph-name="n" unicode="n" horiz-adv-x="549" 
d="M177 443h3q26 42 62.5 63t89.5 21q40 0 72.5 -14.5t55.5 -40t36 -60.5t13 -77v-335h-136v315q0 42 -23 68t-66 26q-45 0 -74.5 -32.5t-29.5 -85.5v-291h-136v513h133v-70z" />
    <glyph glyph-name="o" unicode="o" horiz-adv-x="574" 
d="M287 -15q-60 0 -109 21t-84.5 57.5t-55 86t-19.5 106.5t19.5 106.5t55 86t84.5 57.5t109 21t109 -21t84.5 -57.5t55 -86t19.5 -106.5t-19.5 -106.5t-55 -86t-84.5 -57.5t-109 -21zM287 89q63 0 96.5 46t33.5 121t-33.5 121.5t-96.5 46.5t-96.5 -46.5t-33.5 -121.5
t33.5 -121t96.5 -46z" />
    <glyph glyph-name="p" unicode="p" horiz-adv-x="571" 
d="M44 513h131v-64h3q25 34 61.5 56t89.5 22q51 0 92 -20t70.5 -55.5t45 -85.5t15.5 -110q0 -62 -16 -112.5t-45.5 -85.5t-70.5 -54t-90 -19q-54 0 -90 20t-58 53h-2v-226h-136v681zM301 98q52 0 82.5 40.5t30.5 113.5t-27.5 119t-90.5 46q-32 0 -54.5 -13t-37 -35
t-21 -52.5t-6.5 -64.5q0 -70 31.5 -112t92.5 -42z" />
    <glyph glyph-name="q" unicode="q" horiz-adv-x="571" 
d="M391 58h-2q-19 -31 -53.5 -52t-86.5 -21q-47 0 -87.5 19t-70.5 54t-47 85.5t-17 112.5q0 60 15.5 110t44.5 85.5t70 55.5t92 20q53 0 87 -20.5t57 -57.5h3v64h131v-681h-136v226zM278 101q54 0 85 40.5t31 110.5q0 35 -6.5 65.5t-20.5 53t-35.5 35.5t-52.5 13
q-32 0 -53.5 -12.5t-35 -34.5t-19.5 -53t-6 -67q0 -73 29.5 -112t83.5 -39z" />
    <glyph glyph-name="r" unicode="r" horiz-adv-x="351" 
d="M175 431h3q23 44 52 66t74 22q21 0 32 -4v-119h-3q-67 7 -110 -29t-43 -117v-250h-136v513h131v-82z" />
    <glyph glyph-name="s" unicode="s" horiz-adv-x="485" 
d="M252 -15q-112 0 -173 49.5t-67 131.5h126q7 -45 36.5 -65t75.5 -20q45 0 69.5 16t24.5 43q0 18 -11.5 29t-30 18t-43 11.5t-50.5 9.5q-35 7 -67.5 16t-58 26t-41 44t-15.5 69t16 72.5t44.5 51t66.5 30.5t82 10q102 0 157 -46t63 -124h-123q-5 42 -30 58.5t-69 16.5
q-40 0 -64 -14.5t-24 -42.5q0 -17 12 -26.5t31.5 -16t45 -10.5t52.5 -10q32 -7 64.5 -16t58.5 -26.5t42 -46t16 -73.5q0 -39 -16 -69.5t-44.5 -51.5t-68 -32.5t-87.5 -11.5z" />
    <glyph glyph-name="t" unicode="t" horiz-adv-x="332" 
d="M14 513h71v160h133v-160h88v-90h-88v-272q0 -29 14 -40t37 -11h26q7 0 14 1v-100q-10 -1 -22 -1q-11 -1 -27 -1h-36q-25 0 -49.5 5.5t-44.5 19.5t-32.5 38t-12.5 60v301h-71v90z" />
    <glyph glyph-name="u" unicode="u" horiz-adv-x="543" 
d="M368 0v60h-3q-26 -35 -59.5 -54.5t-87.5 -19.5q-86 0 -132 50t-46 135v342h135v-319q0 -45 20.5 -69t64.5 -24q48 0 75.5 32.5t27.5 83.5v296h136v-513h-131z" />
    <glyph glyph-name="v" unicode="v" horiz-adv-x="491" 
d="M2 513h138l82 -266q5 -19 9.5 -33.5t7.5 -25.5q4 -12 6 -23h2q1 11 5 23q3 11 7 25.5t10 33.5l84 266h136l-179 -513h-130z" />
    <glyph glyph-name="w" unicode="w" horiz-adv-x="745" 
d="M4 513h135l62 -238q4 -16 8.5 -33t7.5 -31q4 -17 7 -32h2q3 16 7 33q3 14 6.5 31t8.5 33l64 237h116l67 -237l8 -34t8 -31q4 -17 8 -32h2q3 15 7 32q6 30 16 64l65 238h132l-153 -513h-124l-68 252q-5 15 -9 31t-7 29q-4 15 -7 29h-2q-4 -14 -8 -29q-4 -13 -8 -29t-8 -31
l-70 -252h-123z" />
    <glyph glyph-name="x" unicode="x" horiz-adv-x="535" 
d="M195 272l-167 241h155l91 -147h2l86 147h141l-159 -240l183 -273h-162l-95 170h-2l-111 -170h-149z" />
    <glyph glyph-name="y" unicode="y" horiz-adv-x="497" 
d="M55 -61h48q41 0 58.5 19t17.5 51q0 10 -2 22.5t-6.5 28.5t-12 37.5t-18.5 50.5l-138 365h143l76 -231q6 -18 11.5 -37.5t10.5 -36.5q5 -19 11 -38h2q4 19 9 38q4 17 9.5 36.5t11.5 37.5l72 231h137l-179 -526q-15 -43 -30.5 -72.5t-36 -48t-48 -26.5t-66.5 -8h-80v107z
" />
    <glyph glyph-name="z" unicode="z" horiz-adv-x="485" 
d="M27 104l264 299v3h-234v107h392v-109l-258 -292v-3h271v-109h-435v104z" />
    <glyph glyph-name="braceleft" unicode="{" horiz-adv-x="382" 
d="M318 -131q-52 0 -91 8.5t-65.5 30t-40 57t-13.5 89.5v132q0 38 -18 56.5t-65 20.5v100q47 2 65 20.5t18 56.5v130q0 54 13.5 89.5t40 56.5t65.5 29.5t91 8.5h32v-106h-27q-42 0 -63 -14.5t-21 -63.5v-152q0 -46 -14.5 -69t-45.5 -34v-3q31 -12 45.5 -34.5t14.5 -68.5
v-155q0 -48 21 -63.5t63 -15.5h27v-106h-32v0z" />
    <glyph glyph-name="bar" unicode="|" horiz-adv-x="210" 
d="M64 754h83v-885h-83v885z" />
    <glyph glyph-name="braceright" unicode="}" horiz-adv-x="382" 
d="M32 -25h27q42 0 63 14.5t21 63.5v155q0 46 14.5 69t45.5 34v3q-31 12 -45.5 34.5t-14.5 68.5v152q0 48 -21 63.5t-63 15.5h-27v106h32q52 0 91 -8.5t65.5 -30t40 -57t13.5 -89.5v-129q0 -38 18 -56.5t65 -20.5v-100q-47 -2 -65 -20.5t-18 -56.5v-133q0 -54 -13.5 -89.5
t-40 -56.5t-65.5 -29.5t-91 -8.5h-32v106z" />
    <glyph glyph-name="asciitilde" unicode="~" horiz-adv-x="426" 
d="M32 250q1 82 33.5 119t80.5 37q21 0 40.5 -6t36.5 -12.5t32 -12.5t28 -6q18 0 25.5 8t9.5 28h90q-1 -72 -27.5 -112t-81.5 -40q-21 0 -41.5 5.5t-39 12.5t-34 12.5t-27.5 5.5q-16 0 -24.5 -8.5t-10.5 -30.5h-90v0z" />
    <glyph glyph-name="uni00A0" unicode="&#xa0;" horiz-adv-x="168" 
 />
    <glyph glyph-name="exclamdown" unicode="&#xa1;" horiz-adv-x="254" 
d="M56 31l38 348h66l38 -348v-158h-142v158zM54 588h146v-145h-146v145z" />
    <glyph glyph-name="cent" unicode="&#xa2;" horiz-adv-x="525" 
d="M248 -13q-53 6 -95.5 28.5t-72 58.5t-45.5 82.5t-16 99.5q0 54 16 101t45.5 82.5t72 58t95.5 27.5v68h60v-68q85 -9 136 -59.5t64 -126.5h-133q-6 27 -23.5 47t-43.5 28v-317q29 7 48.5 28t25.5 56h131q-3 -38 -18.5 -72t-42 -60t-63 -42.5t-81.5 -20.5v-86h-60v87z
M157 256q0 -63 22 -105.5t69 -53.5v317q-45 -11 -68 -53t-23 -105z" />
    <glyph glyph-name="sterling" unicode="&#xa3;" horiz-adv-x="579" 
d="M31 377h45q-13 25 -22 52.5t-9 62.5q0 44 16.5 82t49 65.5t79.5 43.5t109 16q55 0 100.5 -14t80.5 -44t54 -74.5t21 -112.5h-136q-1 72 -34.5 103t-84.5 31q-54 0 -81.5 -27.5t-27.5 -72.5q0 -30 11 -57t24 -54h147v-87h-117q1 -7 1.5 -13.5t0.5 -13.5q0 -42 -21.5 -76
t-57.5 -61l2 -2q17 6 35.5 12t41.5 6q27 0 46 -4.5t34.5 -10.5t31 -10.5t36.5 -4.5q29 0 54.5 13.5t43.5 29.5l62 -107q-30 -26 -71.5 -44t-87.5 -18q-36 0 -62.5 7.5t-49 16t-45 16t-51.5 7.5q-30 0 -54.5 -13t-47.5 -28l-70 104q41 27 68.5 62.5t27.5 83.5q0 13 -2 25
t-5 23h-85v87z" />
    <glyph glyph-name="currency" unicode="&#xa4;" horiz-adv-x="512" 
d="M256 146q-53 0 -92 19l-66 -67l-84 82l64 64q-25 47 -25 105q0 57 25 104l-64 66l84 82l65 -68q42 20 93 20q50 0 92 -20l66 68l84 -82l-66 -66q26 -46 26 -104q0 -57 -25 -104l65 -65l-84 -82l-66 67q-43 -19 -92 -19zM256 238q42 0 64 30t22 81t-22 81.5t-64 30.5
q-43 0 -66 -30.5t-23 -81.5t23 -81t66 -30z" />
    <glyph glyph-name="yen" unicode="&#xa5;" horiz-adv-x="618" 
d="M68 322h147l-211 364h156l108 -202q7 -14 14.5 -28.5t13.5 -27.5q7 -15 13 -29h2q6 14 13 29q12 26 28 56l107 202h152l-212 -364h150v-59h-174v-63h174v-59h-174v-141h-133v141h-174v59h174v63h-174v59z" />
    <glyph glyph-name="brokenbar" unicode="&#xa6;" horiz-adv-x="210" 
d="M64 261h83v-392h-83v392zM64 754h83v-379h-83v379z" />
    <glyph glyph-name="section" unicode="&#xa7;" horiz-adv-x="591" 
d="M306 -171q-60 0 -105.5 16.5t-76 44.5t-46.5 66t-17 80h132q2 -48 31 -74t74 -26q38 0 60 18.5t22 44.5q0 18 -9 30t-28 22.5t-47.5 21.5t-67.5 27q-50 20 -88 40t-64 43t-39 51t-13 65q0 45 30 80t90 52q-29 20 -44.5 46t-15.5 69q0 36 15.5 64.5t43.5 48t65.5 30
t82.5 10.5q102 0 156.5 -49t60.5 -127h-123q-5 35 -27.5 54.5t-62.5 19.5q-39 0 -57.5 -14t-18.5 -37q0 -14 8 -24t25 -19.5t42 -19.5l60 -24q42 -17 80 -33t67.5 -37.5t47 -50.5t17.5 -71q0 -55 -29 -87.5t-83 -49.5q27 -17 48.5 -49t21.5 -83q0 -41 -16.5 -72.5t-45.5 -53
t-69 -32.5t-87 -11zM302 339q-25 10 -48.5 19t-40.5 17q-29 -8 -42.5 -24t-13.5 -36q0 -14 6 -24t21 -20t39.5 -21.5t62.5 -28.5q17 -8 40.5 -19t46.5 -21q29 8 45.5 25t16.5 37q0 16 -11 29t-29 24.5t-42 21.5t-51 21z" />
    <glyph glyph-name="dieresis" unicode="&#xa8;" horiz-adv-x="500" 
d="M297 695h128v-114h-128v114zM74 695h128v-114h-128v114z" />
    <glyph glyph-name="copyright" unicode="&#xa9;" horiz-adv-x="815" 
d="M408 -17q-77 0 -144.5 28t-117 77.5t-78 118t-28.5 148.5t28.5 148.5t78 118.5t117 78t144.5 28t144 -28t116.5 -78t78 -118.5t28.5 -148.5t-28.5 -148.5t-78 -118t-116.5 -77.5t-144 -28zM408 32q66 0 122.5 24.5t98 67.5t65 102.5t23.5 128.5t-23.5 128.5t-65 102.5
t-98 67.5t-122.5 24.5t-123 -24.5t-98.5 -67.5t-65 -102.5t-23.5 -128.5t23.5 -128.5t65 -102.5t98.5 -67.5t123 -24.5zM411 133q-48 0 -87.5 17t-67.5 47t-43.5 71t-15.5 90t15 90.5t43 72t68 47.5t89 17q41 0 74.5 -12t57.5 -33t38.5 -50t18.5 -63h-108q-5 28 -26 46.5
t-56 18.5q-51 0 -76 -38.5t-25 -95.5q0 -58 27.5 -95.5t74.5 -37.5q38 0 59.5 21.5t25.5 51.5h108q-2 -34 -16 -64t-37 -52q-50 -49 -141 -49z" />
    <glyph glyph-name="ordfeminine" unicode="&#xaa;" horiz-adv-x="497" 
d="M337 236q-5 7 -9 21t-6 29h-2q-17 -24 -46.5 -42t-83.5 -18q-34 0 -63 9t-50.5 27t-34 44t-12.5 60q0 37 14 62t38.5 41.5t58.5 26t74 14.5q56 7 80.5 16.5t24.5 33.5q0 23 -17.5 37t-53.5 14q-42 0 -61.5 -16t-22.5 -45h-114q1 30 14 57t37 47.5t60.5 32.5t86.5 12
q102 0 148.5 -43.5t46.5 -122.5v-230q0 -51 15 -61v-6h-122zM220 312q50 0 76.5 25.5t26.5 57.5v68q-16 -9 -36.5 -15t-43.5 -11q-45 -10 -67 -24.5t-22 -43.5t18.5 -43t47.5 -14z" />
    <glyph glyph-name="guillemotleft" unicode="&#xab;" horiz-adv-x="447" 
d="M244 192v132l144 133v-128l-80 -71v-2l80 -71v-126zM54 192v132l144 133v-128l-80 -71v-2l80 -71v-126z" />
    <glyph glyph-name="logicalnot" unicode="&#xac;" horiz-adv-x="513" 
d="M35 418h423v-273h-104v173h-319v100z" />
    <glyph glyph-name="uni00AD" unicode="&#xad;" horiz-adv-x="339" 
d="M34 306h271v-117h-271v117z" />
    <glyph glyph-name="registered" unicode="&#xae;" horiz-adv-x="530" 
d="M265 244q-50 0 -94 18.5t-76 50.5t-50.5 76.5t-18.5 96.5t18.5 96.5t50.5 76.5t76 50.5t94 18.5t93.5 -18.5t76 -50.5t51 -76.5t18.5 -96.5t-18.5 -96.5t-51 -76.5t-76 -50.5t-93.5 -18.5zM265 281q42 0 78 15.5t62 43t40.5 65t14.5 81.5t-14.5 81.5t-40.5 64.5t-62 42.5
t-78 15.5t-77.5 -15.5t-62 -42.5t-41 -64.5t-14.5 -81.5t14.5 -81.5t41 -65t62 -43t77.5 -15.5zM163 616h124q38 0 65 -19.5t27 -55.5q0 -46 -44 -61v-2q18 -5 26 -16.5t12 -29.5q5 -24 4.5 -43.5t7.5 -23.5v-5h-68q-5 3 -7 21.5t-4 37.5q-3 34 -40 34h-34v-93h-69v256z
M232 503h43q36 0 36 29t-36 29h-43v-58z" />
    <glyph glyph-name="macron" unicode="&#xaf;" horiz-adv-x="500" 
d="M113 689h284v-97h-284v97z" />
    <glyph glyph-name="degree" unicode="&#xb0;" horiz-adv-x="356" 
d="M178 418q-30 0 -56.5 11t-46.5 29.5t-31.5 44t-11.5 55.5t11.5 55.5t31.5 45t46.5 30.5t56.5 11t56.5 -11t46.5 -30.5t31.5 -45t11.5 -55.5t-11.5 -55.5t-31.5 -44t-46.5 -29.5t-56.5 -11zM178 481q34 0 54 22.5t20 54.5t-20 55.5t-54 23.5t-53.5 -23.5t-19.5 -55.5
t19.5 -54.5t53.5 -22.5z" />
    <glyph glyph-name="plusminus" unicode="&#xb1;" horiz-adv-x="569" 
d="M35 418h197v163h104v-163h198v-100h-198v-163h-104v163h-197v100zM35 100h499v-100h-499v100z" />
    <glyph glyph-name="uni00B2" unicode="&#xb2;" horiz-adv-x="372" 
d="M26 318q1 59 29 97t67 65q25 18 46.5 31t37.5 25t24.5 25t8.5 31q0 22 -12 35.5t-37 13.5q-28 0 -44.5 -19t-16.5 -54h-97q0 75 43 115t118 40q36 0 64 -10t46.5 -27.5t28.5 -40.5t10 -49q0 -45 -22.5 -71.5t-52.5 -48.5q-29 -21 -59 -38.5t-45 -37.5h181v-82h-318v0z
" />
    <glyph glyph-name="uni00B3" unicode="&#xb3;" horiz-adv-x="374" 
d="M188 309q-87 0 -127.5 39.5t-41.5 104.5h103q1 -30 15 -49t49 -19q29 0 43 14.5t14 37.5q0 51 -63 51h-24v72h21q57 0 57 45q0 20 -11.5 31.5t-35.5 11.5q-30 0 -42 -16.5t-14 -40.5h-100q2 57 43 94.5t116 37.5q66 0 107.5 -29.5t41.5 -82.5q0 -30 -17.5 -48.5
t-43.5 -29.5v-2q32 -11 53 -34.5t21 -63.5q0 -32 -13 -55.5t-35.5 -38.5t-52.5 -22.5t-63 -7.5z" />
    <glyph glyph-name="acute" unicode="&#xb4;" horiz-adv-x="500" 
d="M289 577h-106l55 141h159z" />
    <glyph glyph-name="uni00B5" unicode="&#xb5;" horiz-adv-x="547" 
d="M44 513h135v-319q0 -45 20.5 -69t64.5 -24q48 0 75.5 32.5t27.5 83.5v296h136v-513h-131v60h-3q-25 -35 -56 -54.5t-73 -19.5q-22 0 -35 4.5t-23 11.5h-3v-170h-135v681z" />
    <glyph glyph-name="paragraph" unicode="&#xb6;" horiz-adv-x="578" 
d="M221 341q-91 0 -142.5 51t-51.5 135q0 42 14.5 77t41.5 61q52 50 149 50h291v-715h-90v634h-69v-634h-90v341h-53z" />
    <glyph glyph-name="periodcentered" unicode="&#xb7;" horiz-adv-x="218" 
d="M36 388h146v-145h-146v145z" />
    <glyph glyph-name="cedilla" unicode="&#xb8;" horiz-adv-x="500" 
d="M223 -192q-34 0 -60 8t-46 21l18 32q15 -7 33.5 -11t36.5 -4q23 0 40 7.5t17 23.5q0 14 -12 21.5t-29 7.5q-11 0 -20 -2t-17 -5l-16 22l71 71h59l-60 -50v-2q20 3 39 1t34 -10t24 -21.5t9 -33.5q0 -36 -35 -56t-86 -20z" />
    <glyph glyph-name="uni00B9" unicode="&#xb9;" horiz-adv-x="267" 
d="M113 567h-91v71q43 2 72.5 21t37.5 59h85v-400h-104v249z" />
    <glyph glyph-name="ordmasculine" unicode="&#xba;" horiz-adv-x="523" 
d="M262 222q-54 0 -97.5 18.5t-75 50.5t-48.5 75.5t-17 93.5q0 51 17 94.5t48.5 75.5t75 50.5t97.5 18.5q53 0 97 -18.5t75 -50.5t48 -75.5t17 -94.5q0 -50 -17 -93.5t-48 -75.5t-75 -50.5t-97 -18.5zM262 317q54 0 81 40t27 103t-27 103.5t-81 40.5t-81.5 -40.5
t-27.5 -103.5t27.5 -103t81.5 -40z" />
    <glyph glyph-name="guillemotright" unicode="&#xbb;" horiz-adv-x="447" 
d="M203 324v-132l-144 -133v128l80 71v2l-80 71v126zM393 324v-132l-144 -133v128l80 71v2l-80 71v126z" />
    <glyph glyph-name="onequarter" unicode="&#xbc;" horiz-adv-x="821" 
d="M116 567h-91v71q43 2 72.5 21t37.5 59h85v-400h-104v249zM601 715h90l-497 -715h-89zM634 84h-189v91l188 227h103v-242h59v-76h-59v-84h-102v84zM524 160h110v133h-1l-109 -132v-1z" />
    <glyph glyph-name="onehalf" unicode="&#xbd;" horiz-adv-x="827" 
d="M116 567h-91v71q43 2 72.5 21t37.5 59h85v-400h-104v249zM584 715h90l-497 -715h-89zM478 0q1 59 29 97t67 65q25 18 46.5 31t37.5 25t24.5 25t8.5 31q0 22 -12 35.5t-37 13.5q-28 0 -44.5 -19t-16.5 -54h-97q0 75 43 115t118 40q36 0 64 -10t46.5 -27.5t28.5 -40.5
t10 -49q0 -45 -21 -72.5t-51 -49.5q-29 -21 -59.5 -38t-45.5 -36h179v-82h-318z" />
    <glyph glyph-name="threequarters" unicode="&#xbe;" horiz-adv-x="864" 
d="M191 309q-87 0 -127.5 39.5t-41.5 104.5h103q1 -30 15 -49t49 -19q29 0 43 14.5t14 37.5q0 51 -63 51h-24v72h21q57 0 57 45q0 20 -11.5 31.5t-35.5 11.5q-30 0 -42 -16.5t-14 -40.5h-100q2 57 43 94.5t116 37.5q66 0 107.5 -29.5t41.5 -82.5q0 -30 -17.5 -48.5
t-43.5 -29.5v-2q32 -11 53 -34.5t21 -63.5q0 -32 -13 -55.5t-35.5 -38.5t-52.5 -22.5t-63 -7.5zM665 715h90l-497 -715h-89zM677 84h-189v91l188 227h103v-242h59v-76h-59v-84h-102v84zM567 160h110v133h-1l-109 -132v-1z" />
    <glyph glyph-name="questiondown" unicode="&#xbf;" horiz-adv-x="525" 
d="M259 -140q-57 0 -102.5 16t-76.5 44t-47.5 66.5t-16.5 82.5q0 37 9 64t22.5 47t30.5 34.5t33 26.5q28 21 48 35.5t32.5 28.5t18 30.5t5.5 43.5h122q0 -44 -7.5 -73t-21.5 -49.5t-33 -36t-42 -31.5q-16 -12 -30.5 -23t-26 -24t-18 -29.5t-6.5 -39.5q0 -46 30 -72t76 -26
q56 0 90 33t35 92h129q-1 -50 -18 -93.5t-48.5 -76t-78.5 -51.5t-108 -19zM203 588h146v-145h-146v145z" />
    <glyph glyph-name="Agrave" unicode="&#xc0;" horiz-adv-x="659" 
d="M252 715h150l252 -715h-151l-48 152h-258l-47 -152h-147zM231 263h189l-64 206q-5 14 -9.5 33t-9.5 36q-5 20 -10 41h-2q-6 -21 -11 -41q-5 -17 -9.5 -36t-9.5 -33zM184 878h159l42 -125h-106z" />
    <glyph glyph-name="Aacute" unicode="&#xc1;" horiz-adv-x="659" 
d="M252 715h150l252 -715h-151l-48 152h-258l-47 -152h-147zM231 263h189l-64 206q-5 14 -9.5 33t-9.5 36q-5 20 -10 41h-2q-6 -21 -11 -41q-5 -17 -9.5 -36t-9.5 -33zM379 753h-106l42 125h159z" />
    <glyph glyph-name="Acircumflex" unicode="&#xc2;" horiz-adv-x="659" 
d="M252 715h150l252 -715h-151l-48 152h-258l-47 -152h-147zM231 263h189l-64 206q-5 14 -9.5 33t-9.5 36q-5 20 -10 41h-2q-6 -21 -11 -41q-5 -17 -9.5 -36t-9.5 -33zM253 867h146l96 -114h-118l-48 57h-2l-49 -57h-119z" />
    <glyph glyph-name="Atilde" unicode="&#xc3;" horiz-adv-x="659" 
d="M252 715h150l252 -715h-151l-48 152h-258l-47 -152h-147zM231 263h189l-64 206q-5 14 -9.5 33t-9.5 36q-5 20 -10 41h-2q-6 -21 -11 -41q-5 -17 -9.5 -36t-9.5 -33zM385 755q-18 0 -33.5 5t-29 11.5t-25 11.5t-21.5 5q-22 0 -27 -31h-72q0 59 26 88.5t64 29.5
q18 0 33.5 -5.5t29 -12t25 -12t21.5 -5.5q14 0 20 8.5t9 22.5h72q0 -51 -24 -83.5t-68 -32.5z" />
    <glyph glyph-name="Adieresis" unicode="&#xc4;" horiz-adv-x="659" 
d="M252 715h150l252 -715h-151l-48 152h-258l-47 -152h-147zM231 263h189l-64 206q-5 14 -9.5 33t-9.5 36q-5 20 -10 41h-2q-6 -21 -11 -41q-5 -17 -9.5 -36t-9.5 -33zM365 867h128v-114h-128v114zM162 867h128v-114h-128v114z" />
    <glyph glyph-name="Aring" unicode="&#xc5;" horiz-adv-x="659" 
d="M252 715h150l252 -715h-151l-48 152h-258l-47 -152h-147zM231 263h189l-64 206q-5 14 -9.5 33t-9.5 36q-5 20 -10 41h-2q-6 -21 -11 -41q-5 -17 -9.5 -36t-9.5 -33zM327 742q-40 0 -68.5 27t-28.5 67q0 19 7.5 36.5t21 30t31 20t37.5 7.5t37.5 -7.5t31 -20t21 -30
t7.5 -36.5q0 -40 -28.5 -67t-68.5 -27zM327 789q20 0 32.5 13.5t12.5 33.5t-12.5 33.5t-32.5 13.5t-32.5 -13.5t-12.5 -33.5t12.5 -33.5t32.5 -13.5z" />
    <glyph glyph-name="AE" unicode="&#xc6;" horiz-adv-x="972" 
d="M252 715h677v-125h-354v-161h306v-117h-306v-181h365v-131h-514v152h-224l-51 -152h-147zM238 259h188v331h-77z" />
    <glyph glyph-name="Ccedilla" unicode="&#xc7;" horiz-adv-x="684" 
d="M331 -192q-34 0 -60 8t-46 21l18 32q15 -7 33.5 -11t36.5 -4q23 0 40 7.5t17 23.5q0 14 -12 21.5t-29 7.5q-11 0 -20 -2t-17 -5l-16 22l57 58q-68 6 -125 35.5t-98 78t-63.5 113.5t-22.5 141q0 79 24 147.5t68.5 119t108 79t142.5 28.5q66 0 118 -18.5t89.5 -51
t59.5 -76.5t28 -95h-144q-10 54 -49 86.5t-102 32.5q-50 0 -86.5 -19.5t-60.5 -53.5t-36 -80t-12 -99q0 -55 13.5 -101t39 -79.5t62 -52t81.5 -18.5q64 0 105.5 34.5t48.5 91.5h142q-3 -48 -23 -91.5t-56 -77.5q-35 -32 -83 -52t-114 -23l-42 -36v-2q20 3 39 1t34 -10
t24 -21.5t9 -33.5q0 -36 -35 -56t-86 -20z" />
    <glyph glyph-name="Egrave" unicode="&#xc8;" horiz-adv-x="619" 
d="M55 715h526v-122h-381v-160h334v-119h-334v-193h384v-121h-529v715zM182 878h159l42 -125h-106z" />
    <glyph glyph-name="Eacute" unicode="&#xc9;" horiz-adv-x="619" 
d="M55 715h526v-122h-381v-160h334v-119h-334v-193h384v-121h-529v715zM377 753h-106l42 125h159z" />
    <glyph glyph-name="Ecircumflex" unicode="&#xca;" horiz-adv-x="619" 
d="M55 715h526v-122h-381v-160h334v-119h-334v-193h384v-121h-529v715zM251 867h146l96 -114h-118l-48 57h-2l-49 -57h-119z" />
    <glyph glyph-name="Edieresis" unicode="&#xcb;" horiz-adv-x="619" 
d="M55 715h526v-122h-381v-160h334v-119h-334v-193h384v-121h-529v715zM363 867h128v-114h-128v114zM160 867h128v-114h-128v114z" />
    <glyph glyph-name="Igrave" unicode="&#xcc;" horiz-adv-x="257" 
d="M56 715h145v-715h-145v715zM-15 878h159l42 -125h-106z" />
    <glyph glyph-name="Iacute" unicode="&#xcd;" horiz-adv-x="257" 
d="M56 715h145v-715h-145v715zM180 753h-106l42 125h159z" />
    <glyph glyph-name="Icircumflex" unicode="&#xce;" horiz-adv-x="257" 
d="M56 715h145v-715h-145v715zM54 867h146l96 -114h-118l-48 57h-2l-49 -57h-119z" />
    <glyph glyph-name="Idieresis" unicode="&#xcf;" horiz-adv-x="257" 
d="M56 715h145v-715h-145v715zM166 867h128v-114h-128v114zM-37 867h128v-114h-128v114z" />
    <glyph glyph-name="Eth" unicode="&#xd0;" horiz-adv-x="682" 
d="M1 421h64v294h279q72 0 130 -27.5t99 -76t63 -115.5t22 -146q0 -88 -28.5 -160.5t-85.5 -120.5q-40 -33 -92 -51t-120 -18h-267v304h-64v117zM322 125q102 0 145.5 59t43.5 166q0 53 -11.5 97.5t-35 76.5t-58 49.5t-80.5 17.5h-116v-170h165v-117h-165v-179h112z" />
    <glyph glyph-name="Ntilde" unicode="&#xd1;" horiz-adv-x="686" 
d="M55 715h147l238 -399q8 -15 17 -32.5t17 -32.5q9 -18 16 -35h2q-1 21 -2 43q-1 19 -1.5 40.5t-0.5 40.5v375h143v-715h-140l-244 395q-9 14 -17.5 31.5t-16.5 32.5q-9 18 -17 35h-2l2 -44q1 -19 1.5 -40.5t0.5 -40.5v-369h-143v715zM408 755q-18 0 -33.5 5t-29 11.5
t-25 11.5t-21.5 5q-22 0 -27 -31h-72q0 59 26 88.5t64 29.5q18 0 33.5 -5.5t29 -12t25 -12t21.5 -5.5q14 0 20 8.5t9 22.5h72q0 -51 -24 -83.5t-68 -32.5z" />
    <glyph glyph-name="Ograve" unicode="&#xd2;" horiz-adv-x="737" 
d="M369 -16q-79 0 -143 28t-109 77.5t-69 118t-24 148.5t24 148.5t69 118.5t109 78t143 28t142.5 -28t108.5 -78t69 -118.5t24 -148.5t-24 -148.5t-69 -118t-108.5 -77.5t-142.5 -28zM370 103q49 0 85.5 19.5t61 53.5t36.5 80.5t12 99.5q0 54 -12 100t-36.5 80.5t-61 54
t-85.5 19.5t-86 -19.5t-62 -54t-37.5 -80.5t-12.5 -100q0 -53 12.5 -99.5t37.5 -80.5t62 -53.5t86 -19.5zM225 878h159l42 -125h-106z" />
    <glyph glyph-name="Oacute" unicode="&#xd3;" horiz-adv-x="737" 
d="M369 -16q-79 0 -143 28t-109 77.5t-69 118t-24 148.5t24 148.5t69 118.5t109 78t143 28t142.5 -28t108.5 -78t69 -118.5t24 -148.5t-24 -148.5t-69 -118t-108.5 -77.5t-142.5 -28zM370 103q49 0 85.5 19.5t61 53.5t36.5 80.5t12 99.5q0 54 -12 100t-36.5 80.5t-61 54
t-85.5 19.5t-86 -19.5t-62 -54t-37.5 -80.5t-12.5 -100q0 -53 12.5 -99.5t37.5 -80.5t62 -53.5t86 -19.5zM420 753h-106l42 125h159z" />
    <glyph glyph-name="Ocircumflex" unicode="&#xd4;" horiz-adv-x="737" 
d="M369 -16q-79 0 -143 28t-109 77.5t-69 118t-24 148.5t24 148.5t69 118.5t109 78t143 28t142.5 -28t108.5 -78t69 -118.5t24 -148.5t-24 -148.5t-69 -118t-108.5 -77.5t-142.5 -28zM370 103q49 0 85.5 19.5t61 53.5t36.5 80.5t12 99.5q0 54 -12 100t-36.5 80.5t-61 54
t-85.5 19.5t-86 -19.5t-62 -54t-37.5 -80.5t-12.5 -100q0 -53 12.5 -99.5t37.5 -80.5t62 -53.5t86 -19.5zM294 867h146l96 -114h-118l-48 57h-2l-49 -57h-119z" />
    <glyph glyph-name="Otilde" unicode="&#xd5;" horiz-adv-x="737" 
d="M369 -16q-79 0 -143 28t-109 77.5t-69 118t-24 148.5t24 148.5t69 118.5t109 78t143 28t142.5 -28t108.5 -78t69 -118.5t24 -148.5t-24 -148.5t-69 -118t-108.5 -77.5t-142.5 -28zM370 103q49 0 85.5 19.5t61 53.5t36.5 80.5t12 99.5q0 54 -12 100t-36.5 80.5t-61 54
t-85.5 19.5t-86 -19.5t-62 -54t-37.5 -80.5t-12.5 -100q0 -53 12.5 -99.5t37.5 -80.5t62 -53.5t86 -19.5zM426 755q-18 0 -33.5 5t-29 11.5t-25 11.5t-21.5 5q-22 0 -27 -31h-72q0 59 26 88.5t64 29.5q18 0 33.5 -5.5t29 -12t25 -12t21.5 -5.5q14 0 20 8.5t9 22.5h72
q0 -51 -24 -83.5t-68 -32.5z" />
    <glyph glyph-name="Odieresis" unicode="&#xd6;" horiz-adv-x="737" 
d="M369 -16q-79 0 -143 28t-109 77.5t-69 118t-24 148.5t24 148.5t69 118.5t109 78t143 28t142.5 -28t108.5 -78t69 -118.5t24 -148.5t-24 -148.5t-69 -118t-108.5 -77.5t-142.5 -28zM370 103q49 0 85.5 19.5t61 53.5t36.5 80.5t12 99.5q0 54 -12 100t-36.5 80.5t-61 54
t-85.5 19.5t-86 -19.5t-62 -54t-37.5 -80.5t-12.5 -100q0 -53 12.5 -99.5t37.5 -80.5t62 -53.5t86 -19.5zM406 867h128v-114h-128v114zM203 867h128v-114h-128v114z" />
    <glyph glyph-name="multiply" unicode="&#xd7;" horiz-adv-x="568" 
d="M51 151l166 171l-166 171l70 66l163 -168l163 168l70 -66l-166 -171l166 -171l-70 -66l-163 168l-163 -168z" />
    <glyph glyph-name="Oslash" unicode="&#xd8;" horiz-adv-x="737" 
d="M30 21l74 84q-39 49 -59.5 112.5t-20.5 138.5q0 80 24 148.5t69 118.5t109 78t143 28q67 0 123 -20.5t99 -57.5l66 74l49 -42l-71 -79q38 -49 58 -112t20 -136q0 -80 -24 -148.5t-69 -118t-108.5 -77.5t-142.5 -28q-66 0 -121 19.5t-98 54.5l-71 -79zM172 356
q0 -41 7 -77t21 -67l304 341q-24 27 -57.5 42t-76.5 15q-49 0 -86 -19.5t-62 -54t-37.5 -80.5t-12.5 -100zM370 103q49 0 85.5 19.5t61 53.5t36.5 80.5t12 99.5q0 79 -26 140l-301 -339q24 -26 57 -40t75 -14z" />
    <glyph glyph-name="Ugrave" unicode="&#xd9;" horiz-adv-x="657" 
d="M331 -12q-140 0 -211 62.5t-71 179.5v485h145v-485q0 -56 30.5 -91t103.5 -35q69 0 102 36t33 92v483h145v-485q0 -115 -69.5 -178.5t-207.5 -63.5zM184 878h159l42 -125h-106z" />
    <glyph glyph-name="Uacute" unicode="&#xda;" horiz-adv-x="657" 
d="M331 -12q-140 0 -211 62.5t-71 179.5v485h145v-485q0 -56 30.5 -91t103.5 -35q69 0 102 36t33 92v483h145v-485q0 -115 -69.5 -178.5t-207.5 -63.5zM379 753h-106l42 125h159z" />
    <glyph glyph-name="Ucircumflex" unicode="&#xdb;" horiz-adv-x="657" 
d="M331 -12q-140 0 -211 62.5t-71 179.5v485h145v-485q0 -56 30.5 -91t103.5 -35q69 0 102 36t33 92v483h145v-485q0 -115 -69.5 -178.5t-207.5 -63.5zM253 867h146l96 -114h-118l-48 57h-2l-49 -57h-119z" />
    <glyph glyph-name="Udieresis" unicode="&#xdc;" horiz-adv-x="657" 
d="M331 -12q-140 0 -211 62.5t-71 179.5v485h145v-485q0 -56 30.5 -91t103.5 -35q69 0 102 36t33 92v483h145v-485q0 -115 -69.5 -178.5t-207.5 -63.5zM365 867h128v-114h-128v114zM162 867h128v-114h-128v114z" />
    <glyph glyph-name="Yacute" unicode="&#xdd;" horiz-adv-x="629" 
d="M242 276l-238 439h158l108 -212q8 -17 16.5 -34.5t15.5 -32.5q8 -18 15 -35h2q8 17 16 35q7 15 15.5 32.5t16.5 34.5l106 212h152l-238 -439v-276h-145v276zM366 753h-106l42 125h159z" />
    <glyph glyph-name="Thorn" unicode="&#xde;" horiz-adv-x="633" 
d="M55 715h150v-109h164q123 -1 187 -67q30 -31 47 -72t17 -91q0 -51 -16.5 -92.5t-47 -71t-75 -46t-100.5 -16.5h-176v-150h-150v715zM205 480v-212h150q57 0 86.5 29t29.5 78q0 51 -30 78t-84 27h-152z" />
    <glyph glyph-name="germandbls" unicode="&#xdf;" horiz-adv-x="548" 
d="M298 -9q-16 0 -32.5 1.5t-31.5 5.5v98h2q74 -9 116 23.5t42 114.5q0 66 -29.5 102t-98.5 36h-31v83h26q48 0 75.5 21.5t27.5 66.5q0 38 -21.5 61.5t-63.5 23.5q-47 0 -73 -26.5t-26 -79.5v-522h-136v524q0 46 16 84t46.5 65t74 41.5t97.5 14.5q49 0 88.5 -12.5
t67.5 -36.5t43.5 -57.5t15.5 -75.5q0 -47 -24 -78t-68 -48v-3q66 -20 97 -71t31 -117q0 -60 -17.5 -105t-48.5 -74.5t-73.5 -44.5t-91.5 -15z" />
    <glyph glyph-name="agrave" unicode="&#xe0;" horiz-adv-x="522" 
d="M367 0q-6 8 -10 24t-6 33h-2q-10 -15 -22.5 -27.5t-30 -21.5t-41.5 -14.5t-57 -5.5q-79 0 -129 40t-50 117q0 42 16 71t44 48t65.5 29.5t80.5 16.5q64 9 94 19t30 39q0 28 -21.5 44.5t-64.5 16.5q-48 0 -72 -17.5t-27 -54.5h-121q1 34 15 64.5t41 53.5t68 37t97 14
q115 0 165.5 -49.5t50.5 -139.5v-261q0 -58 18 -71v-5h-131zM231 83q29 0 51.5 8.5t38 22t23.5 31t8 36.5v77q-18 -11 -43.5 -17.5t-51.5 -12.5q-54 -12 -80 -28t-26 -52t22 -50.5t58 -14.5zM109 718h159l55 -141h-106z" />
    <glyph glyph-name="aacute" unicode="&#xe1;" horiz-adv-x="522" 
d="M367 0q-6 8 -10 24t-6 33h-2q-10 -15 -22.5 -27.5t-30 -21.5t-41.5 -14.5t-57 -5.5q-79 0 -129 40t-50 117q0 42 16 71t44 48t65.5 29.5t80.5 16.5q64 9 94 19t30 39q0 28 -21.5 44.5t-64.5 16.5q-48 0 -72 -17.5t-27 -54.5h-121q1 34 15 64.5t41 53.5t68 37t97 14
q115 0 165.5 -49.5t50.5 -139.5v-261q0 -58 18 -71v-5h-131zM231 83q29 0 51.5 8.5t38 22t23.5 31t8 36.5v77q-18 -11 -43.5 -17.5t-51.5 -12.5q-54 -12 -80 -28t-26 -52t22 -50.5t58 -14.5zM317 577h-106l55 141h159z" />
    <glyph glyph-name="acircumflex" unicode="&#xe2;" horiz-adv-x="522" 
d="M367 0q-6 8 -10 24t-6 33h-2q-10 -15 -22.5 -27.5t-30 -21.5t-41.5 -14.5t-57 -5.5q-79 0 -129 40t-50 117q0 42 16 71t44 48t65.5 29.5t80.5 16.5q64 9 94 19t30 39q0 28 -21.5 44.5t-64.5 16.5q-48 0 -72 -17.5t-27 -54.5h-121q1 34 15 64.5t41 53.5t68 37t97 14
q115 0 165.5 -49.5t50.5 -139.5v-261q0 -58 18 -71v-5h-131zM231 83q29 0 51.5 8.5t38 22t23.5 31t8 36.5v77q-18 -11 -43.5 -17.5t-51.5 -12.5q-54 -12 -80 -28t-26 -52t22 -50.5t58 -14.5zM191 707h146l96 -126h-118l-48 69h-2l-49 -69h-119z" />
    <glyph glyph-name="atilde" unicode="&#xe3;" horiz-adv-x="522" 
d="M367 0q-6 8 -10 24t-6 33h-2q-10 -15 -22.5 -27.5t-30 -21.5t-41.5 -14.5t-57 -5.5q-79 0 -129 40t-50 117q0 42 16 71t44 48t65.5 29.5t80.5 16.5q64 9 94 19t30 39q0 28 -21.5 44.5t-64.5 16.5q-48 0 -72 -17.5t-27 -54.5h-121q1 34 15 64.5t41 53.5t68 37t97 14
q115 0 165.5 -49.5t50.5 -139.5v-261q0 -58 18 -71v-5h-131zM231 83q29 0 51.5 8.5t38 22t23.5 31t8 36.5v77q-18 -11 -43.5 -17.5t-51.5 -12.5q-54 -12 -80 -28t-26 -52t22 -50.5t58 -14.5zM323 575q-18 0 -33.5 5t-29 11.5t-25 11.5t-21.5 5q-22 0 -27 -31h-72
q0 59 26 88.5t64 29.5q18 0 33.5 -5.5t29 -12t25 -12t21.5 -5.5q14 0 20 8.5t9 22.5h72q0 -51 -24 -83.5t-68 -32.5z" />
    <glyph glyph-name="adieresis" unicode="&#xe4;" horiz-adv-x="522" 
d="M367 0q-6 8 -10 24t-6 33h-2q-10 -15 -22.5 -27.5t-30 -21.5t-41.5 -14.5t-57 -5.5q-79 0 -129 40t-50 117q0 42 16 71t44 48t65.5 29.5t80.5 16.5q64 9 94 19t30 39q0 28 -21.5 44.5t-64.5 16.5q-48 0 -72 -17.5t-27 -54.5h-121q1 34 15 64.5t41 53.5t68 37t97 14
q115 0 165.5 -49.5t50.5 -139.5v-261q0 -58 18 -71v-5h-131zM231 83q29 0 51.5 8.5t38 22t23.5 31t8 36.5v77q-18 -11 -43.5 -17.5t-51.5 -12.5q-54 -12 -80 -28t-26 -52t22 -50.5t58 -14.5zM313 695h128v-114h-128v114zM90 695h128v-114h-128v114z" />
    <glyph glyph-name="aring" unicode="&#xe5;" horiz-adv-x="522" 
d="M367 0q-6 8 -10 24t-6 33h-2q-10 -15 -22.5 -27.5t-30 -21.5t-41.5 -14.5t-57 -5.5q-79 0 -129 40t-50 117q0 42 16 71t44 48t65.5 29.5t80.5 16.5q64 9 94 19t30 39q0 28 -21.5 44.5t-64.5 16.5q-48 0 -72 -17.5t-27 -54.5h-121q1 34 15 64.5t41 53.5t68 37t97 14
q115 0 165.5 -49.5t50.5 -139.5v-261q0 -58 18 -71v-5h-131zM231 83q29 0 51.5 8.5t38 22t23.5 31t8 36.5v77q-18 -11 -43.5 -17.5t-51.5 -12.5q-54 -12 -80 -28t-26 -52t22 -50.5t58 -14.5zM265 561q-40 0 -68.5 27t-28.5 67q0 19 7.5 36.5t21 30t31 20t37.5 7.5t37.5 -7.5
t31 -20t21 -30t7.5 -36.5q0 -40 -28.5 -67t-68.5 -27zM265 608q20 0 32.5 13.5t12.5 33.5t-12.5 33.5t-32.5 13.5t-32.5 -13.5t-12.5 -33.5t12.5 -33.5t32.5 -13.5z" />
    <glyph glyph-name="ae" unicode="&#xe6;" horiz-adv-x="872" 
d="M613 -15q-68 0 -118 23t-83 64h-3q-21 -22 -41.5 -38t-44 -26t-52 -15t-65.5 -5q-42 0 -76 10t-59 30t-38.5 49.5t-13.5 67.5q0 42 16 71t44 48t65.5 29.5t80.5 16.5q64 9 94 19t30 39q0 28 -21.5 44.5t-64.5 16.5q-48 0 -72 -17.5t-27 -54.5h-121q1 34 15 64.5t41 53.5
t68 37t97 14q63 0 105.5 -15t68.5 -44q32 29 72.5 44.5t89.5 15.5q62 0 109 -22.5t79 -63.5t48.5 -97.5t16.5 -125.5h-372q8 -60 40.5 -94t90.5 -34q40 0 64 17t35 46h134q-7 -34 -25.5 -64.5t-48 -53.5t-69.5 -36.5t-89 -13.5zM602 422q-54 0 -82 -29.5t-37 -80.5h228
q-3 49 -32.5 79.5t-76.5 30.5zM231 83q29 0 51.5 8.5t38 22t23.5 31t8 36.5v77q-18 -11 -43.5 -17.5t-51.5 -12.5q-54 -12 -80 -28t-26 -52t22 -50.5t58 -14.5z" />
    <glyph glyph-name="ccedilla" unicode="&#xe7;" horiz-adv-x="528" 
d="M248 -192q-34 0 -60 8t-46 21l18 32q15 -7 33.5 -11t36.5 -4q23 0 40 7.5t17 23.5q0 14 -12 21.5t-29 7.5q-11 0 -20 -2t-17 -5l-16 22l57 58q-54 5 -96.5 27.5t-72.5 58.5t-46 82.5t-16 100.5q0 57 18 106.5t51.5 86t80.5 57.5t106 21q50 0 90 -14t69.5 -38.5t48 -59
t25.5 -76.5h-133q-7 34 -31.5 56.5t-62.5 22.5q-62 0 -93 -43.5t-31 -118.5q0 -73 29.5 -117.5t92.5 -44.5q42 0 69 21.5t34 65.5h131q-7 -78 -60.5 -132.5t-146.5 -62.5l-43 -36v-2q20 3 39 1t34 -10t24 -21.5t9 -33.5q0 -36 -35 -56t-86 -20z" />
    <glyph glyph-name="egrave" unicode="&#xe8;" horiz-adv-x="544" 
d="M285 -15q-64 0 -113.5 21t-83.5 57.5t-51.5 86.5t-17.5 107t18.5 106.5t52 85.5t80 57t102.5 21q62 0 109 -22.5t79 -63.5t48.5 -97.5t16.5 -125.5h-372q8 -60 40.5 -94t90.5 -34q40 0 64 17t35 46h134q-7 -34 -25.5 -64.5t-48 -53.5t-69.5 -36.5t-89 -13.5zM274 422
q-54 0 -82 -29.5t-37 -80.5h228q-3 49 -32.5 79.5t-76.5 30.5zM116 718h159l55 -141h-106z" />
    <glyph glyph-name="eacute" unicode="&#xe9;" horiz-adv-x="544" 
d="M285 -15q-64 0 -113.5 21t-83.5 57.5t-51.5 86.5t-17.5 107t18.5 106.5t52 85.5t80 57t102.5 21q62 0 109 -22.5t79 -63.5t48.5 -97.5t16.5 -125.5h-372q8 -60 40.5 -94t90.5 -34q40 0 64 17t35 46h134q-7 -34 -25.5 -64.5t-48 -53.5t-69.5 -36.5t-89 -13.5zM274 422
q-54 0 -82 -29.5t-37 -80.5h228q-3 49 -32.5 79.5t-76.5 30.5zM324 577h-106l55 141h159z" />
    <glyph glyph-name="ecircumflex" unicode="&#xea;" horiz-adv-x="544" 
d="M285 -15q-64 0 -113.5 21t-83.5 57.5t-51.5 86.5t-17.5 107t18.5 106.5t52 85.5t80 57t102.5 21q62 0 109 -22.5t79 -63.5t48.5 -97.5t16.5 -125.5h-372q8 -60 40.5 -94t90.5 -34q40 0 64 17t35 46h134q-7 -34 -25.5 -64.5t-48 -53.5t-69.5 -36.5t-89 -13.5zM274 422
q-54 0 -82 -29.5t-37 -80.5h228q-3 49 -32.5 79.5t-76.5 30.5zM198 707h146l96 -126h-118l-48 69h-2l-49 -69h-119z" />
    <glyph glyph-name="edieresis" unicode="&#xeb;" horiz-adv-x="544" 
d="M285 -15q-64 0 -113.5 21t-83.5 57.5t-51.5 86.5t-17.5 107t18.5 106.5t52 85.5t80 57t102.5 21q62 0 109 -22.5t79 -63.5t48.5 -97.5t16.5 -125.5h-372q8 -60 40.5 -94t90.5 -34q40 0 64 17t35 46h134q-7 -34 -25.5 -64.5t-48 -53.5t-69.5 -36.5t-89 -13.5zM274 422
q-54 0 -82 -29.5t-37 -80.5h228q-3 49 -32.5 79.5t-76.5 30.5zM320 695h128v-114h-128v114zM97 695h128v-114h-128v114z" />
    <glyph glyph-name="igrave" unicode="&#xec;" horiz-adv-x="224" 
d="M44 513h136v-513h-136v513zM-44 718h159l55 -141h-106z" />
    <glyph glyph-name="iacute" unicode="&#xed;" horiz-adv-x="224" 
d="M44 513h136v-513h-136v513zM164 577h-106l55 141h159z" />
    <glyph glyph-name="icircumflex" unicode="&#xee;" horiz-adv-x="224" 
d="M44 513h136v-513h-136v513zM41 707h139l73 -126h-107l-32 66h-2l-34 -66h-108z" />
    <glyph glyph-name="idieresis" unicode="&#xef;" horiz-adv-x="224" 
d="M44 513h136v-513h-136v513zM130 695h108v-114h-108v114zM-13 695h108v-114h-108v114z" />
    <glyph glyph-name="eth" unicode="&#xf0;" horiz-adv-x="571" 
d="M260 628q-26 24 -53.5 45.5t-56.5 41.5h164q17 -11 33 -23.5t32 -26.5l106 33l22 -50l-84 -26q54 -62 90.5 -148.5t36.5 -201.5q0 -57 -15.5 -108.5t-47.5 -91.5t-81.5 -63.5t-118.5 -23.5q-60 0 -109 21t-84.5 57.5t-55 86t-19.5 106.5t17 105.5t48 83.5t75 54.5
t98 19.5q38 0 70.5 -15t55.5 -41h2q-15 34 -35.5 64t-46.5 58l-138 -43l-21 50zM287 89q63 0 96.5 46t33.5 121t-33.5 120.5t-96.5 45.5t-96.5 -45.5t-33.5 -120.5t33.5 -121t96.5 -46z" />
    <glyph glyph-name="ntilde" unicode="&#xf1;" horiz-adv-x="549" 
d="M177 443h3q26 42 62.5 63t89.5 21q40 0 72.5 -14.5t55.5 -40t36 -60.5t13 -77v-335h-136v315q0 42 -23 68t-66 26q-45 0 -74.5 -32.5t-29.5 -85.5v-291h-136v513h133v-70zM334 575q-18 0 -33.5 5t-29 11.5t-25 11.5t-21.5 5q-22 0 -27 -31h-72q0 59 26 88.5t64 29.5
q18 0 33.5 -5.5t29 -12t25 -12t21.5 -5.5q14 0 20 8.5t9 22.5h72q0 -51 -24 -83.5t-68 -32.5z" />
    <glyph glyph-name="ograve" unicode="&#xf2;" horiz-adv-x="574" 
d="M287 -15q-60 0 -109 21t-84.5 57.5t-55 86t-19.5 106.5t19.5 106.5t55 86t84.5 57.5t109 21t109 -21t84.5 -57.5t55 -86t19.5 -106.5t-19.5 -106.5t-55 -86t-84.5 -57.5t-109 -21zM287 89q63 0 96.5 46t33.5 121t-33.5 121.5t-96.5 46.5t-96.5 -46.5t-33.5 -121.5
t33.5 -121t96.5 -46zM131 718h159l55 -141h-106z" />
    <glyph glyph-name="oacute" unicode="&#xf3;" horiz-adv-x="574" 
d="M287 -15q-60 0 -109 21t-84.5 57.5t-55 86t-19.5 106.5t19.5 106.5t55 86t84.5 57.5t109 21t109 -21t84.5 -57.5t55 -86t19.5 -106.5t-19.5 -106.5t-55 -86t-84.5 -57.5t-109 -21zM287 89q63 0 96.5 46t33.5 121t-33.5 121.5t-96.5 46.5t-96.5 -46.5t-33.5 -121.5
t33.5 -121t96.5 -46zM339 577h-106l55 141h159z" />
    <glyph glyph-name="ocircumflex" unicode="&#xf4;" horiz-adv-x="574" 
d="M287 -15q-60 0 -109 21t-84.5 57.5t-55 86t-19.5 106.5t19.5 106.5t55 86t84.5 57.5t109 21t109 -21t84.5 -57.5t55 -86t19.5 -106.5t-19.5 -106.5t-55 -86t-84.5 -57.5t-109 -21zM287 89q63 0 96.5 46t33.5 121t-33.5 121.5t-96.5 46.5t-96.5 -46.5t-33.5 -121.5
t33.5 -121t96.5 -46zM213 707h146l96 -126h-118l-48 69h-2l-49 -69h-119z" />
    <glyph glyph-name="otilde" unicode="&#xf5;" horiz-adv-x="574" 
d="M287 -15q-60 0 -109 21t-84.5 57.5t-55 86t-19.5 106.5t19.5 106.5t55 86t84.5 57.5t109 21t109 -21t84.5 -57.5t55 -86t19.5 -106.5t-19.5 -106.5t-55 -86t-84.5 -57.5t-109 -21zM287 89q63 0 96.5 46t33.5 121t-33.5 121.5t-96.5 46.5t-96.5 -46.5t-33.5 -121.5
t33.5 -121t96.5 -46zM345 575q-18 0 -33.5 5t-29 11.5t-25 11.5t-21.5 5q-22 0 -27 -31h-72q0 59 26 88.5t64 29.5q18 0 33.5 -5.5t29 -12t25 -12t21.5 -5.5q14 0 20 8.5t9 22.5h72q0 -51 -24 -83.5t-68 -32.5z" />
    <glyph glyph-name="odieresis" unicode="&#xf6;" horiz-adv-x="574" 
d="M287 -15q-60 0 -109 21t-84.5 57.5t-55 86t-19.5 106.5t19.5 106.5t55 86t84.5 57.5t109 21t109 -21t84.5 -57.5t55 -86t19.5 -106.5t-19.5 -106.5t-55 -86t-84.5 -57.5t-109 -21zM287 89q63 0 96.5 46t33.5 121t-33.5 121.5t-96.5 46.5t-96.5 -46.5t-33.5 -121.5
t33.5 -121t96.5 -46zM335 695h128v-114h-128v114zM112 695h128v-114h-128v114z" />
    <glyph glyph-name="divide" unicode="&#xf7;" horiz-adv-x="569" 
d="M211 207h146v-133h-146v133zM211 582h146v-132h-146v132zM35 378h499v-100h-499v100z" />
    <glyph glyph-name="oslash" unicode="&#xf8;" horiz-adv-x="574" 
d="M23 1l63 70q-32 36 -49.5 83t-17.5 102q0 57 19.5 106.5t55 86t84.5 57.5t109 21q48 0 89.5 -14t74.5 -39l61 67l39 -37l-60 -67q30 -35 47 -81.5t17 -99.5q0 -57 -19.5 -106.5t-55 -86t-84.5 -57.5t-109 -21q-47 0 -87.5 13t-72.5 36l-64 -70zM157 256q0 -53 15 -90
l202 222q-34 36 -87 36q-63 0 -96.5 -46.5t-33.5 -121.5zM287 89q63 0 96.5 46t33.5 121q0 47 -14 84l-199 -220q33 -31 83 -31z" />
    <glyph glyph-name="ugrave" unicode="&#xf9;" horiz-adv-x="543" 
d="M368 0v60h-3q-26 -35 -59.5 -54.5t-87.5 -19.5q-86 0 -132 50t-46 135v342h135v-319q0 -45 20.5 -69t64.5 -24q48 0 75.5 32.5t27.5 83.5v296h136v-513h-131zM115 718h159l55 -141h-106z" />
    <glyph glyph-name="uacute" unicode="&#xfa;" horiz-adv-x="543" 
d="M368 0v60h-3q-26 -35 -59.5 -54.5t-87.5 -19.5q-86 0 -132 50t-46 135v342h135v-319q0 -45 20.5 -69t64.5 -24q48 0 75.5 32.5t27.5 83.5v296h136v-513h-131zM323 577h-106l55 141h159z" />
    <glyph glyph-name="ucircumflex" unicode="&#xfb;" horiz-adv-x="543" 
d="M368 0v60h-3q-26 -35 -59.5 -54.5t-87.5 -19.5q-86 0 -132 50t-46 135v342h135v-319q0 -45 20.5 -69t64.5 -24q48 0 75.5 32.5t27.5 83.5v296h136v-513h-131zM197 707h146l96 -126h-118l-48 69h-2l-49 -69h-119z" />
    <glyph glyph-name="udieresis" unicode="&#xfc;" horiz-adv-x="543" 
d="M368 0v60h-3q-26 -35 -59.5 -54.5t-87.5 -19.5q-86 0 -132 50t-46 135v342h135v-319q0 -45 20.5 -69t64.5 -24q48 0 75.5 32.5t27.5 83.5v296h136v-513h-131zM319 695h128v-114h-128v114zM96 695h128v-114h-128v114z" />
    <glyph glyph-name="yacute" unicode="&#xfd;" horiz-adv-x="497" 
d="M55 -61h48q41 0 58.5 19t17.5 51q0 10 -2 22.5t-6.5 28.5t-12 37.5t-18.5 50.5l-138 365h143l76 -231q6 -18 11.5 -37.5t10.5 -36.5q5 -19 11 -38h2q4 19 9 38q4 17 9.5 36.5t11.5 37.5l72 231h137l-179 -526q-15 -43 -30.5 -72.5t-36 -48t-48 -26.5t-66.5 -8h-80v107z
M300 577h-106l55 141h159z" />
    <glyph glyph-name="thorn" unicode="&#xfe;" horiz-adv-x="571" 
d="M330 -15q-54 0 -90 19t-58 54h-2v-226h-136v884h136v-265h3q21 32 57 54t89 22q51 0 92 -20t70.5 -55.5t45 -85.5t15.5 -110q0 -62 -16 -112.5t-45.5 -85.5t-70.5 -54t-90 -19zM301 98q52 0 82.5 40.5t30.5 113.5t-27.5 119t-90.5 46q-32 0 -54.5 -13t-37 -35t-21 -52.5
t-6.5 -64.5q0 -70 31.5 -112t92.5 -42z" />
    <glyph glyph-name="ydieresis" unicode="&#xff;" horiz-adv-x="497" 
d="M55 -61h48q41 0 58.5 19t17.5 51q0 10 -2 22.5t-6.5 28.5t-12 37.5t-18.5 50.5l-138 365h143l76 -231q6 -18 11.5 -37.5t10.5 -36.5q5 -19 11 -38h2q4 19 9 38q4 17 9.5 36.5t11.5 37.5l72 231h137l-179 -526q-15 -43 -30.5 -72.5t-36 -48t-48 -26.5t-66.5 -8h-80v107z
M296 695h128v-114h-128v114zM73 695h128v-114h-128v114z" />
    <glyph glyph-name="OE" unicode="&#x152;" horiz-adv-x="1053" 
d="M355 -16q-71 0 -132 28t-105 77.5t-69 118t-25 148.5t25 148.5t69 118.5t105 78t132 28q46 0 84.5 -15t70.5 -41v42h497v-125h-354v-161h306v-117h-306v-181h365v-131h-508v43q-33 -28 -72 -43.5t-83 -15.5zM361 103q102 0 149 72v359q-23 37 -60.5 56.5t-88.5 19.5
q-45 0 -80.5 -19.5t-59.5 -54t-36.5 -80.5t-12.5 -100q0 -53 12.5 -99.5t36.5 -80.5t59.5 -53.5t80.5 -19.5z" />
    <glyph glyph-name="oe" unicode="&#x153;" horiz-adv-x="943" 
d="M287 -15q-60 0 -109 21t-84.5 57.5t-55 86t-19.5 106.5t19.5 106.5t55 86t84.5 57.5t109 21q63 0 113 -23t84 -64q32 40 79.5 63.5t107.5 23.5q62 0 109 -22.5t79 -63.5t48.5 -97.5t16.5 -125.5h-372q8 -60 40.5 -94t90.5 -34q40 0 64 17t35 46h134q-7 -34 -25.5 -64.5
t-48 -53.5t-69.5 -36.5t-89 -13.5q-68 0 -118 23t-83 63q-34 -40 -83.5 -63t-112.5 -23zM287 89q63 0 96.5 46t33.5 121t-33.5 121.5t-96.5 46.5t-96.5 -46.5t-33.5 -121.5t33.5 -121t96.5 -46zM673 422q-54 0 -82 -29.5t-37 -80.5h228q-3 49 -32.5 79.5t-76.5 30.5z" />
    <glyph glyph-name="Scaron" unicode="&#x160;" horiz-adv-x="642" 
d="M332 -16q-146 0 -225.5 61.5t-83.5 175.5h142q8 -65 46 -92.5t115 -27.5q28 0 53 5t44 16t30.5 28.5t11.5 42.5q0 26 -12.5 43t-35.5 28.5t-55.5 20t-73.5 17.5q-48 11 -92.5 24.5t-78 36.5t-54 59t-20.5 92q0 53 20.5 93t57 67t86.5 40.5t110 13.5q121 0 194.5 -57
t81.5 -166h-139q-6 54 -44 81t-94 27q-59 0 -94 -23t-35 -61q0 -22 9.5 -36.5t29 -25.5t48.5 -19t69 -17q55 -12 103.5 -26.5t85 -38.5t57.5 -61t21 -95q0 -54 -21 -96.5t-58 -71t-88 -43.5t-111 -15zM394 753h-146l-96 114h118l48 -57h2l49 57h119z" />
    <glyph glyph-name="scaron" unicode="&#x161;" horiz-adv-x="485" 
d="M252 -15q-112 0 -173 49.5t-67 131.5h126q7 -45 36.5 -65t75.5 -20q45 0 69.5 16t24.5 43q0 18 -11.5 29t-30 18t-43 11.5t-50.5 9.5q-35 7 -67.5 16t-58 26t-41 44t-15.5 69t16 72.5t44.5 51t66.5 30.5t82 10q102 0 157 -46t63 -124h-123q-5 42 -30 58.5t-69 16.5
q-40 0 -64 -14.5t-24 -42.5q0 -17 12 -26.5t31.5 -16t45 -10.5t52.5 -10q32 -7 64.5 -16t58.5 -26.5t42 -46t16 -73.5q0 -39 -16 -69.5t-44.5 -51.5t-68 -32.5t-87.5 -11.5zM75 702h118l48 -69h2l49 69h119l-94 -126h-146z" />
    <glyph glyph-name="Ydieresis" unicode="&#x178;" horiz-adv-x="629" 
d="M242 276l-238 439h158l108 -212q8 -17 16.5 -34.5t15.5 -32.5q8 -18 15 -35h2q8 17 16 35q7 15 15.5 32.5t16.5 34.5l106 212h152l-238 -439v-276h-145v276zM352 867h128v-114h-128v114zM149 867h128v-114h-128v114z" />
    <glyph glyph-name="Zcaron" unicode="&#x17d;" horiz-adv-x="626" 
d="M27 109l390 482v3h-365v121h537v-121l-377 -468v-3h384v-123h-569v109zM389 753h-146l-96 114h118l48 -57h2l49 57h119z" />
    <glyph glyph-name="zcaron" unicode="&#x17e;" horiz-adv-x="485" 
d="M27 104l264 299v3h-234v107h392v-109l-258 -292v-3h271v-109h-435v104zM95 702h118l48 -69h2l49 69h119l-94 -126h-146z" />
    <glyph glyph-name="florin" unicode="&#x192;" horiz-adv-x="398" 
d="M30 413h91l21 143q7 50 27 80t50.5 45t70 17t85.5 -4v-99q-22 2 -38.5 1.5t-28.5 -6t-19 -17t-10 -31.5l-19 -129h100v-90h-113l-49 -341q-7 -48 -24.5 -77t-44.5 -43.5t-63 -16.5t-81 5v93q16 -1 29 -0.5t22.5 6t15.5 16.5t9 31l47 327h-78v90z" />
    <glyph glyph-name="circumflex" unicode="&#x2c6;" horiz-adv-x="500" 
d="M176 707h146l96 -126h-118l-48 69h-2l-49 -69h-119z" />
    <glyph glyph-name="tilde" unicode="&#x2dc;" horiz-adv-x="500" 
d="M308 575q-18 0 -33.5 5t-29 11.5t-25 11.5t-21.5 5q-22 0 -27 -31h-72q0 59 26 88.5t64 29.5q18 0 33.5 -5.5t29 -12t25 -12t21.5 -5.5q14 0 20 8.5t9 22.5h72q0 -51 -24 -83.5t-68 -32.5z" />
    <glyph glyph-name="uni2009" unicode="&#x2009;" horiz-adv-x="55" 
 />
    <glyph glyph-name="endash" unicode="&#x2013;" horiz-adv-x="500" 
d="M0 313h500v-117h-500v117z" />
    <glyph glyph-name="emdash" unicode="&#x2014;" horiz-adv-x="1000" 
d="M100 313h800v-117h-800v117z" />
    <glyph glyph-name="quoteleft" unicode="&#x2018;" horiz-adv-x="201" 
d="M32 568q0 34 12 60t31.5 45t44 30t49.5 15v-47q-12 -4 -24 -11.5t-21.5 -19t-16 -27t-6.5 -33.5h66v-130h-135v118z" />
    <glyph glyph-name="quoteright" unicode="&#x2019;" horiz-adv-x="201" 
d="M32 494q12 4 24 11.5t21.5 19t16 27t6.5 33.5h-66v130h135v-118q0 -34 -12 -60t-31.5 -45t-44 -30t-49.5 -15v47z" />
    <glyph glyph-name="quotesinglbase" unicode="&#x201a;" horiz-adv-x="201" 
d="M32 -91q12 4 24 11.5t21.5 19t16 27t6.5 33.5h-66v130h135v-118q0 -34 -12 -60t-31.5 -45t-44 -30t-49.5 -15v47z" />
    <glyph glyph-name="quotedblleft" unicode="&#x201c;" horiz-adv-x="399" 
d="M230 568q0 34 12 60t31.5 45t44 30t49.5 15v-47q-12 -4 -24 -11.5t-21.5 -19t-16 -27t-6.5 -33.5h66v-130h-135v118zM32 568q0 34 12 60t31.5 45t44 30t49.5 15v-47q-12 -4 -24 -11.5t-21.5 -19t-16 -27t-6.5 -33.5h66v-130h-135v118z" />
    <glyph glyph-name="quotedblright" unicode="&#x201d;" horiz-adv-x="399" 
d="M230 494q12 4 24 11.5t21.5 19t16 27t6.5 33.5h-66v130h135v-118q0 -34 -12 -60t-31.5 -45t-44 -30t-49.5 -15v47zM32 494q12 4 24 11.5t21.5 19t16 27t6.5 33.5h-66v130h135v-118q0 -34 -12 -60t-31.5 -45t-44 -30t-49.5 -15v47z" />
    <glyph glyph-name="quotedblbase" unicode="&#x201e;" horiz-adv-x="399" 
d="M230 -91q12 4 24 11.5t21.5 19t16 27t6.5 33.5h-66v130h135v-118q0 -34 -12 -60t-31.5 -45t-44 -30t-49.5 -15v47zM32 -91q12 4 24 11.5t21.5 19t16 27t6.5 33.5h-66v130h135v-118q0 -34 -12 -60t-31.5 -45t-44 -30t-49.5 -15v47z" />
    <glyph glyph-name="dagger" unicode="&#x2020;" horiz-adv-x="565" 
d="M34 519h183v196h131v-196h183v-107h-183v-529h-131v529h-183v107z" />
    <glyph glyph-name="daggerdbl" unicode="&#x2021;" horiz-adv-x="565" 
d="M34 519h183v196h131v-196h183v-107h-183v-226h183v-107h-183v-196h-131v196h-183v107h183v226h-183v107z" />
    <glyph glyph-name="bullet" unicode="&#x2022;" horiz-adv-x="351" 
d="M176 182q-29 0 -54.5 11t-44.5 30t-30 44t-11 54t11 54.5t30 44.5t44.5 30t54.5 11q28 0 53.5 -11t44.5 -30t30 -44.5t11 -54.5t-11 -54t-30 -44t-44.5 -30t-53.5 -11z" />
    <glyph glyph-name="ellipsis" unicode="&#x2026;" horiz-adv-x="722" 
d="M540 145h146v-145h-146v145zM36 145h146v-145h-146v145zM288 145h146v-145h-146v145z" />
    <glyph glyph-name="perthousand" unicode="&#x2030;" horiz-adv-x="1221" 
d="M195 301q-38 0 -70.5 14t-56 40t-36.5 63t-13 82q0 46 13.5 83t37 63t55.5 40t70 14q39 0 71 -14t55 -40t36 -63t13 -83q0 -45 -13 -82t-36 -63t-55 -40t-71 -14zM634 -16q-38 0 -70.5 14t-56 40t-36.5 63t-13 82q0 46 13.5 83t37 63t55.5 40t70 14q39 0 71 -14t55 -40
t36 -63t13 -83q0 -45 -13 -82t-36 -63t-55 -40t-71 -14zM1027 -16q-38 0 -70.5 14t-56 40t-36.5 63t-13 82q0 46 13.5 83t37 63t55.5 40t70 14q39 0 71 -14t55 -40t36 -63t13 -83q0 -45 -13 -82t-36 -63t-55 -40t-71 -14zM547 686h85l-351 -686h-85zM195 378q35 0 52 34
t17 88t-17 89t-52 35t-52 -34.5t-17 -89.5q0 -54 17 -88t52 -34zM634 61q35 0 52 34t17 88t-17 89t-52 35t-52 -34.5t-17 -89.5q0 -54 17 -88t52 -34zM1027 61q35 0 52 34t17 88t-17 89t-52 35t-52 -34.5t-17 -89.5q0 -54 17 -88t52 -34z" />
    <glyph glyph-name="guilsinglleft" unicode="&#x2039;" horiz-adv-x="277" 
d="M54 195v126l164 140v-131l-88 -72v-2l88 -72v-129z" />
    <glyph glyph-name="guilsinglright" unicode="&#x203a;" horiz-adv-x="277" 
d="M223 321v-126l-164 -140v131l88 72v2l-88 72v129z" />
    <glyph glyph-name="fraction" unicode="&#x2044;" horiz-adv-x="244" 
d="M325 715h90l-497 -715h-89z" />
    <glyph glyph-name="uni2070" unicode="&#x2070;" horiz-adv-x="418" 
d="M210 309q-41 0 -74.5 14.5t-58.5 41.5t-38.5 65.5t-13.5 85.5t14 85.5t38.5 65.5t58.5 41.5t74 14.5t74 -14.5t58 -41.5t37.5 -65t13.5 -86q0 -47 -13.5 -85.5t-37.5 -65.5t-58 -41.5t-74 -14.5zM210 391q37 0 54.5 32t17.5 93q0 60 -18 93t-54 33q-38 0 -55.5 -32.5
t-17.5 -93.5q0 -60 17.5 -92.5t55.5 -32.5z" />
    <glyph glyph-name="uni2074" unicode="&#x2074;" horiz-adv-x="399" 
d="M215 402h-189v91l188 227h103v-242h59v-76h-59v-84h-102v84zM105 478h110v133h-1l-109 -132v-1z" />
    <glyph glyph-name="uni2075" unicode="&#x2075;" horiz-adv-x="381" 
d="M189 309q-35 0 -64.5 8.5t-52 24.5t-36 39.5t-16.5 53.5h100q5 -22 22.5 -33t44.5 -11q28 0 43 17t15 44q0 30 -16 46.5t-42 16.5q-38 0 -56 -23h-95l40 223h251v-82h-180l-13 -67h2q12 11 32 18t49 7q30 0 55 -10t43 -28t28 -43t10 -56q0 -66 -44.5 -105.5t-119.5 -39.5
z" />
    <glyph glyph-name="uni2076" unicode="&#x2076;" horiz-adv-x="387" 
d="M204 309q-44 0 -77 15t-55.5 42t-34 64.5t-11.5 83.5q-1 98 50 158q22 25 53.5 38t75.5 13q63 0 101 -29t48 -79h-104q-4 12 -14 21.5t-33 9.5q-32 0 -50.5 -25.5t-21.5 -71.5h1q15 17 36.5 27t54.5 10q28 0 54 -9t46 -26.5t31.5 -42.5t11.5 -57t-12 -58t-33.5 -45
t-51.5 -29t-65 -10zM199 389q27 0 44.5 17.5t17.5 44.5q0 28 -17 46t-45 18q-29 0 -47 -18t-18 -46t18.5 -45t46.5 -17z" />
    <glyph glyph-name="uni2077" unicode="&#x2077;" horiz-adv-x="352" 
d="M79 318q2 52 14.5 98t32 85t43.5 71t48 56v1h-195v86h302v-78q-26 -26 -49.5 -60t-41.5 -74t-29 -86.5t-12 -98.5h-113v0z" />
    <glyph glyph-name="uni2078" unicode="&#x2078;" horiz-adv-x="389" 
d="M195 309q-79 0 -125.5 32.5t-46.5 89.5q0 34 19.5 60t53.5 40v2q-56 25 -56 80q0 50 42 80t113 30t112 -28.5t41 -79.5q0 -26 -14.5 -47t-39.5 -33v-2q34 -12 53 -38.5t19 -60.5q0 -60 -46 -92.5t-125 -32.5zM194 382q31 0 48.5 15t17.5 40q0 26 -17 42.5t-48 16.5
t-48.5 -16.5t-17.5 -42.5q0 -25 17.5 -40t47.5 -15zM194 560q27 0 41 13.5t14 34.5q0 20 -14 33.5t-41 13.5t-41 -13.5t-14 -33.5q0 -21 14 -34.5t41 -13.5z" />
    <glyph glyph-name="uni2079" unicode="&#x2079;" horiz-adv-x="386" 
d="M182 723q45 0 78.5 -15t55.5 -42t33 -64.5t11 -83.5q1 -50 -10.5 -88.5t-37.5 -69.5q-22 -25 -54 -38.5t-74 -13.5q-66 0 -106.5 29.5t-50.5 79.5h104q4 -11 16 -21t35 -10q32 0 51 21.5t22 71.5h-1q-15 -17 -36.5 -27t-54.5 -10q-29 0 -54.5 9.5t-45 27t-31 43
t-11.5 57.5t12 58.5t33.5 45.5t51 29.5t64.5 10.5zM186 644q-27 0 -45 -19t-18 -46q0 -28 17.5 -46.5t45.5 -18.5q29 0 46.5 18.5t17.5 46.5t-18 46.5t-46 18.5z" />
    <glyph glyph-name="uni2080" unicode="&#x2080;" horiz-adv-x="418" 
d="M210 -159q-41 0 -74.5 14.5t-58.5 41.5t-38.5 65.5t-13.5 85.5t14 85.5t38.5 65.5t58.5 41.5t74 14.5t74 -14.5t58 -41.5t37.5 -65t13.5 -86q0 -47 -13.5 -85.5t-37.5 -65.5t-58 -41.5t-74 -14.5zM210 -82q37 0 56 34.5t19 95.5q0 60 -19.5 95.5t-55.5 35.5
q-38 0 -57 -35t-19 -96q0 -60 19 -95t57 -35z" />
    <glyph glyph-name="uni2081" unicode="&#x2081;" horiz-adv-x="267" 
d="M113 99h-91v71q43 2 72.5 21t37.5 59h85v-400h-104v249z" />
    <glyph glyph-name="uni2082" unicode="&#x2082;" horiz-adv-x="372" 
d="M26 -150q1 59 29 97t67 65q25 18 46.5 31t37.5 25t24.5 25t8.5 31q0 22 -12 35.5t-37 13.5q-28 0 -44.5 -19t-16.5 -54h-97q0 75 43 115t118 40q36 0 64 -10t46.5 -27.5t28.5 -40.5t10 -49q0 -45 -21 -72.5t-51 -49.5q-29 -21 -59.5 -38t-45.5 -36h179v-82h-318v0z" />
    <glyph glyph-name="uni2083" unicode="&#x2083;" horiz-adv-x="374" 
d="M188 -159q-87 0 -127.5 39.5t-41.5 104.5h103q1 -30 15 -49t49 -19q29 0 43 14.5t14 37.5q0 51 -63 51h-24v72h21q57 0 57 45q0 20 -11.5 31.5t-35.5 11.5q-30 0 -42 -16.5t-14 -40.5h-100q2 57 43 94.5t116 37.5q66 0 107.5 -29.5t41.5 -82.5q0 -30 -17.5 -48.5
t-43.5 -29.5v-2q32 -11 53 -34.5t21 -63.5q0 -32 -13 -55.5t-35.5 -38.5t-52.5 -22.5t-63 -7.5z" />
    <glyph glyph-name="uni2084" unicode="&#x2084;" horiz-adv-x="399" 
d="M215 -66h-189v91l188 227h103v-242h59v-76h-59v-84h-102v84zM105 10h110v133h-1l-109 -132v-1z" />
    <glyph glyph-name="uni2085" unicode="&#x2085;" horiz-adv-x="381" 
d="M189 -159q-35 0 -64.5 8.5t-52 24.5t-36 39.5t-16.5 53.5h96q5 -24 24.5 -36t46.5 -12q28 0 45.5 18t17.5 47q0 32 -18.5 48t-44.5 16q-20 0 -35.5 -6.5t-23.5 -17.5h-92l40 223h251v-79h-180l-14 -73h2q12 11 32.5 18t49.5 7q28 0 53 -9.5t43.5 -27t29 -42t10.5 -55.5
q0 -33 -12 -60t-33.5 -45.5t-52 -29t-66.5 -10.5z" />
    <glyph glyph-name="uni2086" unicode="&#x2086;" horiz-adv-x="385" 
d="M201 -159q-44 0 -77 15t-55.5 42t-33.5 64.5t-11 83.5q-2 100 48 157q22 25 54 38.5t76 13.5q63 0 100 -29t47 -79h-97q-4 14 -15 24.5t-34 10.5q-34 0 -54 -26.5t-23 -74.5h1q17 17 38 27t53 10q29 0 55 -9t45.5 -26.5t31 -43t11.5 -57.5t-12 -58t-33 -44.5t-50.5 -28.5
t-64.5 -10zM195 -84q29 0 46.5 18.5t17.5 47.5t-17.5 47.5t-46.5 18.5q-30 0 -48 -18.5t-18 -47.5t18.5 -47.5t47.5 -18.5z" />
    <glyph glyph-name="uni2087" unicode="&#x2087;" horiz-adv-x="352" 
d="M79 -150q2 52 14.5 98t32 85t43.5 71t48 56v1h-195v86h302v-78q-26 -26 -49.5 -60t-41.5 -74t-29 -86.5t-12 -98.5h-113v0z" />
    <glyph glyph-name="uni2088" unicode="&#x2088;" horiz-adv-x="389" 
d="M195 -159q-79 0 -125.5 32.5t-46.5 89.5q0 34 19.5 60t53.5 40v2q-56 25 -56 80q0 50 42 80t113 30t112 -28.5t41 -79.5q0 -26 -14.5 -47t-39.5 -33v-2q34 -12 53 -38.5t19 -60.5q0 -60 -46 -92.5t-125 -32.5zM194 -86q31 0 48.5 15t17.5 40q0 26 -17 42.5t-48 16.5
t-48.5 -16.5t-17.5 -42.5q0 -25 17.5 -40t47.5 -15zM194 92q27 0 41 13.5t14 34.5q0 20 -14 33.5t-41 13.5t-41 -13.5t-14 -33.5q0 -21 14 -34.5t41 -13.5z" />
    <glyph glyph-name="uni2089" unicode="&#x2089;" horiz-adv-x="384" 
d="M189 -160q-66 0 -106.5 30.5t-48.5 78.5h98q5 -14 18 -24.5t37 -10.5q67 0 71 95h-1q-15 -16 -36.5 -26.5t-51.5 -10.5t-56.5 10t-46.5 28t-31.5 44t-11.5 58t12.5 58.5t34 45t51.5 29t66 10.5q35 0 64.5 -10.5t50.5 -29.5q57 -51 57 -165q0 -48 -10 -89.5t-35 -69.5
q-22 -25 -52.5 -38t-72.5 -13zM188 47q30 0 48.5 18t18.5 47t-18.5 48t-47.5 19q-30 0 -48.5 -19t-18.5 -47q0 -29 17.5 -47.5t48.5 -18.5z" />
    <glyph glyph-name="Euro" unicode="&#x20ac;" horiz-adv-x="630" 
d="M18 428h53q10 61 34.5 111t61.5 86t85 55.5t105 19.5q58 0 103 -17.5t77.5 -48t51 -73t23.5 -93.5h-136q-8 55 -37.5 86.5t-81.5 31.5q-59 0 -94.5 -42.5t-48.5 -115.5h177v-59h-183q-1 -7 -1 -14v-14v-18t1 -17h183v-59h-176q14 -72 51 -110t96 -38q58 0 87.5 39
t36.5 100h132q-3 -56 -21.5 -102.5t-51 -80t-79 -52.5t-106.5 -19q-56 0 -104 18.5t-85 52.5t-62.5 82.5t-36.5 109.5h-54v59h47q-1 8 -1 17v18v14t1 14h-47v59z" />
    <glyph glyph-name="trademark" unicode="&#x2122;" horiz-adv-x="679" 
d="M314 715h108l49 -176h2l50 176h108v-279h-72v181h-2l-55 -181h-61l-54 181h-2v-181h-71v279zM31 715h242v-64h-82v-215h-78v215h-82v64z" />
    <glyph glyph-name="onethird" unicode="&#x2153;" horiz-adv-x="843" 
d="M116 567h-91v71q43 2 72.5 21t37.5 59h85v-400h-104v249zM593 715h90l-497 -715h-89zM654 -9q-87 0 -127.5 39.5t-41.5 104.5h103q1 -30 15 -49t49 -19q29 0 43 14.5t14 37.5q0 51 -63 51h-24v72h21q57 0 57 45q0 20 -11.5 31.5t-35.5 11.5q-30 0 -42 -16.5t-14 -40.5
h-100q2 57 43 94.5t116 37.5q66 0 107.5 -29.5t41.5 -82.5q0 -30 -17.5 -48.5t-43.5 -29.5v-2q32 -11 53 -34.5t21 -63.5q0 -32 -13 -55.5t-35.5 -38.5t-52.5 -22.5t-63 -7.5z" />
    <glyph glyph-name="twothirds" unicode="&#x2154;" horiz-adv-x="913" 
d="M29 318q1 59 29 97t67 65q25 18 46.5 31t37.5 25t24.5 25t8.5 31q0 22 -12 35.5t-37 13.5q-28 0 -44.5 -19t-16.5 -54h-97q0 75 43 115t118 40q36 0 64 -10t46.5 -27.5t28.5 -40.5t10 -49q0 -45 -22.5 -71.5t-52.5 -48.5q-29 -21 -59 -38.5t-45 -37.5h181v-82h-318z
M675 715h90l-497 -715h-89zM724 -9q-87 0 -127.5 39.5t-41.5 104.5h103q1 -30 15 -49t49 -19q29 0 43 14.5t14 37.5q0 51 -63 51h-24v72h21q57 0 57 45q0 20 -11.5 31.5t-35.5 11.5q-30 0 -42 -16.5t-14 -40.5h-100q2 57 43 94.5t116 37.5q66 0 107.5 -29.5t41.5 -82.5
q0 -30 -17.5 -48.5t-43.5 -29.5v-2q32 -11 53 -34.5t21 -63.5q0 -32 -13 -55.5t-35.5 -38.5t-52.5 -22.5t-63 -7.5z" />
    <glyph glyph-name="oneeighth" unicode="&#x215b;" horiz-adv-x="855" 
d="M116 567h-91v71q43 2 72.5 21t37.5 59h85v-400h-104v249zM593 715h90l-497 -715h-89zM658 -9q-79 0 -125.5 32.5t-46.5 89.5q0 34 19.5 60t53.5 40v2q-56 25 -56 80q0 50 42 80t113 30t112 -28.5t41 -79.5q0 -26 -14.5 -47t-39.5 -33v-2q34 -12 53 -38.5t19 -60.5
q0 -60 -46 -92.5t-125 -32.5zM657 64q31 0 48.5 15t17.5 40q0 26 -17 42.5t-48 16.5t-48.5 -16.5t-17.5 -42.5q0 -25 17.5 -40t47.5 -15zM657 242q27 0 41 13.5t14 34.5q0 20 -14 33.5t-41 13.5t-41 -13.5t-14 -33.5q0 -21 14 -34.5t41 -13.5z" />
    <glyph glyph-name="threeeighths" unicode="&#x215c;" horiz-adv-x="900" 
d="M191 309q-87 0 -127.5 39.5t-41.5 104.5h103q1 -30 15 -49t49 -19q29 0 43 14.5t14 37.5q0 51 -63 51h-24v72h21q57 0 57 45q0 20 -11.5 31.5t-35.5 11.5q-30 0 -42 -16.5t-14 -40.5h-100q2 57 43 94.5t116 37.5q66 0 107.5 -29.5t41.5 -82.5q0 -30 -17.5 -48.5
t-43.5 -29.5v-2q32 -11 53 -34.5t21 -63.5q0 -32 -13 -55.5t-35.5 -38.5t-52.5 -22.5t-63 -7.5zM653 715h90l-497 -715h-89zM703 -9q-79 0 -125.5 32.5t-46.5 89.5q0 34 19.5 60t53.5 40v2q-56 25 -56 80q0 50 42 80t113 30t112 -28.5t41 -79.5q0 -26 -14.5 -47t-39.5 -33
v-2q34 -12 53 -38.5t19 -60.5q0 -60 -46 -92.5t-125 -32.5zM702 64q31 0 48.5 15t17.5 40q0 26 -17 42.5t-48 16.5t-48.5 -16.5t-17.5 -42.5q0 -25 17.5 -40t47.5 -15zM702 242q27 0 41 13.5t14 34.5q0 20 -14 33.5t-41 13.5t-41 -13.5t-14 -33.5q0 -21 14 -34.5t41 -13.5z
" />
    <glyph glyph-name="fiveeighths" unicode="&#x215d;" horiz-adv-x="892" 
d="M192 309q-35 0 -64.5 8.5t-52 24.5t-36 39.5t-16.5 53.5h100q5 -22 22.5 -33t44.5 -11q28 0 43 17t15 44q0 30 -16 46.5t-42 16.5q-38 0 -56 -23h-95l40 223h251v-82h-180l-13 -67h2q12 11 32 18t49 7q30 0 55 -10t43 -28t28 -43t10 -56q0 -66 -44.5 -105.5t-119.5 -39.5
zM646 715h90l-497 -715h-89zM695 -9q-79 0 -125.5 32.5t-46.5 89.5q0 34 19.5 60t53.5 40v2q-56 25 -56 80q0 50 42 80t113 30t112 -28.5t41 -79.5q0 -26 -14.5 -47t-39.5 -33v-2q34 -12 53 -38.5t19 -60.5q0 -60 -46 -92.5t-125 -32.5zM694 64q31 0 48.5 15t17.5 40
q0 26 -17 42.5t-48 16.5t-48.5 -16.5t-17.5 -42.5q0 -25 17.5 -40t47.5 -15zM694 242q27 0 41 13.5t14 34.5q0 20 -14 33.5t-41 13.5t-41 -13.5t-14 -33.5q0 -21 14 -34.5t41 -13.5z" />
    <glyph glyph-name="seveneighths" unicode="&#x215e;" horiz-adv-x="818" 
d="M82 318q2 52 14.5 98t32 85t43.5 71t48 56v1h-195v86h302v-78q-26 -26 -49.5 -60t-41.5 -74t-29 -86.5t-12 -98.5h-113zM558 715h90l-497 -715h-89zM621 -9q-79 0 -125.5 32.5t-46.5 89.5q0 34 19.5 60t53.5 40v2q-56 25 -56 80q0 50 42 80t113 30t112 -28.5t41 -79.5
q0 -26 -14.5 -47t-39.5 -33v-2q34 -12 53 -38.5t19 -60.5q0 -60 -46 -92.5t-125 -32.5zM620 64q31 0 48.5 15t17.5 40q0 26 -17 42.5t-48 16.5t-48.5 -16.5t-17.5 -42.5q0 -25 17.5 -40t47.5 -15zM620 242q27 0 41 13.5t14 34.5q0 20 -14 33.5t-41 13.5t-41 -13.5t-14 -33.5
q0 -21 14 -34.5t41 -13.5z" />
    <glyph glyph-name="uni2219" unicode="&#x2219;" horiz-adv-x="218" 
d="M36 388h146v-145h-146v145z" />
    <glyph glyph-name="glyph194" 
 />
    <glyph glyph-name="glyph195" 
 />
    <glyph glyph-name="glyph196" 
 />
    <glyph glyph-name="glyph197" 
 />
    <glyph glyph-name="glyph198" 
 />
    <glyph glyph-name="glyph199" 
 />
    <glyph glyph-name="glyph200" 
 />
    <glyph glyph-name="glyph201" 
 />
    <glyph glyph-name="glyph202" 
 />
    <glyph glyph-name="glyph203" 
 />
    <glyph glyph-name="glyph204" 
 />
    <glyph glyph-name="glyph205" 
 />
    <glyph glyph-name="glyph206" 
 />
    <glyph glyph-name="glyph207" 
 />
    <glyph glyph-name="glyph208" 
 />
    <glyph glyph-name="glyph209" 
 />
    <glyph glyph-name="glyph210" 
 />
    <glyph glyph-name="glyph211" 
 />
    <glyph glyph-name="glyph212" 
 />
    <glyph glyph-name="glyph213" 
 />
    <glyph glyph-name="glyph214" 
 />
    <glyph glyph-name="glyph215" 
 />
    <glyph glyph-name="glyph216" 
 />
    <glyph glyph-name="glyph217" 
 />
    <glyph glyph-name="glyph218" 
 />
    <glyph glyph-name="glyph219" 
 />
    <glyph glyph-name="glyph220" 
 />
    <glyph glyph-name="glyph221" 
 />
    <glyph glyph-name="glyph222" 
 />
    <glyph glyph-name="glyph223" 
 />
    <glyph glyph-name="glyph224" 
 />
    <glyph glyph-name="glyph225" 
 />
    <glyph glyph-name="glyph226" 
 />
    <glyph glyph-name="glyph227" 
 />
    <glyph glyph-name="glyph228" 
 />
    <glyph glyph-name="glyph229" 
 />
    <glyph glyph-name="glyph230" 
 />
    <glyph glyph-name="glyph231" 
 />
    <glyph glyph-name="glyph232" 
 />
    <glyph glyph-name="glyph233" 
 />
    <glyph glyph-name="glyph234" 
 />
    <glyph glyph-name="glyph235" 
 />
    <glyph glyph-name="glyph236" 
 />
    <glyph glyph-name="glyph237" 
 />
    <glyph glyph-name="glyph238" 
 />
    <glyph glyph-name="glyph239" 
 />
    <glyph glyph-name="glyph240" 
 />
    <glyph glyph-name="glyph241" 
 />
    <glyph glyph-name="glyph242" 
 />
    <glyph glyph-name="glyph243" 
 />
    <glyph glyph-name="glyph244" 
 />
    <glyph glyph-name="glyph245" 
 />
    <glyph glyph-name="glyph246" 
 />
    <glyph glyph-name="glyph247" 
 />
    <glyph glyph-name="glyph248" 
 />
    <glyph glyph-name="glyph249" 
 />
    <glyph glyph-name="glyph250" 
 />
    <glyph glyph-name="glyph251" 
 />
    <glyph glyph-name="glyph252" 
 />
    <glyph glyph-name="glyph253" 
 />
    <glyph glyph-name="glyph254" 
 />
    <glyph glyph-name="glyph255" 
 />
    <glyph glyph-name="glyph256" 
 />
    <glyph glyph-name="glyph257" 
 />
    <glyph glyph-name="glyph258" 
 />
    <glyph glyph-name="glyph259" 
 />
    <glyph glyph-name="glyph260" 
 />
    <glyph glyph-name="glyph261" 
 />
    <glyph glyph-name="glyph262" 
 />
    <glyph glyph-name="glyph263" 
 />
    <glyph glyph-name="glyph264" 
 />
    <glyph glyph-name="glyph265" 
 />
    <glyph glyph-name="glyph266" 
 />
    <glyph glyph-name="glyph267" 
 />
    <glyph glyph-name="glyph268" 
 />
    <glyph glyph-name="glyph269" 
 />
    <glyph glyph-name="glyph270" 
 />
    <glyph glyph-name="glyph271" 
 />
    <glyph glyph-name="glyph272" 
 />
    <glyph glyph-name="glyph273" 
 />
    <glyph glyph-name="glyph274" 
 />
    <glyph glyph-name="glyph275" 
 />
    <glyph glyph-name="glyph278" 
 />
    <glyph glyph-name="glyph279" 
 />
    <glyph glyph-name="glyph280" 
 />
    <glyph glyph-name="glyph281" 
 />
    <glyph glyph-name="glyph282" 
 />
    <glyph glyph-name="glyph283" 
 />
    <glyph glyph-name="glyph284" 
 />
    <glyph glyph-name="glyph285" 
 />
    <glyph glyph-name="glyph286" 
 />
    <glyph glyph-name="glyph287" 
 />
    <glyph glyph-name="glyph288" 
 />
    <glyph glyph-name="glyph289" 
 />
    <glyph glyph-name="glyph292" 
 />
    <glyph glyph-name="glyph293" 
 />
    <glyph glyph-name="glyph294" 
 />
    <glyph glyph-name="glyph295" 
 />
    <glyph glyph-name="glyph296" 
 />
    <glyph glyph-name="glyph297" 
 />
    <glyph glyph-name="glyph298" 
 />
    <glyph glyph-name="glyph299" 
 />
    <glyph glyph-name="glyph300" 
 />
    <glyph glyph-name="glyph301" 
 />
    <glyph glyph-name="glyph302" 
 />
    <glyph glyph-name="glyph303" 
 />
    <glyph glyph-name="glyph304" 
 />
    <glyph glyph-name="glyph305" 
 />
    <glyph glyph-name="glyph306" 
 />
    <glyph glyph-name="glyph307" 
 />
    <glyph glyph-name="glyph308" 
 />
    <glyph glyph-name="glyph309" 
 />
    <glyph glyph-name="glyph310" 
 />
    <glyph glyph-name="glyph311" 
 />
    <glyph glyph-name="glyph312" 
 />
    <glyph glyph-name="glyph313" 
 />
    <glyph glyph-name="glyph314" 
 />
    <glyph glyph-name="glyph315" 
 />
    <glyph glyph-name="glyph317" 
 />
    <glyph glyph-name="glyph318" 
 />
    <glyph glyph-name="glyph319" 
 />
    <glyph glyph-name="glyph320" 
 />
    <glyph glyph-name="glyph324" 
 />
    <glyph glyph-name="glyph325" 
 />
    <glyph glyph-name="glyph326" 
 />
    <glyph glyph-name="glyph328" 
 />
    <glyph glyph-name="glyph329" 
 />
    <glyph glyph-name="glyph330" 
 />
    <glyph glyph-name="glyph331" 
 />
    <glyph glyph-name="glyph332" 
 />
    <glyph glyph-name="glyph333" 
 />
    <glyph glyph-name="glyph335" 
 />
    <glyph glyph-name="glyph336" 
 />
    <glyph glyph-name="glyph337" 
 />
    <glyph glyph-name="glyph338" 
 />
    <glyph glyph-name="glyph339" 
 />
    <glyph glyph-name="glyph340" 
 />
    <glyph glyph-name="glyph341" 
 />
    <glyph glyph-name="glyph342" 
 />
    <glyph glyph-name="glyph343" 
 />
    <glyph glyph-name="glyph344" 
 />
    <glyph glyph-name="glyph345" 
 />
    <glyph glyph-name="glyph346" 
 />
    <glyph glyph-name="glyph347" 
 />
    <glyph glyph-name="glyph348" 
 />
    <glyph glyph-name="glyph366" 
 />
    <glyph glyph-name="glyph368" 
 />
    <glyph glyph-name="glyph369" 
 />
    <glyph glyph-name="glyph370" 
 />
    <glyph glyph-name="glyph371" 
 />
    <glyph glyph-name="glyph372" 
 />
    <glyph glyph-name="glyph373" 
 />
    <glyph glyph-name="glyph374" 
 />
    <glyph glyph-name="glyph375" 
 />
    <glyph glyph-name="glyph377" 
 />
    <glyph glyph-name="glyph378" 
 />
    <glyph glyph-name="glyph379" 
 />
    <glyph glyph-name="glyph380" 
 />
    <glyph glyph-name="glyph381" 
 />
    <glyph glyph-name="glyph382" 
 />
    <glyph glyph-name="glyph383" 
 />
    <glyph glyph-name="glyph384" 
 />
    <glyph glyph-name="glyph385" 
 />
    <glyph glyph-name="glyph391" 
 />
    <glyph glyph-name="glyph392" 
 />
    <glyph glyph-name="zero.dnom" horiz-adv-x="418" 
d="M210 -9q-41 0 -74.5 14.5t-58.5 41.5t-38.5 65.5t-13.5 85.5t14 85.5t38.5 65.5t58.5 41.5t74 14.5t74 -14.5t58 -41.5t37.5 -65t13.5 -86q0 -47 -13.5 -85.5t-37.5 -65.5t-58 -41.5t-74 -14.5zM210 68q37 0 56 34.5t19 95.5q0 60 -19.5 95.5t-55.5 35.5q-38 0 -57 -35
t-19 -96q0 -60 19 -95t57 -35z" />
    <glyph glyph-name="one.dnom" horiz-adv-x="267" 
d="M113 249h-91v71q43 2 72.5 21t37.5 59h85v-400h-104v249z" />
    <glyph glyph-name="two.dnom" horiz-adv-x="372" 
d="M26 0q1 59 29 97t67 65q25 18 46.5 31t37.5 25t24.5 25t8.5 31q0 22 -12 35.5t-37 13.5q-28 0 -44.5 -19t-16.5 -54h-97q0 75 43 115t118 40q36 0 64 -10t46.5 -27.5t28.5 -40.5t10 -49q0 -45 -21 -72.5t-51 -49.5q-29 -21 -59.5 -38t-45.5 -36h179v-82h-318v0z" />
    <glyph glyph-name="three.dnom" horiz-adv-x="374" 
d="M188 -9q-87 0 -127.5 39.5t-41.5 104.5h103q1 -30 15 -49t49 -19q29 0 43 14.5t14 37.5q0 51 -63 51h-24v72h21q57 0 57 45q0 20 -11.5 31.5t-35.5 11.5q-30 0 -42 -16.5t-14 -40.5h-100q2 57 43 94.5t116 37.5q66 0 107.5 -29.5t41.5 -82.5q0 -30 -17.5 -48.5
t-43.5 -29.5v-2q32 -11 53 -34.5t21 -63.5q0 -32 -13 -55.5t-35.5 -38.5t-52.5 -22.5t-63 -7.5z" />
    <glyph glyph-name="four.dnom" horiz-adv-x="399" 
d="M215 84h-189v91l188 227h103v-242h59v-76h-59v-84h-102v84zM105 160h110v133h-1l-109 -132v-1z" />
    <glyph glyph-name="five.dnom" horiz-adv-x="381" 
d="M189 -9q-35 0 -64.5 8.5t-52 24.5t-36 39.5t-16.5 53.5h96q5 -24 24.5 -36t46.5 -12q28 0 45.5 18t17.5 47q0 32 -18.5 48t-44.5 16q-20 0 -35.5 -6.5t-23.5 -17.5h-92l40 223h251v-79h-180l-14 -73h2q12 11 32.5 18t49.5 7q28 0 53 -9.5t43.5 -27t29 -42t10.5 -55.5
q0 -33 -12 -60t-33.5 -45.5t-52 -29t-66.5 -10.5z" />
    <glyph glyph-name="six.dnom" horiz-adv-x="385" 
d="M201 -9q-44 0 -77 15t-55.5 42t-33.5 64.5t-11 83.5q-2 100 48 157q22 25 54 38.5t76 13.5q63 0 100 -29t47 -79h-97q-4 14 -15 24.5t-34 10.5q-34 0 -54 -26.5t-23 -74.5h1q17 17 38 27t53 10q29 0 55 -9t45.5 -26.5t31 -43t11.5 -57.5t-12 -58t-33 -44.5t-50.5 -28.5
t-64.5 -10zM195 66q29 0 46.5 18.5t17.5 47.5t-17.5 47.5t-46.5 18.5q-30 0 -48 -18.5t-18 -47.5t18.5 -47.5t47.5 -18.5z" />
    <glyph glyph-name="seven.dnom" horiz-adv-x="352" 
d="M79 0q2 52 14.5 98t32 85t43.5 71t48 56v1h-195v86h302v-78q-26 -26 -49.5 -60t-41.5 -74t-29 -86.5t-12 -98.5h-113v0z" />
    <glyph glyph-name="eight.dnom" horiz-adv-x="389" 
d="M195 -9q-79 0 -125.5 32.5t-46.5 89.5q0 34 19.5 60t53.5 40v2q-56 25 -56 80q0 50 42 80t113 30t112 -28.5t41 -79.5q0 -26 -14.5 -47t-39.5 -33v-2q34 -12 53 -38.5t19 -60.5q0 -60 -46 -92.5t-125 -32.5zM194 64q31 0 48.5 15t17.5 40q0 26 -17 42.5t-48 16.5
t-48.5 -16.5t-17.5 -42.5q0 -25 17.5 -40t47.5 -15zM194 242q27 0 41 13.5t14 34.5q0 20 -14 33.5t-41 13.5t-41 -13.5t-14 -33.5q0 -21 14 -34.5t41 -13.5z" />
    <glyph glyph-name="nine.dnom" horiz-adv-x="384" 
d="M189 -10q-66 0 -106.5 30.5t-48.5 78.5h98q5 -14 18 -24.5t37 -10.5q67 0 71 95h-1q-15 -16 -36.5 -26.5t-51.5 -10.5t-56.5 10t-46.5 28t-31.5 44t-11.5 58t12.5 58.5t34 45t51.5 29t66 10.5q35 0 64.5 -10.5t50.5 -29.5q57 -51 57 -165q0 -48 -10 -89.5t-35 -69.5
q-22 -25 -52.5 -38t-72.5 -13zM188 197q30 0 48.5 18t18.5 47t-18.5 48t-47.5 19q-30 0 -48.5 -19t-18.5 -47q0 -29 17.5 -47.5t48.5 -18.5z" />
    <glyph glyph-name="zero.numr" horiz-adv-x="418" 
d="M210 309q-41 0 -74.5 14.5t-58.5 41.5t-38.5 65.5t-13.5 85.5t14 85.5t38.5 65.5t58.5 41.5t74 14.5t74 -14.5t58 -41.5t37.5 -65t13.5 -86q0 -47 -13.5 -85.5t-37.5 -65.5t-58 -41.5t-74 -14.5zM210 391q37 0 54.5 32t17.5 93q0 60 -18 93t-54 33q-38 0 -55.5 -32.5
t-17.5 -93.5q0 -60 17.5 -92.5t55.5 -32.5z" />
    <glyph glyph-name="one.numr" horiz-adv-x="267" 
d="M113 567h-91v71q43 2 72.5 21t37.5 59h85v-400h-104v249z" />
    <glyph glyph-name="two.numr" horiz-adv-x="372" 
d="M26 318q1 59 29 97t67 65q25 18 46.5 31t37.5 25t24.5 25t8.5 31q0 22 -12 35.5t-37 13.5q-28 0 -44.5 -19t-16.5 -54h-97q0 75 43 115t118 40q36 0 64 -10t46.5 -27.5t28.5 -40.5t10 -49q0 -45 -22.5 -71.5t-52.5 -48.5q-29 -21 -59 -38.5t-45 -37.5h181v-82h-318v0z
" />
    <glyph glyph-name="three.numr" horiz-adv-x="374" 
d="M188 309q-87 0 -127.5 39.5t-41.5 104.5h103q1 -30 15 -49t49 -19q29 0 43 14.5t14 37.5q0 51 -63 51h-24v72h21q57 0 57 45q0 20 -11.5 31.5t-35.5 11.5q-30 0 -42 -16.5t-14 -40.5h-100q2 57 43 94.5t116 37.5q66 0 107.5 -29.5t41.5 -82.5q0 -30 -17.5 -48.5
t-43.5 -29.5v-2q32 -11 53 -34.5t21 -63.5q0 -32 -13 -55.5t-35.5 -38.5t-52.5 -22.5t-63 -7.5z" />
    <glyph glyph-name="four.numr" horiz-adv-x="399" 
d="M215 402h-189v91l188 227h103v-242h59v-76h-59v-84h-102v84zM105 478h110v133h-1l-109 -132v-1z" />
    <glyph glyph-name="five.numr" horiz-adv-x="381" 
d="M189 309q-35 0 -64.5 8.5t-52 24.5t-36 39.5t-16.5 53.5h100q5 -22 22.5 -33t44.5 -11q28 0 43 17t15 44q0 30 -16 46.5t-42 16.5q-38 0 -56 -23h-95l40 223h251v-82h-180l-13 -67h2q12 11 32 18t49 7q30 0 55 -10t43 -28t28 -43t10 -56q0 -66 -44.5 -105.5t-119.5 -39.5
z" />
    <glyph glyph-name="six.numr" horiz-adv-x="387" 
d="M204 309q-44 0 -77 15t-55.5 42t-34 64.5t-11.5 83.5q-1 98 50 158q22 25 53.5 38t75.5 13q63 0 101 -29t48 -79h-104q-4 12 -14 21.5t-33 9.5q-32 0 -50.5 -25.5t-21.5 -71.5h1q15 17 36.5 27t54.5 10q28 0 54 -9t46 -26.5t31.5 -42.5t11.5 -57t-12 -58t-33.5 -45
t-51.5 -29t-65 -10zM199 389q27 0 44.5 17.5t17.5 44.5q0 28 -17 46t-45 18q-29 0 -47 -18t-18 -46t18.5 -45t46.5 -17z" />
    <glyph glyph-name="seven.numr" horiz-adv-x="352" 
d="M79 318q2 52 14.5 98t32 85t43.5 71t48 56v1h-195v86h302v-78q-26 -26 -49.5 -60t-41.5 -74t-29 -86.5t-12 -98.5h-113v0z" />
    <glyph glyph-name="eight.numr" horiz-adv-x="389" 
d="M195 309q-79 0 -125.5 32.5t-46.5 89.5q0 34 19.5 60t53.5 40v2q-56 25 -56 80q0 50 42 80t113 30t112 -28.5t41 -79.5q0 -26 -14.5 -47t-39.5 -33v-2q34 -12 53 -38.5t19 -60.5q0 -60 -46 -92.5t-125 -32.5zM194 382q31 0 48.5 15t17.5 40q0 26 -17 42.5t-48 16.5
t-48.5 -16.5t-17.5 -42.5q0 -25 17.5 -40t47.5 -15zM194 560q27 0 41 13.5t14 34.5q0 20 -14 33.5t-41 13.5t-41 -13.5t-14 -33.5q0 -21 14 -34.5t41 -13.5z" />
    <glyph glyph-name="nine.numr" horiz-adv-x="386" 
d="M182 723q45 0 78.5 -15t55.5 -42t33 -64.5t11 -83.5q1 -50 -10.5 -88.5t-37.5 -69.5q-22 -25 -54 -38.5t-74 -13.5q-66 0 -106.5 29.5t-50.5 79.5h104q4 -11 16 -21t35 -10q32 0 51 21.5t22 71.5h-1q-15 -17 -36.5 -27t-54.5 -10q-29 0 -54.5 9.5t-45 27t-31 43
t-11.5 57.5t12 58.5t33.5 45.5t51 29.5t64.5 10.5zM186 644q-27 0 -45 -19t-18 -46q0 -28 17.5 -46.5t45.5 -18.5q29 0 46.5 18.5t17.5 46.5t-18 46.5t-46 18.5z" />
    <glyph glyph-name="glyph430" 
 />
    <glyph glyph-name="glyph431" 
 />
    <glyph glyph-name="glyph432" 
 />
    <glyph glyph-name="glyph433" 
 />
    <glyph glyph-name="glyph434" 
 />
    <glyph glyph-name="glyph435" 
 />
    <glyph glyph-name="glyph436" 
 />
    <glyph glyph-name="glyph437" 
 />
    <glyph glyph-name="glyph438" 
 />
    <glyph glyph-name="glyph439" 
 />
    <glyph glyph-name="glyph440" 
 />
    <glyph glyph-name="glyph441" 
 />
    <glyph glyph-name="glyph442" 
 />
    <glyph glyph-name="R.ss01" horiz-adv-x="655" 
d="M323 276h-118v-276h-150v715h314q63 0 109 -17.5t78 -49.5q30 -31 47 -69t17 -86q0 -75 -37 -126t-105 -74l179 -293h-168zM205 394h150q57 0 86.5 25t29.5 73q0 49 -30 73t-84 24h-152v-195z" />
    <glyph glyph-name="glyph444" 
 />
    <glyph glyph-name="glyph445" 
 />
    <glyph glyph-name="glyph446" 
 />
    <glyph glyph-name="glyph447" 
 />
    <glyph glyph-name="glyph448" 
 />
    <glyph glyph-name="glyph449" 
 />
    <glyph glyph-name="glyph450" 
 />
    <glyph glyph-name="glyph451" horiz-adv-x="224" 
d="M44 513h136v-513h-136v513zM44 715h136v-122h-136v122z" />
    <glyph glyph-name="glyph452" 
 />
    <glyph glyph-name="glyph453" 
 />
    <glyph glyph-name="glyph454" 
 />
    <glyph glyph-name="glyph455" 
 />
    <glyph glyph-name="glyph456" 
 />
    <glyph glyph-name="a.ss02" horiz-adv-x="523" 
d="M461 -8q-49 0 -75 15.5t-34 53.5q-20 -29 -55 -51t-101 -22q-79 0 -128 39.5t-49 116.5q0 42 16 71t44 48t65.5 30t80.5 17q64 9 94 19t30 39q0 28 -23 44.5t-68 16.5q-48 0 -71.5 -17t-25.5 -55h-121q1 34 14.5 64.5t40 53.5t67.5 37t98 14q117 0 168.5 -49.5
t51.5 -139.5v-210q0 -25 6.5 -34.5t29.5 -5.5h3v-83q-9 -5 -22 -8.5t-36 -3.5zM231 83q29 0 51.5 8.5t38 22t23.5 31t8 36.5v76q-18 -11 -43.5 -17.5t-51.5 -12.5q-54 -12 -80 -27.5t-26 -51.5q0 -35 22 -50t58 -15z" />
    <glyph glyph-name="agrave.ss02" horiz-adv-x="523" 
d="M461 -8q-49 0 -75 15.5t-34 53.5q-20 -29 -55 -51t-101 -22q-79 0 -128 39.5t-49 116.5q0 42 16 71t44 48t65.5 30t80.5 17q64 9 94 19t30 39q0 28 -23 44.5t-68 16.5q-48 0 -71.5 -17t-25.5 -55h-121q1 34 14.5 64.5t40 53.5t67.5 37t98 14q117 0 168.5 -49.5
t51.5 -139.5v-210q0 -25 6.5 -34.5t29.5 -5.5h3v-83q-9 -5 -22 -8.5t-36 -3.5zM231 83q29 0 51.5 8.5t38 22t23.5 31t8 36.5v76q-18 -11 -43.5 -17.5t-51.5 -12.5q-54 -12 -80 -27.5t-26 -51.5q0 -35 22 -50t58 -15zM110 718h159l55 -141h-106z" />
    <glyph glyph-name="aacute.ss02" horiz-adv-x="523" 
d="M461 -8q-49 0 -75 15.5t-34 53.5q-20 -29 -55 -51t-101 -22q-79 0 -128 39.5t-49 116.5q0 42 16 71t44 48t65.5 30t80.5 17q64 9 94 19t30 39q0 28 -23 44.5t-68 16.5q-48 0 -71.5 -17t-25.5 -55h-121q1 34 14.5 64.5t40 53.5t67.5 37t98 14q117 0 168.5 -49.5
t51.5 -139.5v-210q0 -25 6.5 -34.5t29.5 -5.5h3v-83q-9 -5 -22 -8.5t-36 -3.5zM231 83q29 0 51.5 8.5t38 22t23.5 31t8 36.5v76q-18 -11 -43.5 -17.5t-51.5 -12.5q-54 -12 -80 -27.5t-26 -51.5q0 -35 22 -50t58 -15zM318 577h-106l55 141h159z" />
    <glyph glyph-name="acircumflex.ss02" horiz-adv-x="523" 
d="M461 -8q-49 0 -75 15.5t-34 53.5q-20 -29 -55 -51t-101 -22q-79 0 -128 39.5t-49 116.5q0 42 16 71t44 48t65.5 30t80.5 17q64 9 94 19t30 39q0 28 -23 44.5t-68 16.5q-48 0 -71.5 -17t-25.5 -55h-121q1 34 14.5 64.5t40 53.5t67.5 37t98 14q117 0 168.5 -49.5
t51.5 -139.5v-210q0 -25 6.5 -34.5t29.5 -5.5h3v-83q-9 -5 -22 -8.5t-36 -3.5zM231 83q29 0 51.5 8.5t38 22t23.5 31t8 36.5v76q-18 -11 -43.5 -17.5t-51.5 -12.5q-54 -12 -80 -27.5t-26 -51.5q0 -35 22 -50t58 -15zM192 707h146l96 -126h-118l-48 69h-2l-49 -69h-119z" />
    <glyph glyph-name="atilde.ss02" horiz-adv-x="523" 
d="M461 -8q-49 0 -75 15.5t-34 53.5q-20 -29 -55 -51t-101 -22q-79 0 -128 39.5t-49 116.5q0 42 16 71t44 48t65.5 30t80.5 17q64 9 94 19t30 39q0 28 -23 44.5t-68 16.5q-48 0 -71.5 -17t-25.5 -55h-121q1 34 14.5 64.5t40 53.5t67.5 37t98 14q117 0 168.5 -49.5
t51.5 -139.5v-210q0 -25 6.5 -34.5t29.5 -5.5h3v-83q-9 -5 -22 -8.5t-36 -3.5zM231 83q29 0 51.5 8.5t38 22t23.5 31t8 36.5v76q-18 -11 -43.5 -17.5t-51.5 -12.5q-54 -12 -80 -27.5t-26 -51.5q0 -35 22 -50t58 -15zM324 575q-18 0 -33.5 5t-29 11.5t-25 11.5t-21.5 5
q-22 0 -27 -31h-72q0 59 26 88.5t64 29.5q18 0 33.5 -5.5t29 -12t25 -12t21.5 -5.5q14 0 20 8.5t9 22.5h72q0 -51 -24 -83.5t-68 -32.5z" />
    <glyph glyph-name="adieresis.ss02" horiz-adv-x="523" 
d="M461 -8q-49 0 -75 15.5t-34 53.5q-20 -29 -55 -51t-101 -22q-79 0 -128 39.5t-49 116.5q0 42 16 71t44 48t65.5 30t80.5 17q64 9 94 19t30 39q0 28 -23 44.5t-68 16.5q-48 0 -71.5 -17t-25.5 -55h-121q1 34 14.5 64.5t40 53.5t67.5 37t98 14q117 0 168.5 -49.5
t51.5 -139.5v-210q0 -25 6.5 -34.5t29.5 -5.5h3v-83q-9 -5 -22 -8.5t-36 -3.5zM231 83q29 0 51.5 8.5t38 22t23.5 31t8 36.5v76q-18 -11 -43.5 -17.5t-51.5 -12.5q-54 -12 -80 -27.5t-26 -51.5q0 -35 22 -50t58 -15zM314 695h128v-114h-128v114zM91 695h128v-114h-128v114z
" />
    <glyph glyph-name="glyph469" 
 />
    <glyph glyph-name="glyph470" 
 />
    <glyph glyph-name="aring.ss02" horiz-adv-x="523" 
d="M461 -8q-49 0 -75 15.5t-34 53.5q-20 -29 -55 -51t-101 -22q-79 0 -128 39.5t-49 116.5q0 42 16 71t44 48t65.5 30t80.5 17q64 9 94 19t30 39q0 28 -23 44.5t-68 16.5q-48 0 -71.5 -17t-25.5 -55h-121q1 34 14.5 64.5t40 53.5t67.5 37t98 14q117 0 168.5 -49.5
t51.5 -139.5v-210q0 -25 6.5 -34.5t29.5 -5.5h3v-83q-9 -5 -22 -8.5t-36 -3.5zM231 83q29 0 51.5 8.5t38 22t23.5 31t8 36.5v76q-18 -11 -43.5 -17.5t-51.5 -12.5q-54 -12 -80 -27.5t-26 -51.5q0 -35 22 -50t58 -15zM266 561q-40 0 -68.5 27t-28.5 67q0 19 7.5 36.5t21 30
t31 20t37.5 7.5t37.5 -7.5t31 -20t21 -30t7.5 -36.5q0 -40 -28.5 -67t-68.5 -27zM266 608q20 0 32.5 13.5t12.5 33.5t-12.5 33.5t-32.5 13.5t-32.5 -13.5t-12.5 -33.5t12.5 -33.5t32.5 -13.5z" />
    <glyph glyph-name="glyph472" 
 />
    <glyph glyph-name="Ccedilla.ss03" horiz-adv-x="684" 
d="M296 -140q23 2 38 11t15 31h-51v73h107v-51q0 -28 -8 -45.5t-22.5 -28t-34.5 -14.5t-44 -4v28zM368 -15q-75 0 -138.5 27.5t-109 77t-71 117t-25.5 148.5q0 79 24 147.5t68.5 119t108 79t142.5 28.5q66 0 118 -18.5t89.5 -51t59.5 -76.5t28 -95h-144q-10 54 -49 86.5
t-102 32.5q-50 0 -86.5 -19.5t-60.5 -53.5t-36 -80t-12 -99q0 -55 13.5 -101t39 -79.5t62 -52t81.5 -18.5q64 0 105.5 34.5t48.5 91.5h142q-3 -48 -23 -91.5t-56 -77.5q-37 -35 -89.5 -55.5t-127.5 -20.5z" />
    <glyph glyph-name="glyph474" 
 />
    <glyph glyph-name="ccedilla.ss03" horiz-adv-x="528" 
d="M220 -140q23 2 38 11t15 31h-51v73h107v-51q0 -28 -8 -45.5t-22.5 -28t-34.5 -14.5t-44 -4v28zM282 -15q-61 0 -109.5 21t-82.5 57.5t-52.5 86t-18.5 106.5t18 106.5t51.5 86t80.5 57.5t106 21q50 0 90 -14t69.5 -38.5t48 -59t25.5 -76.5h-133q-7 34 -31.5 56.5
t-62.5 22.5q-62 0 -93 -43.5t-31 -118.5q0 -73 29.5 -117.5t92.5 -44.5q42 0 69 21.5t34 65.5h131q-3 -41 -20.5 -76.5t-47 -62t-71 -42t-92.5 -15.5z" />
    <glyph glyph-name="glyph476" 
 />
    <glyph glyph-name="hyphen.case" horiz-adv-x="342" 
d="M28 379h286v-127h-286v127z" />
    <glyph glyph-name="endash.case" horiz-adv-x="500" 
d="M0 381h500v-117h-500v117z" />
    <glyph glyph-name="emdash.case" horiz-adv-x="1000" 
d="M100 381h800v-117h-800v117z" />
    <glyph glyph-name="questiondown.case" horiz-adv-x="525" 
d="M259 -13q-57 0 -102.5 16t-76.5 44t-47.5 66.5t-16.5 82.5q0 37 9 64t22.5 47t30.5 34.5t33 26.5q28 21 48 35.5t32.5 28.5t18 30.5t5.5 43.5h122q0 -44 -7.5 -73t-21.5 -49.5t-33 -36t-42 -31.5q-16 -12 -30.5 -23t-26 -24t-18 -29.5t-6.5 -39.5q0 -46 30 -72t76 -26
q56 0 90 33t35 92h129q-1 -50 -18 -93.5t-48.5 -76t-78.5 -51.5t-108 -19zM203 715h146v-145h-146v145z" />
    <glyph glyph-name="exclamdown.case" horiz-adv-x="254" 
d="M56 158l38 348h66l38 -348v-158h-142v158zM54 715h146v-145h-146v145z" />
    <glyph glyph-name="parenleft.case" horiz-adv-x="346" 
d="M219 -101q-30 42 -57.5 90t-48.5 102.5t-33.5 116t-12.5 130.5q0 71 12.5 134.5t33.5 120t48 104.5t57 87h116q-27 -43 -50 -91t-39.5 -103t-26 -117.5t-9.5 -134.5q0 -68 9.5 -128t26.5 -114.5t39.5 -103t48.5 -93.5h-114v0z" />
    <glyph glyph-name="parenright.case" horiz-adv-x="346" 
d="M13 -101q26 45 48.5 93.5t39.5 103t26.5 114.5t9.5 128q0 72 -9.5 134.5t-26 117.5t-39.5 103t-50 91h116q30 -39 57 -87t48 -104.5t33.5 -120t12.5 -134.5q0 -69 -12.5 -130.5t-33.5 -116t-48.5 -102.5t-57.5 -90h-114v0z" />
    <glyph glyph-name="bracketleft.case" horiz-adv-x="382" 
d="M64 784h286v-106h-155v-673h155v-106h-286v885z" />
    <glyph glyph-name="bracketright.case" horiz-adv-x="382" 
d="M32 5h155v673h-155v106h286v-885h-286v106z" />
    <glyph glyph-name="braceleft.case" horiz-adv-x="382" 
d="M318 -101q-52 0 -91 8.5t-65.5 30t-40 57t-13.5 89.5v132q0 38 -18 56.5t-65 20.5v100q47 2 65 20.5t18 56.5v130q0 54 13.5 89.5t40 56.5t65.5 29.5t91 8.5h32v-106h-27q-42 0 -63 -14.5t-21 -63.5v-152q0 -46 -14.5 -69t-45.5 -34v-3q31 -12 45.5 -34.5t14.5 -68.5
v-155q0 -48 21 -63.5t63 -15.5h27v-106h-32v0z" />
    <glyph glyph-name="braceright.case" horiz-adv-x="382" 
d="M32 5h27q42 0 63 14.5t21 63.5v155q0 46 14.5 69t45.5 34v3q-31 12 -45.5 34.5t-14.5 68.5v152q0 48 -21 63.5t-63 15.5h-27v106h32q52 0 91 -8.5t65.5 -30t40 -57t13.5 -89.5v-129q0 -38 18 -56.5t65 -20.5v-100q-47 -2 -65 -20.5t-18 -56.5v-133q0 -54 -13.5 -89.5
t-40 -56.5t-65.5 -29.5t-91 -8.5h-32v106z" />
    <glyph glyph-name="guillemotleft.case" horiz-adv-x="447" 
d="M244 247v132l144 133v-128l-80 -71v-2l80 -71v-126zM54 247v132l144 133v-128l-80 -71v-2l80 -71v-126z" />
    <glyph glyph-name="guillemotright.case" horiz-adv-x="447" 
d="M203 379v-132l-144 -133v128l80 71v2l-80 71v126zM393 379v-132l-144 -133v128l80 71v2l-80 71v126z" />
    <glyph glyph-name="guilsinglleft.case" horiz-adv-x="277" 
d="M54 250v126l164 140v-131l-88 -72v-2l88 -72v-129z" />
    <glyph glyph-name="guilsinglright.case" horiz-adv-x="277" 
d="M223 376v-126l-164 -140v131l88 72v2l-88 72v129z" />
    <glyph glyph-name="glyph492" 
 />
    <glyph glyph-name="glyph493" 
 />
    <glyph glyph-name="glyph494" 
 />
    <glyph glyph-name="glyph495" 
 />
    <glyph glyph-name="dollar.case" horiz-adv-x="633" 
d="M290 -8q-128 8 -196.5 68t-71.5 165h141q6 -57 36.5 -84.5t90.5 -32.5v197q-51 12 -96 25.5t-79 36.5t-53.5 58.5t-19.5 89.5q0 50 18.5 88t51.5 64.5t78.5 41t99.5 17.5v66h61v-67q103 -9 165 -64.5t70 -153.5h-137q-5 43 -31.5 68.5t-66.5 33.5v-179q52 -11 98 -25.5
t80 -38.5t54 -60.5t20 -91.5q0 -51 -18.5 -91t-52 -68.5t-80 -44t-101.5 -18.5v-93h-61v93zM460 198q0 21 -8 35.5t-22 25t-34.5 18t-44.5 14.5v-183q45 5 77 26t32 64zM184 530q0 -35 26 -53.5t80 -32.5v168q-49 -5 -77.5 -26t-28.5 -56z" />
    <glyph glyph-name="Euro.case" horiz-adv-x="654" 
d="M17 446h56q10 64 36 116t64 89t88 57.5t110 20.5t107 -18t80 -50t52.5 -76t24.5 -97h-140q-9 58 -39.5 90.5t-84.5 32.5q-63 0 -100.5 -44.5t-51.5 -120.5h187v-61h-193q-1 -7 -1 -14.5v-14.5v-19t1 -18h193v-61h-186q15 -75 54 -115.5t102 -40.5q60 0 91 41.5t38 104.5
h136q-3 -58 -22 -106.5t-52.5 -83.5t-82 -54.5t-110.5 -19.5q-59 0 -109 19t-88.5 54.5t-64.5 86.5t-38 114h-57v61h50q-1 9 -1 18v19v14.5t1 14.5h-50v61z" />
    <glyph glyph-name="sterling.case" horiz-adv-x="602" 
d="M32 394h47q-13 26 -22.5 55t-9.5 65q0 46 17 85t50.5 68t83 45.5t113.5 16.5q57 0 105.5 -14t84.5 -46t55 -78t21 -117h-141q-1 75 -35.5 107.5t-88.5 32.5q-56 0 -85.5 -28.5t-29.5 -76.5q0 -31 11.5 -59t25.5 -56h155v-90h-124q1 -7 1.5 -14.5t0.5 -14.5
q0 -44 -21.5 -80.5t-59.5 -64.5l2 -3q17 7 37 13t44 6q28 0 47.5 -5t36 -10.5t33 -10.5t38.5 -5q30 0 56.5 14t45.5 31l65 -110q-32 -27 -75 -46t-91 -19q-38 0 -65 7.5t-51 17t-47.5 17t-53.5 7.5q-32 0 -57.5 -13t-49.5 -29l-72 106q43 29 71 67t28 88q0 13 -2 26t-5 25
h-89v90z" />
    <glyph glyph-name="yen.case" horiz-adv-x="628" 
d="M65 336h153l-210 379h162l103 -208q8 -15 15.5 -31t13.5 -30q7 -16 14 -31h2q7 15 14 31q6 14 13 30t15 31l102 208h158l-212 -379h157v-61h-182v-66h182v-61h-182v-148h-136v148h-182v61h182v66h-182v61z" />
    <glyph glyph-name="zero.case" horiz-adv-x="657" 
d="M329 -16q-69 0 -124 26t-94 75t-60 117.5t-21 154.5t21.5 155t60.5 117t94.5 74t123.5 26q69 0 124.5 -26t93.5 -74t58.5 -117t20.5 -155t-20.5 -154.5t-59 -117.5t-93.5 -75t-125 -26zM330 103q40 0 68 18t46 51.5t26.5 80.5t8.5 104t-8.5 103.5t-26.5 79.5t-46.5 51.5
t-67.5 18.5q-40 0 -69 -18t-47.5 -51.5t-27 -80t-8.5 -103.5t8.5 -103.5t27 -80t47.5 -52t69 -18.5z" />
    <glyph glyph-name="one.case" horiz-adv-x="409" 
d="M190 501h-158v92q32 1 61.5 7.5t53.5 21t40 37.5t22 58h124v-717h-143v501z" />
    <glyph glyph-name="two.case" horiz-adv-x="565" 
d="M25 0q2 51 17.5 93t40 76.5t54.5 62.5t60 52q34 27 67.5 50.5t60.5 48t43.5 52t16.5 62.5q0 51 -25 82t-74 31q-55 0 -86 -38t-33 -108h-132q0 122 63 193t191 71q59 0 104.5 -18t76 -49t46 -72.5t15.5 -87.5q0 -51 -16 -89t-41.5 -67.5t-57.5 -53.5t-65 -46
q-21 -13 -42.5 -28.5t-41.5 -32t-36 -34t-25 -34.5h329v-116h-510v0z" />
    <glyph glyph-name="three.case" horiz-adv-x="591" 
d="M296 -13q-138 0 -208.5 68.5t-71.5 185.5h134q5 -66 36 -104t105 -38q60 0 92.5 31t32.5 86q0 52 -31.5 80.5t-97.5 28.5h-44v106h41q51 0 83 25.5t32 70.5q0 42 -27 68t-74 26q-62 0 -92.5 -35.5t-32.5 -91.5h-134q2 53 19.5 96.5t50 74t80 47.5t109.5 17
q56 0 101 -13.5t77 -38t49 -60t17 -80.5q0 -61 -34.5 -97.5t-88.5 -53.5v-2q69 -17 106.5 -59.5t37.5 -117.5q0 -56 -21 -97.5t-57 -68.5t-85 -40.5t-104 -13.5z" />
    <glyph glyph-name="four.case" horiz-adv-x="618" 
d="M355 157h-330v148l325 415h142v-451h107v-112h-107v-157h-137v157zM138 269h217v278h-2l-215 -275v-3z" />
    <glyph glyph-name="five.case" horiz-adv-x="600" 
d="M300 -16q-60 0 -110 15.5t-87.5 44t-60.5 70t-28 93.5h138q10 -54 49 -79.5t96 -25.5q61 0 95 39t34 97q0 65 -35 98.5t-94 33.5q-42 0 -71 -13.5t-44 -31.5h-136l69 390h418v-117h-320l-27 -156h2q23 20 59.5 32t86.5 12q48 0 91.5 -17t76 -48.5t51.5 -78t19 -104.5
q0 -56 -20.5 -102.5t-57 -80.5t-86.5 -52.5t-108 -18.5z" />
    <glyph glyph-name="six.case" horiz-adv-x="618" 
d="M328 -16q-77 0 -132.5 29.5t-92 79t-54 115.5t-18.5 139q-1 95 19.5 170.5t68.5 129.5q35 39 85 60.5t123 21.5q55 0 97.5 -14t73 -38.5t48.5 -58t25 -73.5h-136q-8 33 -31.5 54t-71.5 21q-78 0 -118 -54.5t-40 -150.5h2q28 34 67.5 54.5t102.5 20.5q49 0 94 -18.5
t79.5 -52t54.5 -80.5t20 -104q0 -55 -20.5 -101t-56.5 -79.5t-84.5 -52t-104.5 -18.5zM323 95q29 0 54 10.5t43 29.5t28.5 44t10.5 54q0 30 -10 56.5t-28 45.5t-43 30t-54 11q-68 0 -104.5 -40t-36.5 -102q0 -30 10 -55.5t28.5 -44t44.5 -29t57 -10.5z" />
    <glyph glyph-name="seven.case" horiz-adv-x="553" 
d="M117 0q3 99 28.5 188t63 165t81.5 137t85 103v2h-355v120h509v-115q-48 -49 -93 -112t-80.5 -139t-58.5 -164t-27 -185h-153v0z" />
    <glyph glyph-name="eight.case" horiz-adv-x="623" 
d="M315 -16q-61 0 -113.5 14.5t-91.5 43t-61 70t-22 95.5q0 66 35.5 114.5t94.5 71.5v3q-48 21 -74 56.5t-26 87.5q0 45 18.5 80.5t52 59.5t81 36.5t105.5 12.5t104.5 -12.5t79.5 -36t50.5 -58.5t17.5 -80q0 -51 -26.5 -86t-72.5 -57v-3q60 -22 94.5 -69.5t34.5 -113.5
q0 -55 -21 -97.5t-58.5 -72t-89 -44.5t-112.5 -15zM312 98q63 0 101 32t38 83q0 55 -35.5 88t-101.5 33t-103.5 -33t-37.5 -88q0 -53 36.5 -84t102.5 -31zM312 432q56 0 86 27t30 69q0 43 -30 68.5t-86 25.5q-57 0 -87 -25.5t-30 -68.5q0 -42 30 -69t87 -27z" />
    <glyph glyph-name="nine.case" horiz-adv-x="619" 
d="M301 -16q-56 0 -100 14t-76 39t-51.5 59.5t-25.5 74.5h137q9 -32 36.5 -55.5t75.5 -23.5q68 0 104 46q21 26 33.5 69.5t13.5 99.5h-2q-29 -33 -68 -55.5t-98 -22.5q-54 0 -101 17.5t-81.5 50.5t-54 79t-19.5 103q0 55 20.5 101t56.5 79t85.5 51.5t106.5 18.5
q143 0 219.5 -89.5t76.5 -272.5q0 -86 -15.5 -156.5t-49.5 -120.5t-89 -78t-134 -28zM300 341q31 0 57.5 10t46 28t30.5 43.5t11 56.5t-10.5 56.5t-30 44t-46 29t-57.5 10.5q-32 0 -58 -10.5t-45 -29.5t-29 -44t-10 -54q0 -61 36.5 -100.5t104.5 -39.5z" />
    <glyph glyph-name="percent.case" horiz-adv-x="849" 
d="M204 334q-38 0 -70.5 14t-56 39.5t-36.5 62t-13 81.5q0 46 13.5 82.5t37 62t55.5 39.5t70 14q39 0 71 -13.5t55 -39t36 -62.5t13 -83q0 -45 -13 -81.5t-36 -62t-55 -39.5t-71 -14zM646 -16q-38 0 -70.5 14t-56 39.5t-36.5 62t-13 81.5q0 46 13.5 82.5t37 62t55.5 39.5
t70 14q39 0 71 -13.5t55 -39t36 -62.5t13 -83q0 -45 -13 -81.5t-36 -62t-55 -39.5t-71 -14zM588 715h85l-411 -715h-85zM646 61q35 0 52 33t17 87t-17 88t-52 34t-52 -33.5t-17 -88.5q0 -54 17 -87t52 -33zM204 411q35 0 52 33t17 87t-17 88t-52 34t-52 -33.5t-17 -88.5
q0 -54 17 -87t52 -33z" />
    <glyph glyph-name="perthousand.case" horiz-adv-x="1240" 
d="M204 334q-38 0 -70.5 14t-56 39.5t-36.5 62t-13 81.5q0 46 13.5 82.5t37 62t55.5 39.5t70 14q39 0 71 -13.5t55 -39t36 -62.5t13 -83q0 -45 -13 -81.5t-36 -62t-55 -39.5t-71 -14zM646 -16q-38 0 -70.5 14t-56 39.5t-36.5 62t-13 81.5q0 46 13.5 82.5t37 62t55.5 39.5
t70 14q39 0 71 -13.5t55 -39t36 -62.5t13 -83q0 -45 -13 -81.5t-36 -62t-55 -39.5t-71 -14zM588 715h85l-411 -715h-85zM646 61q35 0 52 33t17 87t-17 88t-52 34t-52 -33.5t-17 -88.5q0 -54 17 -87t52 -33zM204 411q35 0 52 33t17 87t-17 88t-52 34t-52 -33.5t-17 -88.5
q0 -54 17 -87t52 -33zM1037 -16q-38 0 -70.5 14t-56 39.5t-36.5 62t-13 81.5q0 46 13.5 82.5t37 62t55.5 39.5t70 14q39 0 71 -13.5t55 -39t36 -62.5t13 -83q0 -45 -13 -81.5t-36 -62t-55 -39.5t-71 -14zM1037 61q35 0 52 33t17 87t-17 88t-52 34t-52 -33.5t-17 -88.5
q0 -54 17 -87t52 -33z" />
    </font>
</defs>
</svg>
