<?xml version="1.0" encoding="utf-8"?>
<svg width="850.99945px" height="764.99976px" viewBox="0 0 850.99945 764.99976" version="1.1" xmlns:xlink="http://www.w3.org/1999/xlink" xmlns="http://www.w3.org/2000/svg">
  <path d="M285.124 836.042C324.905 850.309 366.612 858.597 409.083 860.677L409.085 860.677C363.889 791.017 339.999 710.108 339.999 626.7C339.999 389.322 533.121 196.2 770.499 196.2C777.634 196.2 784.843 196.377 791.927 196.725C772.813 167.26 750.089 140.14 724.387 116.119C698.629 92.0452 669.984 71.1816 639.248 54.1074C607.979 36.7378 574.618 23.3359 540.091 14.2742C522.516 9.66138 504.444 6.135 486.376 3.7937C467.979 1.40918 449.18 0.199945 430.5 0.199945C415.815 0.199945 401.006 0.947995 386.484 2.42285C372.173 3.87598 357.792 6.07105 343.739 8.94678C329.869 11.7844 315.988 15.3535 302.482 19.5549C289.127 23.7082 275.82 28.5788 262.93 34.031C237.422 44.8201 212.818 58.1743 189.803 73.7229C167.007 89.1233 145.571 106.81 126.09 126.291C106.609 145.772 88.9224 167.208 73.5226 190.003C57.9744 213.018 44.6201 237.621 33.8307 263.13C28.3797 276.018 23.509 289.325 19.3544 302.682C15.1532 316.189 11.5841 330.07 8.74628 343.939C5.87103 357.99 3.67615 372.371 2.2226 386.684C0.747803 401.206 0 416.015 0 430.7C0 448.329 1.0769 466.08 3.20093 483.46C5.28888 500.546 8.43567 517.658 12.5538 534.321C20.6458 567.064 32.6448 598.866 48.2169 628.844C63.516 658.296 82.2815 686.029 103.992 711.271C125.606 736.4 150.13 759.053 176.883 778.6C210.101 802.871 246.519 822.198 285.124 836.042ZM516.883 974.6C552.898 1000.92 592.558 1021.36 634.761 1035.37C678.406 1049.85 724.075 1057.2 770.499 1057.2C785.182 1057.2 799.991 1056.45 814.515 1054.98C828.828 1053.52 843.21 1051.33 857.26 1048.45C871.129 1045.62 885.01 1042.05 898.517 1037.85C911.874 1033.69 925.181 1028.82 938.069 1023.37C963.579 1012.58 988.183 999.225 1011.2 983.677C1033.99 968.277 1055.43 950.59 1074.91 931.11C1094.39 911.627 1112.08 890.191 1127.48 867.397C1143.03 844.383 1156.38 819.78 1167.17 794.27C1172.62 781.382 1177.49 768.075 1181.65 754.718C1185.85 741.211 1189.42 727.33 1192.25 713.461C1195.13 699.409 1197.32 685.028 1198.78 670.717C1200.25 656.195 1201 641.386 1201 626.7C1201 612.456 1200.3 598.088 1198.91 583.997C1197.54 570.102 1195.47 556.135 1192.77 542.482C1190.09 529.001 1186.73 515.501 1182.77 502.355C1178.85 489.353 1174.26 476.385 1169.12 463.812C1158.94 438.933 1146.33 414.863 1131.63 392.27C1117.08 369.903 1100.35 348.762 1081.89 329.433C1063.45 310.126 1043.13 292.445 1021.47 276.881C999.643 261.194 976.253 247.504 951.95 236.193C939.685 230.485 927.008 225.303 914.271 220.792C901.401 216.233 888.158 212.248 874.91 208.948C861.501 205.608 847.758 202.887 834.062 200.86C820.185 198.807 806.009 197.415 791.927 196.725C837.114 266.384 860.999 347.291 860.999 430.7C860.999 668.079 667.878 861.201 430.5 861.201C423.372 861.201 416.167 861.024 409.085 860.677C423.356 882.673 439.747 903.499 457.803 922.576C475.836 941.629 495.714 959.133 516.883 974.6Z" id="Exclusion-5" fill="#E8F3FF" fill-rule="evenodd" stroke="none" />
</svg>