<?xml version="1.0" encoding="utf-8"?>
<svg width="212.79956px" height="61.399902px" viewBox="0 0 212.79956 61.399902" version="1.1" xmlns:xlink="http://www.w3.org/1999/xlink" xmlns="http://www.w3.org/2000/svg">
  <g id="Design-elements">
    <path d="M1.64022 0.0001C2.54597 0.0001 3.28022 0.73435 3.28022 1.6401C3.28022 2.54585 2.54597 3.2801 1.64022 3.2801C0.73447 3.2801 0.00022 2.54585 0.00022 1.6401C0.00022 0.73435 0.73447 0.0001 1.64022 0.0001Z" id="Ellipse-329" fill="#1466CF" fill-rule="evenodd" stroke="none" />
    <path d="M24.9188 0.0001C25.8246 0.0001 26.5588 0.73435 26.5588 1.6401C26.5588 2.54585 25.8246 3.2801 24.9188 3.2801C24.0131 3.2801 23.2788 2.54585 23.2788 1.6401C23.2788 0.73435 24.0131 0.0001 24.9188 0.0001Z" id="Ellipse-330" fill="#1466CF" fill-rule="evenodd" stroke="none" />
    <path d="M48.2013 0.0001C49.1071 0.0001 49.8413 0.73435 49.8413 1.6401C49.8413 2.54585 49.1071 3.2801 48.2013 3.2801C47.2956 3.2801 46.5613 2.54585 46.5613 1.6401C46.5613 0.73435 47.2956 0.0001 48.2013 0.0001Z" id="Ellipse-331" fill="#1466CF" fill-rule="evenodd" stroke="none" />
    <path d="M71.4799 0.0001C72.3857 0.0001 73.1199 0.73435 73.1199 1.6401C73.1199 2.54585 72.3857 3.2801 71.4799 3.2801C70.5742 3.2801 69.8399 2.54585 69.8399 1.6401C69.8399 0.73435 70.5742 0.0001 71.4799 0.0001Z" id="Ellipse-332" fill="#1466CF" fill-rule="evenodd" stroke="none" />
    <path d="M94.7585 0.0001C95.6643 0.0001 96.3985 0.73435 96.3985 1.6401C96.3985 2.54585 95.6643 3.2801 94.7585 3.2801C93.8528 3.2801 93.1185 2.54585 93.1185 1.6401C93.1185 0.73435 93.8528 0.0001 94.7585 0.0001Z" id="Ellipse-333" fill="#1466CF" fill-rule="evenodd" stroke="none" />
    <path d="M118.041 0.0001C118.947 0.0001 119.681 0.73435 119.681 1.6401C119.681 2.54585 118.947 3.2801 118.041 3.2801C117.135 3.2801 116.401 2.54585 116.401 1.6401C116.401 0.73435 117.135 0.0001 118.041 0.0001Z" id="Ellipse-334" fill="#1466CF" fill-rule="evenodd" stroke="none" />
    <path d="M141.32 0.0001C142.225 0.0001 142.96 0.73435 142.96 1.6401C142.96 2.54585 142.225 3.2801 141.32 3.2801C140.414 3.2801 139.68 2.54585 139.68 1.6401C139.68 0.73435 140.414 0.0001 141.32 0.0001Z" id="Ellipse-335" fill="#1466CF" fill-rule="evenodd" stroke="none" />
    <path d="M164.602 0.0001C165.508 0.0001 166.242 0.73435 166.242 1.6401C166.242 2.54585 165.508 3.2801 164.602 3.2801C163.696 3.2801 162.962 2.54585 162.962 1.6401C162.962 0.73435 163.696 0.0001 164.602 0.0001Z" id="Ellipse-336" fill="#1466CF" fill-rule="evenodd" stroke="none" />
    <path d="M187.881 0.0001C188.786 0.0001 189.521 0.73435 189.521 1.6401C189.521 2.54585 188.786 3.2801 187.881 3.2801C186.975 3.2801 186.241 2.54585 186.241 1.6401C186.241 0.73435 186.975 0.0001 187.881 0.0001Z" id="Ellipse-337" fill="#1466CF" fill-rule="evenodd" stroke="none" />
    <path d="M211.159 0.0001C212.065 0.0001 212.799 0.73435 212.799 1.6401C212.799 2.54585 212.065 3.2801 211.159 3.2801C210.254 3.2801 209.519 2.54585 209.519 1.6401C209.519 0.73435 210.254 0.0001 211.159 0.0001Z" id="Ellipse-338" fill="#1466CF" fill-rule="evenodd" stroke="none" />
    <path d="M1.64022 23.2802C2.54597 23.2802 3.28022 24.0144 3.28022 24.9202C3.28022 25.8259 2.54597 26.5602 1.64022 26.5602C0.73447 26.5602 0.00022 25.8259 0.00022 24.9202C0.00022 24.0144 0.73447 23.2802 1.64022 23.2802Z" id="Ellipse-339" fill="#1466CF" fill-rule="evenodd" stroke="none" />
    <path d="M24.9188 23.2802C25.8246 23.2802 26.5588 24.0144 26.5588 24.9202C26.5588 25.8259 25.8246 26.5602 24.9188 26.5602C24.0131 26.5602 23.2788 25.8259 23.2788 24.9202C23.2788 24.0144 24.0131 23.2802 24.9188 23.2802Z" id="Ellipse-340" fill="#1466CF" fill-rule="evenodd" stroke="none" />
    <path d="M48.2013 23.2802C49.1071 23.2802 49.8413 24.0144 49.8413 24.9202C49.8413 25.8259 49.1071 26.5602 48.2013 26.5602C47.2956 26.5602 46.5613 25.8259 46.5613 24.9202C46.5613 24.0144 47.2956 23.2802 48.2013 23.2802Z" id="Ellipse-341" fill="#1466CF" fill-rule="evenodd" stroke="none" />
    <path d="M71.4799 23.2802C72.3857 23.2802 73.1199 24.0144 73.1199 24.9202C73.1199 25.8259 72.3857 26.5602 71.4799 26.5602C70.5742 26.5602 69.8399 25.8259 69.8399 24.9202C69.8399 24.0144 70.5742 23.2802 71.4799 23.2802Z" id="Ellipse-342" fill="#1466CF" fill-rule="evenodd" stroke="none" />
    <path d="M94.7585 23.2802C95.6643 23.2802 96.3985 24.0144 96.3985 24.9202C96.3985 25.8259 95.6643 26.5602 94.7585 26.5602C93.8528 26.5602 93.1185 25.8259 93.1185 24.9202C93.1185 24.0144 93.8528 23.2802 94.7585 23.2802Z" id="Ellipse-343" fill="#1466CF" fill-rule="evenodd" stroke="none" />
    <path d="M118.041 23.2802C118.947 23.2802 119.681 24.0144 119.681 24.9202C119.681 25.8259 118.947 26.5602 118.041 26.5602C117.135 26.5602 116.401 25.8259 116.401 24.9202C116.401 24.0144 117.135 23.2802 118.041 23.2802Z" id="Ellipse-344" fill="#1466CF" fill-rule="evenodd" stroke="none" />
    <path d="M141.32 23.2802C142.225 23.2802 142.96 24.0144 142.96 24.9202C142.96 25.8259 142.225 26.5602 141.32 26.5602C140.414 26.5602 139.68 25.8259 139.68 24.9202C139.68 24.0144 140.414 23.2802 141.32 23.2802Z" id="Ellipse-345" fill="#1466CF" fill-rule="evenodd" stroke="none" />
    <path d="M164.602 23.2802C165.508 23.2802 166.242 24.0144 166.242 24.9202C166.242 25.8259 165.508 26.5602 164.602 26.5602C163.696 26.5602 162.962 25.8259 162.962 24.9202C162.962 24.0144 163.696 23.2802 164.602 23.2802Z" id="Ellipse-346" fill="#1466CF" fill-rule="evenodd" stroke="none" />
    <path d="M187.881 23.2802C188.786 23.2802 189.521 24.0144 189.521 24.9202C189.521 25.8259 188.786 26.5602 187.881 26.5602C186.975 26.5602 186.241 25.8259 186.241 24.9202C186.241 24.0144 186.975 23.2802 187.881 23.2802Z" id="Ellipse-347" fill="#1466CF" fill-rule="evenodd" stroke="none" />
    <path d="M211.159 23.2802C212.065 23.2802 212.799 24.0144 212.799 24.9202C212.799 25.8259 212.065 26.5602 211.159 26.5602C210.254 26.5602 209.519 25.8259 209.519 24.9202C209.519 24.0144 210.254 23.2802 211.159 23.2802Z" id="Ellipse-348" fill="#1466CF" fill-rule="evenodd" stroke="none" />
    <path d="M1.64022 46.5602C2.54597 46.5602 3.28022 47.2945 3.28022 48.2002C3.28022 49.106 2.54597 49.8402 1.64022 49.8402C0.73447 49.8402 0.00022 49.106 0.00022 48.2002C0.00022 47.2945 0.73447 46.5602 1.64022 46.5602Z" id="Ellipse-349" fill="#1466CF" fill-rule="evenodd" stroke="none" />
    <path d="M24.9188 46.5602C25.8246 46.5602 26.5588 47.2945 26.5588 48.2002C26.5588 49.106 25.8246 49.8402 24.9188 49.8402C24.0131 49.8402 23.2788 49.106 23.2788 48.2002C23.2788 47.2945 24.0131 46.5602 24.9188 46.5602Z" id="Ellipse-350" fill="#1466CF" fill-rule="evenodd" stroke="none" />
    <path d="M48.2013 46.5602C49.1071 46.5602 49.8413 47.2945 49.8413 48.2002C49.8413 49.106 49.1071 49.8402 48.2013 49.8402C47.2956 49.8402 46.5613 49.106 46.5613 48.2002C46.5613 47.2945 47.2956 46.5602 48.2013 46.5602Z" id="Ellipse-351" fill="#1466CF" fill-rule="evenodd" stroke="none" />
    <path d="M71.4799 46.5602C72.3857 46.5602 73.1199 47.2945 73.1199 48.2002C73.1199 49.106 72.3857 49.8402 71.4799 49.8402C70.5742 49.8402 69.8399 49.106 69.8399 48.2002C69.8399 47.2945 70.5742 46.5602 71.4799 46.5602Z" id="Ellipse-352" fill="#1466CF" fill-rule="evenodd" stroke="none" />
    <path d="M94.7585 46.5602C95.6643 46.5602 96.3985 47.2945 96.3985 48.2002C96.3985 49.106 95.6643 49.8402 94.7585 49.8402C93.8528 49.8402 93.1185 49.106 93.1185 48.2002C93.1185 47.2945 93.8528 46.5602 94.7585 46.5602Z" id="Ellipse-353" fill="#1466CF" fill-rule="evenodd" stroke="none" />
    <path d="M118.041 46.5602C118.947 46.5602 119.681 47.2945 119.681 48.2002C119.681 49.106 118.947 49.8402 118.041 49.8402C117.135 49.8402 116.401 49.106 116.401 48.2002C116.401 47.2945 117.135 46.5602 118.041 46.5602Z" id="Ellipse-354" fill="#1466CF" fill-rule="evenodd" stroke="none" />
    <path d="M141.32 46.5602C142.225 46.5602 142.96 47.2945 142.96 48.2002C142.96 49.106 142.225 49.8402 141.32 49.8402C140.414 49.8402 139.68 49.106 139.68 48.2002C139.68 47.2945 140.414 46.5602 141.32 46.5602Z" id="Ellipse-355" fill="#1466CF" fill-rule="evenodd" stroke="none" />
    <path d="M164.602 46.5602C165.508 46.5602 166.242 47.2945 166.242 48.2002C166.242 49.106 165.508 49.8402 164.602 49.8402C163.696 49.8402 162.962 49.106 162.962 48.2002C162.962 47.2945 163.696 46.5602 164.602 46.5602Z" id="Ellipse-356" fill="#1466CF" fill-rule="evenodd" stroke="none" />
    <path d="M187.881 46.5602C188.786 46.5602 189.521 47.2945 189.521 48.2002C189.521 49.106 188.786 49.8402 187.881 49.8402C186.975 49.8402 186.241 49.106 186.241 48.2002C186.241 47.2945 186.975 46.5602 187.881 46.5602Z" id="Ellipse-357" fill="#1466CF" fill-rule="evenodd" stroke="none" />
    <path d="M211.159 46.5602C212.065 46.5602 212.799 47.2945 212.799 48.2002C212.799 49.106 212.065 49.8402 211.159 49.8402C210.254 49.8402 209.519 49.106 209.519 48.2002C209.519 47.2945 210.254 46.5602 211.159 46.5602Z" id="Ellipse-358" fill="#1466CF" fill-rule="evenodd" stroke="none" />
  </g>
</svg>