<?xml version="1.0" encoding="utf-8"?>
<svg width="202.28033px" height="274.0005px" viewBox="0 0 202.28033 274.0005" version="1.1" xmlns:xlink="http://www.w3.org/1999/xlink" xmlns="http://www.w3.org/2000/svg">
  <path d="M85.025 292.2L83.4547 292.2C82.9457 292.479 82.6002 293.02 82.6002 293.64C82.6002 294.545 83.3355 295.28 84.2399 295.28C85.1436 295.28 85.8798 294.545 85.8798 293.64C85.8798 293.02 85.5338 292.479 85.025 292.2ZM108.304 292.2L106.734 292.2C106.225 292.479 105.88 293.02 105.88 293.64C105.88 294.545 106.615 295.28 107.519 295.28C108.423 295.28 109.159 294.545 109.159 293.64C109.159 293.02 108.813 292.479 108.304 292.2ZM130.015 292.2L131.586 292.2C132.094 292.479 132.44 293.02 132.44 293.64C132.44 294.545 131.704 295.28 130.801 295.28C129.896 295.28 129.161 294.545 129.161 293.64C129.161 293.02 129.506 292.479 130.015 292.2ZM154.865 292.2L153.295 292.2C152.786 292.479 152.44 293.02 152.44 293.64C152.44 294.545 153.175 295.28 154.08 295.28C154.984 295.28 155.72 294.545 155.72 293.64C155.72 293.02 155.374 292.479 154.865 292.2ZM176.574 292.2L178.144 292.2C178.653 292.479 178.999 293.02 178.999 293.64C178.999 294.545 178.263 295.28 177.359 295.28C176.455 295.28 175.72 294.545 175.72 293.64C175.72 293.02 176.065 292.479 176.574 292.2ZM201.426 292.2L199.855 292.2C199.346 292.479 199.001 293.02 199.001 293.64C199.001 294.545 199.736 295.28 200.641 295.28C201.544 295.28 202.28 294.545 202.28 293.64C202.28 293.02 201.934 292.479 201.426 292.2ZM-5.17577e-06 554.861C0.768545 555.204 1.5396 555.539 2.31389 555.867C10.2501 559.223 18.5544 561.801 26.9982 563.529C35.6616 565.302 44.5779 566.201 53.4996 566.201C62.4213 566.201 71.3376 565.302 80.0009 563.529C88.4439 561.801 96.7491 559.223 104.685 555.867C112.477 552.57 119.993 548.491 127.022 543.742C133.985 539.039 140.533 533.636 146.484 527.685C152.435 521.734 157.837 515.187 162.542 508.224C167.291 501.193 171.371 493.678 174.666 485.886C178.023 477.95 180.6 469.645 182.328 461.202C184.101 452.539 185 443.623 185 434.701C185 418.68 182.152 403.028 176.533 388.177C176.783 388.323 177.068 388.399 177.359 388.399C178.263 388.399 178.999 387.664 178.999 386.76C178.999 385.856 178.263 385.121 177.359 385.121C176.638 385.121 176.009 385.582 175.794 386.269C176.047 386.907 176.296 387.55 176.533 388.177C176.031 387.884 175.72 387.341 175.72 386.76C175.72 386.592 175.745 386.427 175.794 386.268C171.016 374.213 164.477 362.939 156.358 352.76C148.306 342.668 138.845 333.828 128.237 326.487C117.484 319.047 105.737 313.277 93.3201 309.337C80.4878 305.266 67.0905 303.2 53.4996 303.2C44.5779 303.2 35.6607 304.099 26.9982 305.872C18.5561 307.599 10.251 310.177 2.31389 313.534C1.5396 313.861 0.768545 314.197 -5.17577e-06 314.54L-5.17577e-06 554.861ZM84.2399 318.56C85.1436 318.56 85.8798 317.824 85.8798 316.921C85.8798 316.016 85.1436 315.28 84.2399 315.28C83.3355 315.28 82.6002 316.016 82.6002 316.921C82.6002 317.824 83.3355 318.56 84.2399 318.56ZM109.159 316.921C109.159 317.824 108.423 318.56 107.519 318.56C106.615 318.56 105.88 317.824 105.88 316.921C105.88 316.016 106.615 315.28 107.519 315.28C108.423 315.28 109.159 316.016 109.159 316.921ZM130.801 315.28C131.704 315.28 132.44 316.016 132.44 316.921C132.44 317.824 131.704 318.56 130.801 318.56C129.896 318.56 129.161 317.824 129.161 316.921C129.161 316.016 129.896 315.28 130.801 315.28ZM155.72 316.921C155.72 316.016 154.984 315.28 154.08 315.28C153.175 315.28 152.44 316.016 152.44 316.921C152.44 317.824 153.175 318.56 154.08 318.56C154.984 318.56 155.72 317.824 155.72 316.921ZM177.359 315.28C178.263 315.28 178.999 316.016 178.999 316.921C178.999 317.824 178.263 318.56 177.359 318.56C176.455 318.56 175.72 317.824 175.72 316.921C175.72 316.016 176.455 315.28 177.359 315.28ZM202.28 316.921C202.28 316.016 201.544 315.28 200.641 315.28C199.736 315.28 199.001 316.016 199.001 316.921C199.001 317.824 199.736 318.56 200.641 318.56C201.544 318.56 202.28 317.824 202.28 316.921ZM84.2399 341.841C85.1436 341.841 85.8798 341.104 85.8798 340.201C85.8798 339.295 85.1436 338.56 84.2399 338.56C83.3355 338.56 82.6002 339.295 82.6002 340.201C82.6002 341.104 83.3355 341.841 84.2399 341.841ZM109.159 340.201C109.159 341.104 108.423 341.841 107.519 341.841C106.615 341.841 105.88 341.104 105.88 340.201C105.88 339.295 106.615 338.56 107.519 338.56C108.423 338.56 109.159 339.295 109.159 340.201ZM130.801 341.841C131.704 341.841 132.44 341.104 132.44 340.201C132.44 339.295 131.704 338.56 130.801 338.56C129.896 338.56 129.161 339.295 129.161 340.201C129.161 341.104 129.896 341.841 130.801 341.841ZM154.08 338.56C154.984 338.56 155.72 339.295 155.72 340.201C155.72 341.104 154.984 341.841 154.08 341.841C153.175 341.841 152.44 341.104 152.44 340.201C152.44 339.295 153.175 338.56 154.08 338.56ZM178.999 340.201C178.999 339.295 178.263 338.56 177.359 338.56C176.455 338.56 175.72 339.295 175.72 340.201C175.72 341.104 176.455 341.841 177.359 341.841C178.263 341.841 178.999 341.104 178.999 340.201ZM200.641 338.56C201.544 338.56 202.28 339.295 202.28 340.201C202.28 341.104 201.544 341.841 200.641 341.841C199.736 341.841 199.001 341.104 199.001 340.201C199.001 339.295 199.736 338.56 200.641 338.56ZM85.8798 363.479C85.8798 364.385 85.1436 365.121 84.2399 365.121C83.3355 365.121 82.6002 364.385 82.6002 363.479C82.6002 362.576 83.3355 361.841 84.2399 361.841C85.1436 361.841 85.8798 362.576 85.8798 363.479ZM107.519 365.121C108.423 365.121 109.159 364.385 109.159 363.479C109.159 362.576 108.423 361.841 107.519 361.841C106.615 361.841 105.88 362.576 105.88 363.479C105.88 364.385 106.615 365.121 107.519 365.121ZM132.44 363.479C132.44 364.385 131.704 365.121 130.801 365.121C129.896 365.121 129.161 364.385 129.161 363.479C129.161 362.576 129.896 361.841 130.801 361.841C131.704 361.841 132.44 362.576 132.44 363.479ZM154.08 365.121C154.984 365.121 155.72 364.385 155.72 363.479C155.72 362.576 154.984 361.841 154.08 361.841C153.175 361.841 152.44 362.576 152.44 363.479C152.44 364.385 153.175 365.121 154.08 365.121ZM178.999 363.479C178.999 362.576 178.263 361.841 177.359 361.841C176.455 361.841 175.72 362.576 175.72 363.479C175.72 364.385 176.455 365.121 177.359 365.121C178.263 365.121 178.999 364.385 178.999 363.479ZM200.641 361.841C201.544 361.841 202.28 362.576 202.28 363.479C202.28 364.385 201.544 365.121 200.641 365.121C199.736 365.121 199.001 364.385 199.001 363.479C199.001 362.576 199.736 361.841 200.641 361.841ZM85.8798 386.76C85.8798 387.664 85.1436 388.399 84.2399 388.399C83.3355 388.399 82.6002 387.664 82.6002 386.76C82.6002 385.856 83.3355 385.121 84.2399 385.121C85.1436 385.121 85.8798 385.856 85.8798 386.76ZM107.519 388.399C108.423 388.399 109.159 387.664 109.159 386.76C109.159 385.856 108.423 385.121 107.519 385.121C106.615 385.121 105.88 385.856 105.88 386.76C105.88 387.664 106.615 388.399 107.519 388.399ZM132.44 386.76C132.44 387.664 131.704 388.399 130.801 388.399C129.896 388.399 129.161 387.664 129.161 386.76C129.161 385.856 129.896 385.121 130.801 385.121C131.704 385.121 132.44 385.856 132.44 386.76ZM154.08 388.399C154.984 388.399 155.72 387.664 155.72 386.76C155.72 385.856 154.984 385.121 154.08 385.121C153.175 385.121 152.44 385.856 152.44 386.76C152.44 387.664 153.175 388.399 154.08 388.399ZM202.28 386.76C202.28 385.856 201.544 385.121 200.641 385.121C199.736 385.121 199.001 385.856 199.001 386.76C199.001 387.664 199.736 388.399 200.641 388.399C201.544 388.399 202.28 387.664 202.28 386.76Z" id="Intersection-9" fill="#FFE8E8" fill-rule="evenodd" stroke="none" />
</svg>