<?xml version="1.0" encoding="utf-8"?>
<svg width="1200.9999px" height="1057px" viewBox="0 0 1200.9999 1057" version="1.1" xmlns:xlink="http://www.w3.org/1999/xlink" xmlns="http://www.w3.org/2000/svg">
  <g id="Background">
    <path d="M285.124 835.843C324.905 850.109 366.612 858.397 409.083 860.477L409.085 860.478C363.889 790.817 339.999 709.908 339.999 626.5C339.999 389.122 533.121 196 770.499 196C777.634 196 784.843 196.177 791.927 196.525C772.813 167.06 750.089 139.94 724.387 115.919C698.629 91.8452 669.984 70.9817 639.248 53.9075C607.979 36.5378 574.618 23.136 540.091 14.0742C522.516 9.46142 504.444 5.93505 486.376 3.59374C467.98 1.20922 449.18 -5.85939e-06 430.5 -5.85939e-06C415.815 -5.85939e-06 401.006 0.748044 386.484 2.22289C372.173 3.67602 357.792 5.87109 343.739 8.74682C329.869 11.5845 315.988 15.1536 302.482 19.355C289.127 23.5083 275.82 28.3789 262.93 33.831C237.422 44.6201 212.818 57.9744 189.803 73.5229C167.007 88.9233 145.571 106.61 126.09 126.091C106.609 145.572 88.9225 167.009 73.5226 189.803C57.9745 212.818 44.6201 237.421 33.8308 262.93C28.3797 275.818 23.5091 289.125 19.3545 302.482C15.1532 315.989 11.5842 329.87 8.74631 343.739C5.87108 357.79 3.67616 372.171 2.22261 386.484C0.747831 401.006 0 415.815 0 430.5C0 448.129 1.07694 465.88 3.20093 483.26C5.28893 500.346 8.4357 517.458 12.5539 534.121C20.6458 566.864 32.6448 598.667 48.2169 628.645C63.516 658.096 82.2815 685.829 103.992 711.071C125.606 736.2 150.13 758.853 176.883 778.4C210.101 802.671 246.519 821.998 285.124 835.843ZM516.883 974.4C552.898 1000.72 592.558 1021.16 634.761 1035.17C678.406 1049.65 724.075 1057 770.499 1057C785.182 1057 799.991 1056.25 814.515 1054.78C828.828 1053.32 843.21 1051.13 857.26 1048.25C871.129 1045.42 885.01 1041.85 898.517 1037.65C911.874 1033.49 925.181 1028.62 938.069 1023.17C963.579 1012.38 988.183 999.025 1011.2 983.478C1033.99 968.077 1055.43 950.39 1074.91 930.91C1094.39 911.427 1112.08 889.991 1127.48 867.197C1143.03 844.183 1156.38 819.58 1167.17 794.07C1172.62 781.182 1177.49 767.875 1181.65 754.518C1185.85 741.011 1189.42 727.13 1192.25 713.261C1195.13 699.209 1197.32 684.828 1198.78 670.517C1200.25 655.995 1201 641.186 1201 626.5C1201 612.256 1200.3 597.888 1198.91 583.797C1197.54 569.902 1195.47 555.935 1192.77 542.282C1190.09 528.801 1186.73 515.301 1182.77 502.155C1178.85 489.153 1174.26 476.186 1169.12 463.613C1158.94 438.733 1146.33 414.663 1131.63 392.07C1117.08 369.703 1100.35 348.562 1081.89 329.233C1063.45 309.926 1043.13 292.245 1021.47 276.681C999.643 260.994 976.253 247.304 951.95 235.993C939.685 230.285 927.008 225.103 914.271 220.592C901.401 216.033 888.158 212.048 874.909 208.748C861.501 205.408 847.758 202.687 834.062 200.66C820.185 198.607 806.009 197.215 791.927 196.525C837.114 266.184 860.999 347.091 860.999 430.5C860.999 667.879 667.878 861.001 430.5 861.001C423.372 861.001 416.167 860.824 409.085 860.478C423.356 882.473 439.747 903.299 457.803 922.376C475.836 941.429 495.714 958.933 516.883 974.4Z" id="Design-element---Circles" fill="#F1E8FF" fill-rule="evenodd" stroke="none" />
  </g>
</svg>