<?xml version="1.0" encoding="utf-8"?>
<svg width="212.79956px" height="96.400024px" viewBox="0 0 212.79956 96.400024" version="1.1" xmlns:xlink="http://www.w3.org/1999/xlink" xmlns="http://www.w3.org/2000/svg">
  <g id="Design-element---Circles">
    <path d="M1.64022 -0.0002C2.54597 -0.0002 3.28022 0.73405 3.28022 1.6398C3.28022 2.54555 2.54597 3.2798 1.64022 3.2798C0.73447 3.2798 0.00022 2.54555 0.00022 1.6398C0.00022 0.73405 0.73447 -0.0002 1.64022 -0.0002Z" id="Ellipse-329" fill="#1466CF" fill-rule="evenodd" stroke="none" />
    <path d="M24.9188 -0.0002C25.8246 -0.0002 26.5588 0.73405 26.5588 1.6398C26.5588 2.54555 25.8246 3.2798 24.9188 3.2798C24.0131 3.2798 23.2788 2.54555 23.2788 1.6398C23.2788 0.73405 24.0131 -0.0002 24.9188 -0.0002Z" id="Ellipse-330" fill="#1466CF" fill-rule="evenodd" stroke="none" />
    <path d="M48.2013 -0.0002C49.1071 -0.0002 49.8413 0.73405 49.8413 1.6398C49.8413 2.54555 49.1071 3.2798 48.2013 3.2798C47.2956 3.2798 46.5613 2.54555 46.5613 1.6398C46.5613 0.73405 47.2956 -0.0002 48.2013 -0.0002Z" id="Ellipse-331" fill="#1466CF" fill-rule="evenodd" stroke="none" />
    <path d="M71.4799 -0.0002C72.3857 -0.0002 73.1199 0.73405 73.1199 1.6398C73.1199 2.54555 72.3857 3.2798 71.4799 3.2798C70.5742 3.2798 69.8399 2.54555 69.8399 1.6398C69.8399 0.73405 70.5742 -0.0002 71.4799 -0.0002Z" id="Ellipse-332" fill="#1466CF" fill-rule="evenodd" stroke="none" />
    <path d="M94.7585 -0.0002C95.6643 -0.0002 96.3985 0.73405 96.3985 1.6398C96.3985 2.54555 95.6643 3.2798 94.7585 3.2798C93.8528 3.2798 93.1185 2.54555 93.1185 1.6398C93.1185 0.73405 93.8528 -0.0002 94.7585 -0.0002Z" id="Ellipse-333" fill="#1466CF" fill-rule="evenodd" stroke="none" />
    <path d="M118.041 -0.0002C118.947 -0.0002 119.681 0.73405 119.681 1.6398C119.681 2.54555 118.947 3.2798 118.041 3.2798C117.135 3.2798 116.401 2.54555 116.401 1.6398C116.401 0.73405 117.135 -0.0002 118.041 -0.0002Z" id="Ellipse-334" fill="#1466CF" fill-rule="evenodd" stroke="none" />
    <path d="M141.32 -0.0002C142.225 -0.0002 142.96 0.73405 142.96 1.6398C142.96 2.54555 142.225 3.2798 141.32 3.2798C140.414 3.2798 139.68 2.54555 139.68 1.6398C139.68 0.73405 140.414 -0.0002 141.32 -0.0002Z" id="Ellipse-335" fill="#1466CF" fill-rule="evenodd" stroke="none" />
    <path d="M164.602 -0.0002C165.508 -0.0002 166.242 0.73405 166.242 1.6398C166.242 2.54555 165.508 3.2798 164.602 3.2798C163.696 3.2798 162.962 2.54555 162.962 1.6398C162.962 0.73405 163.696 -0.0002 164.602 -0.0002Z" id="Ellipse-336" fill="#1466CF" fill-rule="evenodd" stroke="none" />
    <path d="M187.881 -0.0002C188.786 -0.0002 189.521 0.73405 189.521 1.6398C189.521 2.54555 188.786 3.2798 187.881 3.2798C186.975 3.2798 186.241 2.54555 186.241 1.6398C186.241 0.73405 186.975 -0.0002 187.881 -0.0002Z" id="Ellipse-337" fill="#1466CF" fill-rule="evenodd" stroke="none" />
    <path d="M211.159 -0.0002C212.065 -0.0002 212.799 0.73405 212.799 1.6398C212.799 2.54555 212.065 3.2798 211.159 3.2798C210.254 3.2798 209.519 2.54555 209.519 1.6398C209.519 0.73405 210.254 -0.0002 211.159 -0.0002Z" id="Ellipse-338" fill="#1466CF" fill-rule="evenodd" stroke="none" />
    <path d="M1.64022 23.2799C2.54597 23.2799 3.28022 24.0141 3.28022 24.9199C3.28022 25.8256 2.54597 26.5599 1.64022 26.5599C0.73447 26.5599 0.00022 25.8256 0.00022 24.9199C0.00022 24.0141 0.73447 23.2799 1.64022 23.2799Z" id="Ellipse-339" fill="#1466CF" fill-rule="evenodd" stroke="none" />
    <path d="M24.9188 23.2799C25.8246 23.2799 26.5588 24.0141 26.5588 24.9199C26.5588 25.8256 25.8246 26.5599 24.9188 26.5599C24.0131 26.5599 23.2788 25.8256 23.2788 24.9199C23.2788 24.0141 24.0131 23.2799 24.9188 23.2799Z" id="Ellipse-340" fill="#1466CF" fill-rule="evenodd" stroke="none" />
    <path d="M48.2013 23.2799C49.1071 23.2799 49.8413 24.0141 49.8413 24.9199C49.8413 25.8256 49.1071 26.5599 48.2013 26.5599C47.2956 26.5599 46.5613 25.8256 46.5613 24.9199C46.5613 24.0141 47.2956 23.2799 48.2013 23.2799Z" id="Ellipse-341" fill="#1466CF" fill-rule="evenodd" stroke="none" />
    <path d="M71.4799 23.2799C72.3857 23.2799 73.1199 24.0141 73.1199 24.9199C73.1199 25.8256 72.3857 26.5599 71.4799 26.5599C70.5742 26.5599 69.8399 25.8256 69.8399 24.9199C69.8399 24.0141 70.5742 23.2799 71.4799 23.2799Z" id="Ellipse-342" fill="#1466CF" fill-rule="evenodd" stroke="none" />
    <path d="M94.7585 23.2799C95.6643 23.2799 96.3985 24.0141 96.3985 24.9199C96.3985 25.8256 95.6643 26.5599 94.7585 26.5599C93.8528 26.5599 93.1185 25.8256 93.1185 24.9199C93.1185 24.0141 93.8528 23.2799 94.7585 23.2799Z" id="Ellipse-343" fill="#1466CF" fill-rule="evenodd" stroke="none" />
    <path d="M118.041 23.2799C118.947 23.2799 119.681 24.0141 119.681 24.9199C119.681 25.8256 118.947 26.5599 118.041 26.5599C117.135 26.5599 116.401 25.8256 116.401 24.9199C116.401 24.0141 117.135 23.2799 118.041 23.2799Z" id="Ellipse-344" fill="#1466CF" fill-rule="evenodd" stroke="none" />
    <path d="M141.32 23.2799C142.225 23.2799 142.96 24.0141 142.96 24.9199C142.96 25.8256 142.225 26.5599 141.32 26.5599C140.414 26.5599 139.68 25.8256 139.68 24.9199C139.68 24.0141 140.414 23.2799 141.32 23.2799Z" id="Ellipse-345" fill="#1466CF" fill-rule="evenodd" stroke="none" />
    <path d="M164.602 23.2799C165.508 23.2799 166.242 24.0141 166.242 24.9199C166.242 25.8256 165.508 26.5599 164.602 26.5599C163.696 26.5599 162.962 25.8256 162.962 24.9199C162.962 24.0141 163.696 23.2799 164.602 23.2799Z" id="Ellipse-346" fill="#1466CF" fill-rule="evenodd" stroke="none" />
    <path d="M187.881 23.2799C188.786 23.2799 189.521 24.0141 189.521 24.9199C189.521 25.8256 188.786 26.5599 187.881 26.5599C186.975 26.5599 186.241 25.8256 186.241 24.9199C186.241 24.0141 186.975 23.2799 187.881 23.2799Z" id="Ellipse-347" fill="#1466CF" fill-rule="evenodd" stroke="none" />
    <path d="M211.159 23.2799C212.065 23.2799 212.799 24.0141 212.799 24.9199C212.799 25.8256 212.065 26.5599 211.159 26.5599C210.254 26.5599 209.519 25.8256 209.519 24.9199C209.519 24.0141 210.254 23.2799 211.159 23.2799Z" id="Ellipse-348" fill="#1466CF" fill-rule="evenodd" stroke="none" />
    <path d="M1.64022 46.5599C2.54597 46.5599 3.28022 47.2942 3.28022 48.1999C3.28022 49.1057 2.54597 49.8399 1.64022 49.8399C0.73447 49.8399 0.00022 49.1057 0.00022 48.1999C0.00022 47.2942 0.73447 46.5599 1.64022 46.5599Z" id="Ellipse-349" fill="#1466CF" fill-rule="evenodd" stroke="none" />
    <path d="M24.9188 46.5599C25.8246 46.5599 26.5588 47.2942 26.5588 48.1999C26.5588 49.1057 25.8246 49.8399 24.9188 49.8399C24.0131 49.8399 23.2788 49.1057 23.2788 48.1999C23.2788 47.2942 24.0131 46.5599 24.9188 46.5599Z" id="Ellipse-350" fill="#1466CF" fill-rule="evenodd" stroke="none" />
    <path d="M48.2013 46.5599C49.1071 46.5599 49.8413 47.2942 49.8413 48.1999C49.8413 49.1057 49.1071 49.8399 48.2013 49.8399C47.2956 49.8399 46.5613 49.1057 46.5613 48.1999C46.5613 47.2942 47.2956 46.5599 48.2013 46.5599Z" id="Ellipse-351" fill="#1466CF" fill-rule="evenodd" stroke="none" />
    <path d="M71.4799 46.5599C72.3857 46.5599 73.1199 47.2942 73.1199 48.1999C73.1199 49.1057 72.3857 49.8399 71.4799 49.8399C70.5742 49.8399 69.8399 49.1057 69.8399 48.1999C69.8399 47.2942 70.5742 46.5599 71.4799 46.5599Z" id="Ellipse-352" fill="#1466CF" fill-rule="evenodd" stroke="none" />
    <path d="M94.7585 46.5599C95.6643 46.5599 96.3985 47.2942 96.3985 48.1999C96.3985 49.1057 95.6643 49.8399 94.7585 49.8399C93.8528 49.8399 93.1185 49.1057 93.1185 48.1999C93.1185 47.2942 93.8528 46.5599 94.7585 46.5599Z" id="Ellipse-353" fill="#1466CF" fill-rule="evenodd" stroke="none" />
    <path d="M118.041 46.5599C118.947 46.5599 119.681 47.2942 119.681 48.1999C119.681 49.1057 118.947 49.8399 118.041 49.8399C117.135 49.8399 116.401 49.1057 116.401 48.1999C116.401 47.2942 117.135 46.5599 118.041 46.5599Z" id="Ellipse-354" fill="#1466CF" fill-rule="evenodd" stroke="none" />
    <path d="M141.32 46.5599C142.225 46.5599 142.96 47.2942 142.96 48.1999C142.96 49.1057 142.225 49.8399 141.32 49.8399C140.414 49.8399 139.68 49.1057 139.68 48.1999C139.68 47.2942 140.414 46.5599 141.32 46.5599Z" id="Ellipse-355" fill="#1466CF" fill-rule="evenodd" stroke="none" />
    <path d="M164.602 46.5599C165.508 46.5599 166.242 47.2942 166.242 48.1999C166.242 49.1057 165.508 49.8399 164.602 49.8399C163.696 49.8399 162.962 49.1057 162.962 48.1999C162.962 47.2942 163.696 46.5599 164.602 46.5599Z" id="Ellipse-356" fill="#1466CF" fill-rule="evenodd" stroke="none" />
    <path d="M187.881 46.5599C188.786 46.5599 189.521 47.2942 189.521 48.1999C189.521 49.1057 188.786 49.8399 187.881 49.8399C186.975 49.8399 186.241 49.1057 186.241 48.1999C186.241 47.2942 186.975 46.5599 187.881 46.5599Z" id="Ellipse-357" fill="#1466CF" fill-rule="evenodd" stroke="none" />
    <path d="M211.159 46.5599C212.065 46.5599 212.799 47.2942 212.799 48.1999C212.799 49.1057 212.065 49.8399 211.159 49.8399C210.254 49.8399 209.519 49.1057 209.519 48.1999C209.519 47.2942 210.254 46.5599 211.159 46.5599Z" id="Ellipse-358" fill="#1466CF" fill-rule="evenodd" stroke="none" />
    <path d="M1.64022 69.8397C2.54597 69.8397 3.28022 70.574 3.28022 71.4797C3.28022 72.3855 2.54597 73.1197 1.64022 73.1197C0.73447 73.1197 0.00022 72.3855 0.00022 71.4797C0.00022 70.574 0.73447 69.8397 1.64022 69.8397Z" id="Ellipse-359" fill="#1466CF" fill-rule="evenodd" stroke="none" />
    <path d="M24.9188 69.8397C25.8246 69.8397 26.5588 70.574 26.5588 71.4797C26.5588 72.3855 25.8246 73.1197 24.9188 73.1197C24.0131 73.1197 23.2788 72.3855 23.2788 71.4797C23.2788 70.574 24.0131 69.8397 24.9188 69.8397Z" id="Ellipse-360" fill="#1466CF" fill-rule="evenodd" stroke="none" />
    <path d="M48.2013 69.8397C49.1071 69.8397 49.8413 70.574 49.8413 71.4797C49.8413 72.3855 49.1071 73.1197 48.2013 73.1197C47.2956 73.1197 46.5613 72.3855 46.5613 71.4797C46.5613 70.574 47.2956 69.8397 48.2013 69.8397Z" id="Ellipse-361" fill="#1466CF" fill-rule="evenodd" stroke="none" />
    <path d="M71.4799 69.8397C72.3857 69.8397 73.1199 70.574 73.1199 71.4797C73.1199 72.3855 72.3857 73.1197 71.4799 73.1197C70.5742 73.1197 69.8399 72.3855 69.8399 71.4797C69.8399 70.574 70.5742 69.8397 71.4799 69.8397Z" id="Ellipse-362" fill="#1466CF" fill-rule="evenodd" stroke="none" />
    <path d="M94.7585 69.8397C95.6643 69.8397 96.3985 70.574 96.3985 71.4797C96.3985 72.3855 95.6643 73.1197 94.7585 73.1197C93.8528 73.1197 93.1185 72.3855 93.1185 71.4797C93.1185 70.574 93.8528 69.8397 94.7585 69.8397Z" id="Ellipse-363" fill="#1466CF" fill-rule="evenodd" stroke="none" />
    <path d="M118.041 69.8397C118.947 69.8397 119.681 70.574 119.681 71.4797C119.681 72.3855 118.947 73.1197 118.041 73.1197C117.135 73.1197 116.401 72.3855 116.401 71.4797C116.401 70.574 117.135 69.8397 118.041 69.8397Z" id="Ellipse-364" fill="#1466CF" fill-rule="evenodd" stroke="none" />
    <path d="M141.32 69.8397C142.225 69.8397 142.96 70.574 142.96 71.4797C142.96 72.3855 142.225 73.1197 141.32 73.1197C140.414 73.1197 139.68 72.3855 139.68 71.4797C139.68 70.574 140.414 69.8397 141.32 69.8397Z" id="Ellipse-365" fill="#1466CF" fill-rule="evenodd" stroke="none" />
    <path d="M164.602 69.8397C165.508 69.8397 166.242 70.574 166.242 71.4797C166.242 72.3855 165.508 73.1197 164.602 73.1197C163.696 73.1197 162.962 72.3855 162.962 71.4797C162.962 70.574 163.696 69.8397 164.602 69.8397Z" id="Ellipse-366" fill="#1466CF" fill-rule="evenodd" stroke="none" />
    <path d="M187.881 69.8397C188.786 69.8397 189.521 70.574 189.521 71.4797C189.521 72.3855 188.786 73.1197 187.881 73.1197C186.975 73.1197 186.241 72.3855 186.241 71.4797C186.241 70.574 186.975 69.8397 187.881 69.8397Z" id="Ellipse-367" fill="#1466CF" fill-rule="evenodd" stroke="none" />
    <path d="M211.159 69.8397C212.065 69.8397 212.799 70.574 212.799 71.4797C212.799 72.3855 212.065 73.1197 211.159 73.1197C210.254 73.1197 209.519 72.3855 209.519 71.4797C209.519 70.574 210.254 69.8397 211.159 69.8397Z" id="Ellipse-368" fill="#1466CF" fill-rule="evenodd" stroke="none" />
    <path d="M1.64022 93.1198C2.54597 93.1198 3.28022 93.854 3.28022 94.7598C3.28022 95.6655 2.54597 96.3998 1.64022 96.3998C0.73447 96.3998 0.00022 95.6655 0.00022 94.7598C0.00022 93.854 0.73447 93.1198 1.64022 93.1198Z" id="Ellipse-369" fill="#1466CF" fill-rule="evenodd" stroke="none" />
    <path d="M24.9188 93.1198C25.8246 93.1198 26.5588 93.854 26.5588 94.7598C26.5588 95.6655 25.8246 96.3998 24.9188 96.3998C24.0131 96.3998 23.2788 95.6655 23.2788 94.7598C23.2788 93.854 24.0131 93.1198 24.9188 93.1198Z" id="Ellipse-370" fill="#1466CF" fill-rule="evenodd" stroke="none" />
    <path d="M48.2013 93.1198C49.1071 93.1198 49.8413 93.854 49.8413 94.7598C49.8413 95.6655 49.1071 96.3998 48.2013 96.3998C47.2956 96.3998 46.5613 95.6655 46.5613 94.7598C46.5613 93.854 47.2956 93.1198 48.2013 93.1198Z" id="Ellipse-371" fill="#1466CF" fill-rule="evenodd" stroke="none" />
    <path d="M71.4799 93.1198C72.3857 93.1198 73.1199 93.854 73.1199 94.7598C73.1199 95.6655 72.3857 96.3998 71.4799 96.3998C70.5742 96.3998 69.8399 95.6655 69.8399 94.7598C69.8399 93.854 70.5742 93.1198 71.4799 93.1198Z" id="Ellipse-372" fill="#1466CF" fill-rule="evenodd" stroke="none" />
    <path d="M94.7585 93.1198C95.6643 93.1198 96.3985 93.854 96.3985 94.7598C96.3985 95.6655 95.6643 96.3998 94.7585 96.3998C93.8528 96.3998 93.1185 95.6655 93.1185 94.7598C93.1185 93.854 93.8528 93.1198 94.7585 93.1198Z" id="Ellipse-373" fill="#1466CF" fill-rule="evenodd" stroke="none" />
    <path d="M118.041 93.1198C118.947 93.1198 119.681 93.854 119.681 94.7598C119.681 95.6655 118.947 96.3998 118.041 96.3998C117.135 96.3998 116.401 95.6655 116.401 94.7598C116.401 93.854 117.135 93.1198 118.041 93.1198Z" id="Ellipse-374" fill="#1466CF" fill-rule="evenodd" stroke="none" />
    <path d="M141.32 93.1198C142.225 93.1198 142.96 93.854 142.96 94.7598C142.96 95.6655 142.225 96.3998 141.32 96.3998C140.414 96.3998 139.68 95.6655 139.68 94.7598C139.68 93.854 140.414 93.1198 141.32 93.1198Z" id="Ellipse-375" fill="#1466CF" fill-rule="evenodd" stroke="none" />
    <path d="M164.602 93.1198C165.508 93.1198 166.242 93.854 166.242 94.7598C166.242 95.6655 165.508 96.3998 164.602 96.3998C163.696 96.3998 162.962 95.6655 162.962 94.7598C162.962 93.854 163.696 93.1198 164.602 93.1198Z" id="Ellipse-376" fill="#1466CF" fill-rule="evenodd" stroke="none" />
    <path d="M187.881 93.1198C188.786 93.1198 189.521 93.854 189.521 94.7598C189.521 95.6655 188.786 96.3998 187.881 96.3998C186.975 96.3998 186.241 95.6655 186.241 94.7598C186.241 93.854 186.975 93.1198 187.881 93.1198Z" id="Ellipse-377" fill="#1466CF" fill-rule="evenodd" stroke="none" />
    <path d="M211.159 93.1198C212.065 93.1198 212.799 93.854 212.799 94.7598C212.799 95.6655 212.065 96.3998 211.159 96.3998C210.254 96.3998 209.519 95.6655 209.519 94.7598C209.519 93.854 210.254 93.1198 211.159 93.1198Z" id="Ellipse-378" fill="#1466CF" fill-rule="evenodd" stroke="none" />
  </g>
</svg>